{
.appVersion = "3151";
.formatVersion = 3;
DisplayStrings = (
"வெளியேற்றப்படுகிறது",
"/ka_uMatra-tamil/ka_uMatra-tamil/ka_uMatra-tamil",
"/ka_uMatra-tamil",
"க",
"த",
"/ya_uMatra-tamil",
"ய/ya_uuMatra-tamil",
"ய/ya_uuMatra-tamil",
"/changeTry",
"/changeTry.001"
);
axes = (
{
name = Weight;
tag = wght;
}
);
date = "2022-11-25 23:19:09 +0000";
familyName = Madurai;
featurePrefixes = (
{
code = "languagesystem DFLT dflt;

languagesystem tml2 dflt;";
name = Languagesystems;
},
{
code = "@list1 = [nga-tamil ya-tamil va-tamil];
@list1Sub = [nga-tamil.001 ya-tamil va-tamil.001];

@list2 = [iMatra-tamil iiMatra-tamil];
@list2Sub = [iMatra-tamil.001 iiMatra-tamil.001];

lookup subSt {
	sub @list1 by @list1Sub;
	sub @list2 by @list2Sub;
} subSt;";
name = lkup;
}
);
features = (
{
automatic = 1;
code = "feature akhn;
feature cjct;
feature psts;
";
tag = aalt;
},
{
code = "lookupflag 0;
script tml2;
lookup Akhn_tamil {
	sub ka-tamil pulli-tamil ssa-tamil by k_ssa-tamil;
	sub sha-tamil pulli-tamil ra-tamil iiMatra-tamil by sh_ra_iiMatra-tamil;
	sub sa-tamil pulli-tamil ra-tamil iiMatra-tamil by sh_ra_iiMatra-tamil;
} Akhn_tamil;
";
tag = akhn;
},
{
code = "script tml2;
lookup cjct_tamil {
	sub ka-tamil pulli-tamil ssa-tamil by k_ssa-tamil;
} cjct_tamil;
";
tag = cjct;
},
{
code = "script tml2;
sub [nga-tamil pa-tamil ya-tamil] uMatra-tamil' by uMatra-tamil.alt1;
sub [nya-tamil nna-tamil ta-tamil na-tamil nnna-tamil rra-tamil la-tamil]' uuMatra-tamil by [nya_uMatra-tamil nna_uMatra-tamil ta_uMatra-tamil na_uMatra-tamil nnna_uMatra-tamil rra_uMatra-tamil la_uMatra-tamil];
sub [nya_uMatra-tamil nna_uMatra-tamil ta_uMatra-tamil na_uMatra-tamil nnna_uMatra-tamil rra_uMatra-tamil la_uMatra-tamil] uuMatra-tamil' by uuMatra-tamil.alt1;

#uMatra ligatures
sub va-tamil uMatra-tamil by va_uMatra-tamil;
sub ka-tamil uMatra-tamil by ka_uMatra-tamil;
sub ca-tamil uMatra-tamil by ca_uMatra-tamil;
sub pa-tamil uMatra-tamil.alt1 by pa_uMatra-tamil;

glyphs = (
{
glyphname = "ka_uMatra-tamil";
lastChange = "2023-04-08 14:10:14 +0000";
layers = (
{
anchors = (
{
name = imatra;
pos = (460,600);
},
{
name = top;
pos = (265,600);
}
);
layerId = m01;
shapes = (
{
pos = (20,0);
ref = chaMelPaadi;
},
{
pos = (120,0);
ref = chaKeezhPaadi;
},
{
closed = 0;
nodes = (
(480,600,l),
(480,627,ls),
(480,715,o),
(415,780,o),
(327,780,cs),
(203,780,ls),
(115,780,o),
(50,715,o),
(50,627,cs),
(50,13,ls),
(50,-75,o),
(115,-140,o),
(203,-140,cs),
(327,-140,ls),
(415,-140,o),
(480,-75,o),
(480,13,cs),
(480,191,ls),
(480,279,o),
(481,352,o),
(316,352,c)
);
}
);
width = 530;
},
{
anchors = (
{
name = imatra;
pos = (460,600);
},
{
name = top;
pos = (265,600);
}
);
layerId = "DF2AA445-C2A4-4E12-8ADA-5B4903805A97";
shapes = (
{
closed = 1;
nodes = (
(327,-150,ls),
(420,-150,o),
(490,-80,o),
(490,13,cs),
(490,191,ls),
(490,277,o),
(491,357,o),
(330,362,c),
(330,590,l),
(430,590,ls),
(436,590,o),
(440,594,o),
(440,600,cs),
(440,606,o),
(436,610,o),
(430,610,cs),
(200,610,ls),
(194,610,o),
(190,607,o),
(190,600,cs),
(190,357,l),
(145,347,o),
(110,303,o),
(110,248,cs),
(110,102,ls),
(110,38,o),
(157,-10,o),
(220,-10,cs),
(283,-10,o),
(330,38,o),
(330,102,cs),
(330,342,l),
(471,338,o),
(470,276,o),
(470,191,cs),
(470,13,ls),
(470,-71,o),
(411,-130,o),
(327,-130,cs),
(203,-130,ls),
(119,-130,o),
(60,-71,o),
(60,13,cs),
(60,627,ls),
(60,711,o),
(119,770,o),
(203,770,cs),
(327,770,ls),
(411,770,o),
(470,711,o),
(470,627,cs),
(470,600,ls),
(470,594,o),
(474,590,o),
(480,590,cs),
(486,590,o),
(490,594,o),
(490,600,cs),
(490,627,ls),
(490,720,o),
(420,790,o),
(327,790,cs),
(203,790,ls),
(110,790,o),
(40,720,o),
(40,627,cs),
(40,13,ls),
(40,-80,o),
(110,-150,o),
(203,-150,cs)
);
},
{
closed = 1;
nodes = (
(166,10,o),
(130,47,o),
(130,102,cs),
(130,248,ls),
(130,303,o),
(167,340,o),
(212,340,cs),
(310,340,l),
(310,102,ls),
(310,47,o),
(274,10,o),
(220,10,cs)
);
},
{
closed = 1;
nodes = (
(210,590,l),
(310,590,l),
(310,360,l),
(210,360,l)
);
}
);
width = 530;
},
{
anchors = (
{
name = imatra;
pos = (460,600);
},
{
name = top;
pos = (265,600);
}
);
layerId = "831A5D7B-7350-4608-95DD-9715BE7B29F6";
shapes = (
{
closed = 1;
nodes = (
(327.2,-160,ls),
(426,-160,o),
(500,-86,o),
(500,13.2,cs),
(500,191.2,ls),
(500,274.8,o),
(501.2,363.6,o),
(340,371.6,c),
(340,580,l),
(430,580,ls),
(441.2,580,o),
(450,588.8,o),
(450,600,cs),
(450,611.2,o),
(441.2,620,o),
(430,620,cs),
(200,620,ls),
(187.2,620,o),
(180,612.8,o),
(180,600,cs),
(180,364.8,l),
(134.8,350.4,o),
(100,305.2,o),
(100,248,cs),
(100,102,ls),
(100,32.4,o),
(150.8,-20,o),
(220,-20,cs),
(289.2,-20,o),
(340,32.4,o),
(340,102,cs),
(340,331.6,l),
(460.8,325.6,o),
(460,274,o),
(460,191.2,cs),
(460,13.2,ls),
(460,-66.8,o),
(406.8,-120,o),
(327.2,-120,cs),
(203.2,-120,ls),
(123.2,-120,o),
(70,-66.8,o),
(70,13.2,cs),
(70,627.2,ls),
(70,706.8,o),
(123.2,760,o),
(203.2,760,cs),
(327.2,760,ls),
(406.8,760,o),
(460,706.8,o),
(460,627.2,cs),
(460,600,ls),
(460,588.8,o),
(468.8,580,o),
(480,580,cs),
(491.2,580,o),
(500,588.8,o),
(500,600,cs),
(500,627.2,ls),
(500,726,o),
(426,800,o),
(327.2,800,cs),
(203.2,800,ls),
(104,800,o),
(30,726,o),
(30,627.2,cs),
(30,13.2,ls),
(30,-86,o),
(104,-160,o),
(203.2,-160,cs)
);
},
{
closed = 1;
nodes = (
(170.4,20,o),
(140,51.2,o),
(140,102,cs),
(140,248,ls),
(140,298.8,o),
(171.2,330,o),
(212,330,cs),
(300,330,l),
(300,102,ls),
(300,51.2,o),
(269.6,20,o),
(220,20,cs)
);
},
{
closed = 1;
nodes = (
(220,580,l),
(300,580,l),
(300,370,l),
(220,370,l)
);
}
);
width = 530;
}
);
metricLeft = "ca-tamil";
metricRight = "ca-tamil";
},
{
glyphname = "ka_uuMatra-tamil";
lastChange = "2023-04-08 14:10:14 +0000";
layers = (
{
anchors = (
{
name = imatra;
pos = (680,600);
},
{
name = top;
pos = (375,600);
}
);
layerId = m01;
shapes = (
{
pos = (-50,0);
ref = chaMelPaadi;
},
{
pos = (50,0);
ref = chaKeezhPaadi;
},
{
closed = 0;
nodes = (
(250,350,l),
(478,350,ls),
(549,350,o),
(600,298,o),
(600,227,cs),
(600,222,ls),
(600,151,o),
(549,100,o),
(478,100,cs),
(380,100,ls),
(351,100,o),
(329,79,o),
(329,50,cs),
(329,21,o),
(351,0,o),
(380,0,cs),
(700,0,l)
);
},
{
closed = 1;
nodes = (
(433,160,o),
(464,195,o),
(464,242,cs),
(464,268,ls),
(464,315,o),
(432,350,o),
(389,350,cs),
(346,350,o),
(314,315,o),
(314,268,cs),
(314,242,ls),
(314,195,o),
(346,160,o),
(389,160,cs)
);
}
);
width = 750;
},
{
anchors = (
{
name = imatra;
pos = (680,600);
},
{
name = top;
pos = (375,600);
}
);
layerId = "DF2AA445-C2A4-4E12-8ADA-5B4903805A97";
shapes = (
{
closed = 1;
nodes = (
(214,-10,o),
(260,38,o),
(260,102,cs),
(260,340,l),
(335,340,l),
(316,323,o),
(304,298,o),
(304,268,cs),
(304,242,ls),
(304,190,o),
(340,150,o),
(389,150,cs),
(439,150,o),
(474,190,o),
(474,242,cs),
(474,268,ls),
(474,298,o),
(462,323,o),
(443,340,c),
(478,340,ls),
(545,340,o),
(590,294,o),
(590,227,cs),
(590,222,ls),
(590,155,o),
(545,110,o),
(478,110,cs),
(380,110,ls),
(346,110,o),
(319,84,o),
(319,50,cs),
(319,16,o),
(346,-10,o),
(380,-10,cs),
(700,-10,ls),
(706,-10,o),
(710,-6,o),
(710,0,cs),
(710,6,o),
(706,10,o),
(700,10,cs),
(380,10,ls),
(355,10,o),
(339,25,o),
(339,50,cs),
(339,75,o),
(355,90,o),
(380,90,cs),
(478,90,ls),
(554,90,o),
(610,146,o),
(610,222,cs),
(610,227,ls),
(610,303,o),
(554,360,o),
(478,360,cs),
(260,360,l),
(260,590,l),
(360,590,ls),
(366,590,o),
(370,594,o),
(370,600,cs),
(370,606,o),
(366,610,o),
(360,610,cs),
(130,610,ls),
(124,610,o),
(120,606,o),
(120,600,cs),
(120,357,l),
(76,346,o),
(40,304,o),
(40,248,cs),
(40,102,ls),
(40,38,o),
(86,-10,o),
(150,-10,cs)
);
},
{
closed = 1;
nodes = (
(96,10,o),
(60,47,o),
(60,102,cs),
(60,248,ls),
(60,303,o),
(97,340,o),
(142,340,cs),
(240,340,l),
(240,102,ls),
(240,47,o),
(204,10,o),
(150,10,cs)
);
},
{
closed = 1;
nodes = (
(350,170,o),
(324,199,o),
(324,242,cs),
(324,268,ls),
(324,311,o),
(350,340,o),
(389,340,cs),
(428,340,o),
(454,311,o),
(454,268,cs),
(454,242,ls),
(454,199,o),
(428,170,o),
(389,170,cs)
);
},
{
closed = 1;
nodes = (
(140,590,l),
(240,590,l),
(240,360,l),
(140,360,l)
);
}
);
width = 750;
},
{
anchors = (
{
name = imatra;
pos = (680,600);
},
{
name = top;
pos = (375,600);
}
);
layerId = "831A5D7B-7350-4608-95DD-9715BE7B29F6";
shapes = (
{
closed = 1;
nodes = (
(219.2,-20,o),
(270,32.4,o),
(270,102,cs),
(270,330,l),
(312.8,330,l),
(300.8,312.8,o),
(294,291.6,o),
(294,268,cs),
(294,242,ls),
(294,184.8,o),
(334.4,140,o),
(389.2,140,cs),
(444.8,140,o),
(484,184.8,o),
(484,242,cs),
(484,268,ls),
(484,291.6,o),
(477.2,312.8,o),
(465.2,330,c),
(478,330,ls),
(540.8,330,o),
(580,290,o),
(580,227.2,cs),
(580,222,ls),
(580,159.2,o),
(540.8,120,o),
(478,120,cs),
(380,120,ls),
(340.4,120,o),
(309.2,90,o),
(309.2,50,cs),
(309.2,10,o),
(340.4,-20,o),
(380,-20,cs),
(700,-20,ls),
(711.2,-20,o),
(720,-11.2,o),
(720,0,cs),
(720,11.2,o),
(711.2,20,o),
(700,20,cs),
(380,20,ls),
(359.2,20,o),
(349.2,29.6,o),
(349.2,50,cs),
(349.2,70.4,o),
(359.2,80,o),
(380,80,cs),
(478,80,ls),
(560,80,o),
(620,140,o),
(620,222,cs),
(620,227.2,ls),
(620,308.8,o),
(560,370,o),
(478,370,cs),
(270,370,l),
(270,580,l),
(360,580,ls),
(371.2,580,o),
(380,588.8,o),
(380,600,cs),
(380,611.2,o),
(371.2,620,o),
(360,620,cs),
(130,620,ls),
(117.2,620,o),
(110,612.8,o),
(110,600,cs),
(110,364.8,l),
(64.8,350.4,o),
(30,305.2,o),
(30,248,cs),
(30,102,ls),
(30,32.4,o),
(80.8,-20,o),
(150,-20,cs)
);
},
{
closed = 1;
nodes = (
(100.4,20,o),
(70,51.2,o),
(70,102,cs),
(70,248,ls),
(70,298.8,o),
(101.2,330,o),
(142,330,cs),
(230,330,l),
(230,102,ls),
(230,51.2,o),
(199.6,20,o),
(150,20,cs)
);
},
{
closed = 1;
nodes = (
(354.8,180,o),
(334,202.8,o),
(334,242,cs),
(334,268,ls),
(334,307.2,o),
(354.8,330,o),
(389.2,330,cs),
(423.2,330,o),
(444,307.2,o),
(444,268,cs),
(444,242,ls),
(444,202.4,o),
(424,180,o),
(389.2,180,cs)
);
},
{
closed = 1;
nodes = (
(150,580,l),
(230,580,l),
(230,370,l),
(150,370,l)
);
}
);
width = 750;
}
);
metricLeft = "ca-tamil";
metricRight = "ca-tamil";
},
{
glyphname = "nga_uuMatra-tamil";
lastChange = "2023-04-08 14:10:14 +0000";
layers = (
{
anchors = (
{
name = imatra;
pos = (570,600);
},
{
name = top;
pos = (320,600);
}
);
layerId = m01;
shapes = (
{
ref = "nga-tamil";
},
{
pos = (325,-210);
ref = kokkiVattam;
},
{
closed = 0;
nodes = (
(375,-210,l),
(498,-210,ls),
(551,-210,o),
(590,-171,o),
(590,-118,cs),
(590,4,ls),
(590,30,o),
(570,50,o),
(544,50,cs),
(510,50,l)
);
},
{
closed = 0;
nodes = (
(510,0,l),
(510,-50,l)
);
}
);
width = 640;
},
{
anchors = (
{
name = imatra;
pos = (570,600);
},
{
name = top;
pos = (320,600);
}
);
layerId = "DF2AA445-C2A4-4E12-8ADA-5B4903805A97";
shapes = (
{
closed = 1;
nodes = (
(498,-220,ls),
(556,-220,o),
(600,-176,o),
(600,-118,cs),
(600,4,ls),
(600,35,o),
(575,60,o),
(544,60,cs),
(520,60,l),
(520,450,ls),
(520,456,o),
(516,460,o),
(510,460,cs),
(504,460,o),
(500,456,o),
(500,450,cs),
(500,10,l),
(358,9,l),
(406,35,o),
(420,84,o),
(420,155,cs),
(420,292,o),
(420,355,o),
(311,355,cs),
(277,355,o),
(254,343,o),
(240,325,c),
(240,590,l),
(360,590,ls),
(366,590,o),
(370,594,o),
(370,600,cs),
(370,606,o),
(366,610,o),
(360,610,cs),
(50,610,ls),
(44,610,o),
(40,606,o),
(40,600,cs),
(40,0,ls),
(40,-6,o),
(44,-10,o),
(50,-10,cs),
(56,-10,o),
(60,-6,o),
(60,0,cs),
(60,590,l),
(220,590,l),
(220,150,ls),
(220,144,o),
(224,140,o),
(230,140,cs),
(236,140,o),
(240,144,o),
(240,150,cs),
(240,260,ls),
(240,302,o),
(257,335,o),
(311,335,cs),
(400,335,o),
(400,292,o),
(400,155,cs),
(400,56,o),
(374,10,o),
(259,8,cs),
(255,8,o),
(252,4,o),
(252,-2,cs),
(252,-12,l),
(500,-10,l),
(500,-50,ls),
(500,-56,o),
(504,-60,o),
(510,-60,cs),
(516,-60,o),
(520,-56,o),
(520,-50,cs),
(520,40,l),
(544,40,ls),
(566,40,o),
(580,26,o),
(580,4,cs),
(580,-118,ls),
(580,-167,o),
(547,-200,o),
(498,-200,cs),
(419,-200,l),
(429,-189,o),
(435,-175,o),
(435,-160,cs),
(435,-128,o),
(407,-100,o),
(375,-100,cs),
(343,-100,o),
(315,-128,o),
(315,-160,cs),
(315,-192,o),
(343,-220,o),
(375,-220,cs)
);
},
{
closed = 1;
nodes = (
(352,-200,o),
(335,-183,o),
(335,-160,cs),
(335,-137,o),
(352,-120,o),
(375,-120,cs),
(398,-120,o),
(415,-137,o),
(415,-160,cs),
(415,-183,o),
(398,-200,o),
(375,-200,cs)
);
}
);
width = 640;
},
{
anchors = (
{
name = imatra;
pos = (570,600);
},
{
name = top;
pos = (320,600);
}
);
layerId = "831A5D7B-7350-4608-95DD-9715BE7B29F6";
shapes = (
{
closed = 1;
nodes = (
(498,-230,ls),
(562,-230,o),
(610,-182,o),
(610,-118,cs),
(610,4,ls),
(610,40.8,o),
(580.8,70,o),
(544,70,cs),
(530,70,l),
(530,450,ls),
(530,461.2,o),
(521.2,470,o),
(510,470,cs),
(498.8,470,o),
(490,461.2,o),
(490,450,cs),
(490,20,l),
(388.8,19.2,l),
(419.6,49.2,o),
(430,95.6,o),
(430,155.2,cs),
(430,292,o),
(430,365.2,o),
(311.2,365.2,cs),
(285.2,365.2,o),
(265.2,358.8,o),
(250,348,c),
(250,580,l),
(360,580,ls),
(371.2,580,o),
(380,588.8,o),
(380,600,cs),
(380,611.2,o),
(371.2,620,o),
(360,620,cs),
(50,620,ls),
(37.2,620,o),
(30,613.2,o),
(30,600,cs),
(30,0,ls),
(30,-11.2,o),
(38.8,-20,o),
(50,-20,cs),
(61.2,-20,o),
(70,-11.2,o),
(70,0,cs),
(70,580,l),
(210,580,l),
(210,150,ls),
(210,138.8,o),
(218.8,130,o),
(230,130,cs),
(241.2,130,o),
(250,138.8,o),
(250,150,cs),
(250,260,ls),
(250,300,o),
(263.2,325.2,o),
(311.2,325.2,cs),
(390.4,325.2,o),
(390,292.4,o),
(390,155.2,cs),
(390,58.8,o),
(368.4,19.6,o),
(260,18,cs),
(255.2,18,o),
(252,11.2,o),
(252,-2,cs),
(252,-22,l),
(258.8,-22,l),
(490,-20,l),
(490,-50,ls),
(490,-61.2,o),
(498.8,-70,o),
(510,-70,cs),
(521.2,-70,o),
(530,-61.2,o),
(530,-50,cs),
(530,30,l),
(544,30,ls),
(561.6,30,o),
(570,21.6,o),
(570,4,cs),
(570,-118,ls),
(570,-162.8,o),
(542.8,-190,o),
(498,-190,cs),
(438,-190,l),
(442.4,-180.8,o),
(445.2,-170.8,o),
(445.2,-160,cs),
(445.2,-122,o),
(412.8,-90,o),
(375.2,-90,cs),
(337.2,-90,o),
(305.2,-122,o),
(305.2,-160,cs),
(305.2,-198,o),
(337.2,-230,o),
(375.2,-230,cs)
);
},
{
closed = 1;
nodes = (
(356.4,-190,o),
(345.2,-178.8,o),
(345.2,-160,cs),
(345.2,-141.2,o),
(356.4,-130,o),
(375.2,-130,cs),
(393.6,-130,o),
(405.2,-141.2,o),
(405.2,-160,cs),
(405.2,-178.8,o),
(393.6,-190,o),
(375.2,-190,cs)
);
}
);
width = 640;
}
);
metricLeft = "ca-tamil";
metricRight = "ca-tamil";
},
{
glyphname = "ca_uMatra-tamil";
lastChange = "2023-04-08 14:10:14 +0000";
layers = (
{
anchors = (
{
name = imatra;
pos = (415,600);
},
{
name = top;
pos = (243,600);
}
);
layerId = m01;
shapes = (
{
ref = "ca-tamil";
},
{
closed = 0;
nodes = (
(360,0,l),
(360,350,l),
(435,350,l)
);
}
);
width = 485;
},
{
anchors = (
{
name = imatra;
pos = (415,600);
},
{
name = top;
pos = (243,600);
}
);
layerId = "DF2AA445-C2A4-4E12-8ADA-5B4903805A97";
shapes = (
{
closed = 1;
nodes = (
(214,-10,o),
(260,38,o),
(260,102,cs),
(260,340,l),
(350,340,l),
(350,0,ls),
(350,-6,o),
(354,-10,o),
(360,-10,cs),
(366,-10,o),
(370,-6,o),
(370,0,cs),
(370,340,l),
(435,340,ls),
(440,340,o),
(445,344,o),
(445,350,cs),
(445,356,o),
(440,360,o),
(435,360,cs),
(260,360,l),
(260,590,l),
(360,590,ls),
(366,590,o),
(370,594,o),
(370,600,cs),
(370,606,o),
(366,610,o),
(360,610,cs),
(130,610,ls),
(124,610,o),
(120,606,o),
(120,600,cs),
(120,357,l),
(76,346,o),
(40,304,o),
(40,248,cs),
(40,102,ls),
(40,38,o),
(86,-10,o),
(150,-10,cs)
);
},
{
closed = 1;
nodes = (
(96,10,o),
(60,47,o),
(60,102,cs),
(60,248,ls),
(60,303,o),
(97,340,o),
(142,340,cs),
(240,340,l),
(240,102,ls),
(240,47,o),
(204,10,o),
(150,10,cs)
);
},
{
closed = 1;
nodes = (
(140,590,l),
(240,590,l),
(240,360,l),
(140,360,l)
);
}
);
width = 485;
},
{
anchors = (
{
name = imatra;
pos = (415,600);
},
{
name = top;
pos = (243,600);
}
);
layerId = "831A5D7B-7350-4608-95DD-9715BE7B29F6";
shapes = (
{
closed = 1;
nodes = (
(219.2,-20,o),
(270,32.4,o),
(270,102,cs),
(270,330,l),
(340,330,l),
(340,0,ls),
(340,-11.2,o),
(348.8,-20,o),
(360,-20,cs),
(371.2,-20,o),
(380,-11.2,o),
(380,0,cs),
(380,330,l),
(435.2,330,ls),
(446,330,o),
(455.2,338.8,o),
(455.2,350,cs),
(455.2,361.2,o),
(446,370,o),
(435.2,370,cs),
(270,370,l),
(270,580,l),
(360,580,ls),
(371.2,580,o),
(380,588.8,o),
(380,600,cs),
(380,611.2,o),
(371.2,620,o),
(360,620,cs),
(130,620,ls),
(117.2,620,o),
(110,612.8,o),
(110,600,cs),
(110,364.8,l),
(64.8,350.4,o),
(30,305.2,o),
(30,248,cs),
(30,102,ls),
(30,32.4,o),
(80.8,-20,o),
(150,-20,cs)
);
},
{
closed = 1;
nodes = (
(100.4,20,o),
(70,51.2,o),
(70,102,cs),
(70,248,ls),
(70,298.8,o),
(101.2,330,o),
(142,330,cs),
(230,330,l),
(230,102,ls),
(230,51.2,o),
(199.6,20,o),
(150,20,cs)
);
},
{
closed = 1;
nodes = (
(150,580,l),
(230,580,l),
(230,370,l),
(150,370,l)
);
}
);
width = 485;
}
);
metricLeft = "ca-tamil";
metricRight = "ca-tamil";
},
{
glyphname = "ca_uuMatra-tamil";
lastChange = "2023-04-08 14:10:14 +0000";
layers = (
{
anchors = (
{
name = imatra;
pos = (420,600);
},
{
name = top;
pos = (245,600);
}
);
layerId = m01;
shapes = (
{
ref = "ca_uMatra-tamil";
},
{
pos = (175,-210);
ref = kokkiVattam;
},
{
closed = 0;
nodes = (
(225,-210,l),
(348,-210,ls),
(401,-210,o),
(440,-171,o),
(440,-118,cs),
(440,4,ls),
(440,30,o),
(420,50,o),
(394,50,cs),
(360,50,l)
);
}
);
width = 490;
},
{
anchors = (
{
name = imatra;
pos = (420,600);
},
{
name = top;
pos = (245,600);
}
);
layerId = "DF2AA445-C2A4-4E12-8ADA-5B4903805A97";
shapes = (
{
closed = 1;
nodes = (
(348,-220,ls),
(406,-220,o),
(450,-176,o),
(450,-118,cs),
(450,4,ls),
(450,35,o),
(425,60,o),
(394,60,cs),
(370,60,l),
(370,340,l),
(435,340,ls),
(440,340,o),
(445,344,o),
(445,350,cs),
(445,356,o),
(440,360,o),
(435,360,cs),
(260,360,l),
(260,590,l),
(360,590,ls),
(366,590,o),
(370,594,o),
(370,600,cs),
(370,606,o),
(366,610,o),
(360,610,cs),
(130,610,ls),
(124,610,o),
(120,606,o),
(120,600,cs),
(120,357,l),
(76,346,o),
(40,304,o),
(40,248,cs),
(40,102,ls),
(40,38,o),
(86,-10,o),
(150,-10,cs),
(214,-10,o),
(260,38,o),
(260,102,cs),
(260,340,l),
(350,340,l),
(350,0,ls),
(350,-6,o),
(354,-10,o),
(360,-10,cs),
(366,-10,o),
(370,-6,o),
(370,0,cs),
(370,40,l),
(394,40,ls),
(416,40,o),
(430,26,o),
(430,4,cs),
(430,-118,ls),
(430,-167,o),
(397,-200,o),
(348,-200,cs),
(269,-200,l),
(279,-189,o),
(285,-175,o),
(285,-160,cs),
(285,-128,o),
(257,-100,o),
(225,-100,cs),
(193,-100,o),
(165,-128,o),
(165,-160,cs),
(165,-192,o),
(193,-220,o),
(225,-220,cs)
);
},
{
closed = 1;
nodes = (
(202,-200,o),
(185,-183,o),
(185,-160,cs),
(185,-137,o),
(202,-120,o),
(225,-120,cs),
(248,-120,o),
(265,-137,o),
(265,-160,cs),
(265,-183,o),
(248,-200,o),
(225,-200,cs)
);
},
{
closed = 1;
nodes = (
(96,10,o),
(60,47,o),
(60,102,cs),
(60,248,ls),
(60,303,o),
(97,340,o),
(142,340,cs),
(240,340,l),
(240,102,ls),
(240,47,o),
(204,10,o),
(150,10,cs)
);
},
{
closed = 1;
nodes = (
(140,590,l),
(240,590,l),
(240,360,l),
(140,360,l)
);
}
);
width = 490;
},
{
anchors = (
{
name = imatra;
pos = (420,600);
},
{
name = top;
pos = (245,600);
}
);
layerId = "831A5D7B-7350-4608-95DD-9715BE7B29F6";
shapes = (
{
closed = 1;
nodes = (
(348,-230,ls),
(412,-230,o),
(460,-182,o),
(460,-118,cs),
(460,4,ls),
(460,40.8,o),
(430.8,70,o),
(394,70,cs),
(380,70,l),
(380,330,l),
(435.2,330,ls),
(446,330,o),
(455.2,338.8,o),
(455.2,350,cs),
(455.2,361.2,o),
(446,370,o),
(435.2,370,cs),
(270,370,l),
(270,580,l),
(360,580,ls),
(371.2,580,o),
(380,588.8,o),
(380,600,cs),
(380,611.2,o),
(371.2,620,o),
(360,620,cs),
(130,620,ls),
(117.2,620,o),
(110,612.8,o),
(110,600,cs),
(110,364.8,l),
(64.8,350.4,o),
(30,305.2,o),
(30,248,cs),
(30,102,ls),
(30,32.4,o),
(80.8,-20,o),
(150,-20,cs),
(219.2,-20,o),
(270,32.4,o),
(270,102,cs),
(270,330,l),
(340,330,l),
(340,0,ls),
(340,-11.2,o),
(348.8,-20,o),
(360,-20,cs),
(371.2,-20,o),
(380,-11.2,o),
(380,0,cs),
(380,30,l),
(394,30,ls),
(411.6,30,o),
(420,21.6,o),
(420,4,cs),
(420,-118,ls),
(420,-162.8,o),
(392.8,-190,o),
(348,-190,cs),
(288,-190,l),
(292.4,-180.8,o),
(295.2,-170.8,o),
(295.2,-160,cs),
(295.2,-122,o),
(262.8,-90,o),
(225.2,-90,cs),
(187.2,-90,o),
(155.2,-122,o),
(155.2,-160,cs),
(155.2,-198,o),
(187.2,-230,o),
(225.2,-230,cs)
);
},
{
closed = 1;
nodes = (
(206.4,-190,o),
(195.2,-178.8,o),
(195.2,-160,cs),
(195.2,-141.2,o),
(206.4,-130,o),
(225.2,-130,cs),
(243.6,-130,o),
(255.2,-141.2,o),
(255.2,-160,cs),
(255.2,-178.8,o),
(243.6,-190,o),
(225.2,-190,cs)
);
},
{
closed = 1;
nodes = (
(100.4,20,o),
(70,51.2,o),
(70,102,cs),
(70,248,ls),
(70,298.8,o),
(101.2,330,o),
(142,330,cs),
(230,330,l),
(230,102,ls),
(230,51.2,o),
(199.6,20,o),
(150,20,cs)
);
},
{
closed = 1;
nodes = (
(150,580,l),
(230,580,l),
(230,370,l),
(150,370,l)
);
}
);
width = 490;
}
);
metricLeft = "ca-tamil";
metricRight = "ca-tamil";
},
{
glyphname = "nya_uMatra-tamil";
lastChange = "2023-04-08 14:10:14 +0000";
layers = (
{
anchors = (
{
name = imatra;
pos = (630,600);
},
{
name = top;
pos = (350,600);
}
);
layerId = m01;
shapes = (
{
closed = 0;
nodes = (
(650,450,l),
(650,-60,l),
(292,-60,ls),
(233,-60,o),
(190,-103,o),
(190,-162,cs),
(190,-199,ls),
(190,-258,o),
(233,-301,o),
(292,-301,cs),
(397,-301,ls),
(485,-301,o),
(550,-236,o),
(550,-148,cs),
(550,155,ls),
(550,292,o),
(550,345,o),
(451,345,cs),
(391,345,o),
(370,305,o),
(370,260,c)
);
},
{
closed = 0;
nodes = (
(370,50,l),
(370,600,l),
(254,600,ls),
(136,600,o),
(50,514,o),
(50,396,cs),
(50,175,l)
);
},
{
pos = (50,50);
ref = naduVattam;
},
{
closed = 0;
nodes = (
(370,600,l),
(490,600,l)
);
}
);
width = 700;
},
{
anchors = (
{
name = imatra;
pos = (630,600);
},
{
name = top;
pos = (350,600);
}
);
layerId = "DF2AA445-C2A4-4E12-8ADA-5B4903805A97";
shapes = (
{
closed = 1;
nodes = (
(397,-311,ls),
(490,-311,o),
(560,-241,o),
(560,-148,cs),
(560,-70,l),
(650,-70,ls),
(656,-70,o),
(660,-66,o),
(660,-60,cs),
(660,450,ls),
(660,456,o),
(656,460,o),
(650,460,cs),
(644,460,o),
(640,456,o),
(640,450,cs),
(640,-50,l),
(560,-50,l),
(560,155,ls),
(560,292,o),
(560,355,o),
(451,355,cs),
(417,355,o),
(394,343,o),
(380,325,c),
(380,590,l),
(490,590,ls),
(496,590,o),
(500,594,o),
(500,600,cs),
(500,606,o),
(496,610,o),
(490,610,cs),
(254,610,ls),
(131,610,o),
(40,519,o),
(40,396,cs),
(40,148,ls),
(40,87,o),
(82,40,o),
(140,40,cs),
(199,40,o),
(240,87,o),
(240,148,cs),
(240,192,ls),
(240,253,o),
(198,300,o),
(140,300,cs),
(106,300,o),
(78,284,o),
(60,258,c),
(60,396,ls),
(60,510,o),
(140,590,o),
(254,590,cs),
(360,590,l),
(360,50,ls),
(360,44,o),
(364,40,o),
(370,40,cs),
(376,40,o),
(380,44,o),
(380,50,cs),
(380,260,ls),
(380,302,o),
(397,335,o),
(451,335,cs),
(540,335,o),
(540,292,o),
(540,155,cs),
(540,-50,l),
(292,-50,ls),
(228,-50,o),
(180,-98,o),
(180,-162,cs),
(180,-199,ls),
(180,-263,o),
(228,-311,o),
(292,-311,cs)
);
},
{
closed = 1;
nodes = (
(237,-291,o),
(200,-254,o),
(200,-199,cs),
(200,-162,ls),
(200,-107,o),
(237,-70,o),
(292,-70,cs),
(540,-70,l),
(540,-148,ls),
(540,-232,o),
(481,-291,o),
(397,-291,cs),
(292,-291,ls)
);
},
{
closed = 1;
nodes = (
(92,60,o),
(60,96,o),
(60,148,cs),
(60,192,ls),
(60,244,o),
(92,280,o),
(140,280,cs),
(188,280,o),
(220,244,o),
(220,192,cs),
(220,148,ls),
(220,96,o),
(188,60,o),
(140,60,cs)
);
}
);
width = 700;
},
{
anchors = (
{
name = imatra;
pos = (630,600);
},
{
name = top;
pos = (350,600);
}
);
layerId = "831A5D7B-7350-4608-95DD-9715BE7B29F6";
shapes = (
{
closed = 1;
nodes = (
(397.2,-320.8,ls),
(496,-320.8,o),
(570,-246.8,o),
(570,-148,cs),
(570,-80,l),
(650,-80,ls),
(663.2,-80,o),
(670,-72.8,o),
(670,-60,cs),
(670,450,ls),
(670,461.2,o),
(661.2,470,o),
(650,470,cs),
(638.8,470,o),
(630,461.2,o),
(630,450,cs),
(630,-40,l),
(570,-40,l),
(570,155.2,ls),
(570,292,o),
(570,365.2,o),
(451.2,365.2,cs),
(425.2,365.2,o),
(405.2,358.8,o),
(390,348,c),
(390,580,l),
(490,580,ls),
(501.2,580,o),
(510,588.8,o),
(510,600,cs),
(510,611.2,o),
(501.2,620,o),
(490,620,cs),
(254,620,ls),
(125.2,620,o),
(30,524.8,o),
(30,396,cs),
(30,148,ls),
(30,81.6,o),
(76.4,30,o),
(140,30,cs),
(204.8,30,o),
(250,82,o),
(250,148,cs),
(250,192,ls),
(250,258.4,o),
(203.6,310,o),
(140,310,cs),
(112.8,310,o),
(88.8,300.4,o),
(70,284.4,c),
(70,396,ls),
(70,505.6,o),
(144.4,580,o),
(254,580,cs),
(350,580,l),
(350,50,ls),
(350,38.8,o),
(358.8,30,o),
(370,30,cs),
(381.2,30,o),
(390,38.8,o),
(390,50,cs),
(390,260,ls),
(390,300,o),
(403.2,325.2,o),
(451.2,325.2,cs),
(530.4,325.2,o),
(530,292.4,o),
(530,155.2,cs),
(530,-40,l),
(292,-40,ls),
(222,-40,o),
(170,-92,o),
(170,-162,cs),
(170,-198.8,ls),
(170,-268.8,o),
(222,-320.8,o),
(292,-320.8,cs)
);
},
{
closed = 1;
nodes = (
(241.2,-280.8,o),
(210,-249.6,o),
(210,-198.8,cs),
(210,-162,ls),
(210,-111.2,o),
(241.2,-80,o),
(292,-80,cs),
(530,-80,l),
(530,-148,ls),
(530,-227.6,o),
(476.8,-280.8,o),
(397.2,-280.8,cs),
(292,-280.8,ls)
);
},
{
closed = 1;
nodes = (
(96.8,70,o),
(70,99.6,o),
(70,148,cs),
(70,192,ls),
(70,240.4,o),
(96.8,270,o),
(140,270,cs),
(183.2,270,o),
(210,240.4,o),
(210,192,cs),
(210,148,ls),
(210,99.6,o),
(184,70,o),
(140,70,cs)
);
}
);
width = 700;
}
);
metricLeft = "ca-tamil";
metricRight = "ca-tamil";
},
{
glyphname = "tta_iMatra-tamil";
lastChange = "2023-04-08 14:10:14 +0000";
layers = (
{
anchors = (
{
name = imatra;
pos = (330,600);
},
{
name = top;
pos = (200,600);
}
);
layerId = m01;
shapes = (
{
closed = 0;
nodes = (
(50,600,l),
(50,0,l),
(350,0,l)
);
},
{
closed = 0;
nodes = (
(280,0,l),
(280,198,ls),
(280,246,o),
(246,280,o),
(200,280,cs),
(154,280,o),
(120,246,o),
(120,198,cs),
(120,82,ls),
(120,34,o),
(154,0,o),
(194,0,cs),
(280,0,l),
(280,-297,l)
);
}
);
width = 400;
},
{
anchors = (
{
name = imatra;
pos = (330,600);
},
{
name = top;
pos = (200,600);
}
);
layerId = "DF2AA445-C2A4-4E12-8ADA-5B4903805A97";
shapes = (
{
closed = 1;
nodes = (
(286,-307,o),
(290,-302,o),
(290,-297,cs),
(290,-10,l),
(350,-10,ls),
(356,-10,o),
(360,-6,o),
(360,0,cs),
(360,6,o),
(356,10,o),
(350,10,cs),
(290,10,l),
(290,198,ls),
(290,251,o),
(251,290,o),
(200,290,cs),
(149,290,o),
(110,251,o),
(110,198,cs),
(110,82,ls),
(110,52,o),
(122,26,o),
(141,10,c),
(60,10,l),
(60,600,ls),
(60,606,o),
(56,610,o),
(50,610,cs),
(44,610,o),
(40,606,o),
(40,600,cs),
(40,0,ls),
(40,-6,o),
(44,-10,o),
(50,-10,cs),
(270,-10,l),
(270,-297,ls),
(270,-302,o),
(274,-307,o),
(280,-307,cs)
);
},
{
closed = 1;
nodes = (
(158,10,o),
(130,38,o),
(130,82,cs),
(130,198,ls),
(130,242,o),
(158,270,o),
(200,270,cs),
(242,270,o),
(270,242,o),
(270,198,cs),
(270,10,l),
(194,10,ls)
);
}
);
width = 400;
},
{
anchors = (
{
name = imatra;
pos = (330,600);
},
{
name = top;
pos = (200,600);
}
);
layerId = "831A5D7B-7350-4608-95DD-9715BE7B29F6";
shapes = (
{
closed = 1;
nodes = (
(291.2,-316.8,o),
(300,-308,o),
(300,-296.8,cs),
(300,-20,l),
(350,-20,ls),
(361.2,-20,o),
(370,-11.2,o),
(370,0,cs),
(370,11.2,o),
(361.2,20,o),
(350,20,cs),
(300,20,l),
(300,198,ls),
(300,256.8,o),
(256.8,300,o),
(200,300,cs),
(143.2,300,o),
(100,256.8,o),
(100,198,cs),
(100,82,ls),
(100,58,o),
(107.2,36.8,o),
(118.8,20,c),
(70,20,l),
(70,600,ls),
(70,611.2,o),
(61.2,620,o),
(50,620,cs),
(38.8,620,o),
(30,611.2,o),
(30,600,cs),
(30,0,ls),
(30,-12.8,o),
(37.2,-20,o),
(50,-20,cs),
(260,-20,l),
(260,-296.8,ls),
(260,-308,o),
(268.8,-316.8,o),
(280,-316.8,cs)
);
},
{
closed = 1;
nodes = (
(162.4,20,o),
(140,42.4,o),
(140,82,cs),
(140,198,ls),
(140,237.6,o),
(162.4,260,o),
(200,260,cs),
(237.6,260,o),
(260,237.6,o),
(260,198,cs),
(260,20,l),
(194,20,ls)
);
}
);
width = 400;
}
);
metricLeft = "ca-tamil";
metricRight = "ca-tamil";
},
{
glyphname = "tta_iiMatra-tamil";
lastChange = "2023-04-08 14:10:14 +0000";
layers = (
{
anchors = (
{
name = imatra;
pos = (330,600);
},
{
name = top;
pos = (200,600);
}
);
layerId = m01;
shapes = (
{
closed = 0;
nodes = (
(50,600,l),
(50,0,l),
(350,0,l)
);
},
{
pos = (151,200);
ref = chinnaVattam;
},
{
closed = 0;
nodes = (
(240,0,l),
(188,0,o),
(151,43,o),
(151,102,cs),
(151,298,l)
);
}
);
width = 400;
},
{
anchors = (
{
name = imatra;
pos = (330,600);
},
{
name = top;
pos = (200,600);
}
);
layerId = "DF2AA445-C2A4-4E12-8ADA-5B4903805A97";
shapes = (
{
closed = 1;
nodes = (
(350,-10,ls),
(356,-10,o),
(360,-6,o),
(360,0,cs),
(360,6,o),
(356,10,o),
(350,10,cs),
(240,10,ls),
(192,10,o),
(161,47,o),
(161,102,cs),
(161,222,l),
(176,202,o),
(199,190,o),
(226,190,cs),
(276,190,o),
(311,230,o),
(311,282,cs),
(311,318,ls),
(311,370,o),
(275,410,o),
(226,410,cs),
(177,410,o),
(141,370,o),
(141,318,cs),
(141,102,ls),
(141,63,o),
(156,30,o),
(182,10,c),
(60,10,l),
(60,600,ls),
(60,606,o),
(56,610,o),
(50,610,cs),
(44,610,o),
(40,606,o),
(40,600,cs),
(40,0,ls),
(40,-6,o),
(44,-10,o),
(50,-10,cs)
);
},
{
closed = 1;
nodes = (
(188,210,o),
(161,239,o),
(161,282,cs),
(161,318,ls),
(161,361,o),
(188,390,o),
(226,390,cs),
(264,390,o),
(291,361,o),
(291,318,cs),
(291,282,ls),
(291,239,o),
(266,210,o),
(226,210,cs)
);
}
);
width = 400;
},
{
anchors = (
{
name = imatra;
pos = (330,600);
},
{
name = top;
pos = (200,600);
}
);
layerId = "831A5D7B-7350-4608-95DD-9715BE7B29F6";
shapes = (
{
closed = 1;
nodes = (
(350,-20,ls),
(361.2,-20,o),
(370,-11.2,o),
(370,0,cs),
(370,11.2,o),
(361.2,20,o),
(350,20,cs),
(240,20,ls),
(197.2,20,o),
(171.2,50.4,o),
(171.2,102,cs),
(171.2,198,l),
(186.4,186.4,o),
(205.2,180,o),
(226,180,cs),
(281.6,180,o),
(321.2,224.8,o),
(321.2,282,cs),
(321.2,318,ls),
(321.2,375.2,o),
(280.4,420,o),
(226,420,cs),
(171.6,420,o),
(131.2,375.2,o),
(131.2,318,cs),
(131.2,102,ls),
(131.2,70,o),
(140.8,41.6,o),
(157.6,20,c),
(70,20,l),
(70,600,ls),
(70,611.2,o),
(61.2,620,o),
(50,620,cs),
(38.8,620,o),
(30,611.2,o),
(30,600,cs),
(30,0,ls),
(30,-12.8,o),
(37.2,-20,o),
(50,-20,cs)
);
},
{
closed = 1;
nodes = (
(192,220,o),
(171.2,242.8,o),
(171.2,282,cs),
(171.2,318,ls),
(171.2,357.2,o),
(192,380,o),
(226,380,cs),
(260,380,o),
(281.2,357.2,o),
(281.2,318,cs),
(281.2,282,ls),
(281.2,242.4,o),
(260.8,220,o),
(226,220,cs)
);
}
);
width = 400;
}
);
metricLeft = "ca-tamil";
metricRight = "ca-tamil";
},
{
glyphname = "tta_uMatra-tamil";
lastChange = "2023-04-08 14:10:14 +0000";
layers = (
{
anchors = (
{
name = imatra;
pos = (390,600);
},
{
name = top;
pos = (230,600);
}
);
layerId = m01;
shapes = (
{
closed = 0;
nodes = (
(410,550,l),
(410,647,ls),
(410,735,o),
(345,800,o),
(257,800,cs),
(203,800,ls),
(115,800,o),
(50,735,o),
(50,647,cs),
(50,153,ls),
(50,65,o),
(115,0,o),
(203,0,cs),
(257,0,ls),
(345,0,o),
(410,65,o),
(410,153,cs),
(410,304,ls),
(410,351,o),
(375,386,o),
(328,386,cs),
(312,386,ls),
(265,386,o),
(230,351,o),
(230,304,cs),
(230,600,l)
);
}
);
width = 460;
},
{
anchors = (
{
name = imatra;
pos = (390,600);
},
{
name = top;
pos = (230,600);
}
);
layerId = "DF2AA445-C2A4-4E12-8ADA-5B4903805A97";
shapes = (
{
closed = 1;
nodes = (
(257,-10,ls),
(350,-10,o),
(420,60,o),
(420,153,cs),
(420,304,ls),
(420,356,o),
(380,396,o),
(328,396,cs),
(312,396,ls),
(282,396,o),
(257,383,o),
(240,362,c),
(240,600,ls),
(240,606,o),
(236,610,o),
(230,610,cs),
(224,610,o),
(220,606,o),
(220,600,cs),
(220,216,ls),
(220,210,o),
(224,206,o),
(230,206,cs),
(236,206,o),
(240,210,o),
(240,216,cs),
(240,304,ls),
(240,347,o),
(269,376,o),
(312,376,cs),
(328,376,ls),
(371,376,o),
(400,347,o),
(400,304,cs),
(400,153,ls),
(400,69,o),
(341,10,o),
(257,10,cs),
(203,10,ls),
(119,10,o),
(60,69,o),
(60,153,cs),
(60,647,ls),
(60,731,o),
(119,790,o),
(203,790,cs),
(257,790,ls),
(341,790,o),
(400,731,o),
(400,647,cs),
(400,550,ls),
(400,544,o),
(404,540,o),
(410,540,cs),
(416,540,o),
(420,544,o),
(420,550,cs),
(420,647,ls),
(420,740,o),
(350,810,o),
(257,810,cs),
(203,810,ls),
(110,810,o),
(40,740,o),
(40,647,cs),
(40,153,ls),
(40,60,o),
(110,-10,o),
(203,-10,cs)
);
}
);
width = 460;
},
{
anchors = (
{
name = imatra;
pos = (390,600);
},
{
name = top;
pos = (230,600);
}
);
layerId = "831A5D7B-7350-4608-95DD-9715BE7B29F6";
shapes = (
{
closed = 1;
nodes = (
(257.2,-20,ls),
(356,-20,o),
(430,54,o),
(430,153.2,cs),
(430,304,ls),
(430,362,o),
(386,406,o),
(328,406,cs),
(312,406,ls),
(288.4,406,o),
(266.8,398.8,o),
(250,386,c),
(250,600,ls),
(250,611.2,o),
(241.2,620,o),
(230,620,cs),
(218.8,620,o),
(210,611.2,o),
(210,600,cs),
(210,324,ls),
(210,311.2,o),
(217.2,304,o),
(230,304,cs),
(231.2,304,ls),
(243.6,304,o),
(249.2,310.4,o),
(252,322.8,cs),
(258.4,350,o),
(280,366,o),
(312,366,cs),
(328,366,ls),
(366.8,366,o),
(390,342.8,o),
(390,304,cs),
(390,153.2,ls),
(390,73.2,o),
(336.8,20,o),
(257.2,20,cs),
(203.2,20,ls),
(123.2,20,o),
(70,73.2,o),
(70,153.2,cs),
(70,647.2,ls),
(70,726.8,o),
(123.2,780,o),
(203.2,780,cs),
(257.2,780,ls),
(336.8,780,o),
(390,726.8,o),
(390,647.2,cs),
(390,550,ls),
(390,538.8,o),
(398.8,530,o),
(410,530,cs),
(421.2,530,o),
(430,538.8,o),
(430,550,cs),
(430,647.2,ls),
(430,746,o),
(356,820,o),
(257.2,820,cs),
(203.2,820,ls),
(104,820,o),
(30,746,o),
(30,647.2,cs),
(30,153.2,ls),
(30,54,o),
(104,-20,o),
(203.2,-20,cs)
);
}
);
width = 460;
}
);
metricLeft = "ca-tamil";
metricRight = "ca-tamil";
},
{
glyphname = "tta_uuMatra-tamil";
lastChange = "2023-04-08 14:10:15 +0000";
layers = (
{
anchors = (
{
name = imatra;
pos = (390,600);
},
{
name = top;
pos = (230,600);
}
);
layerId = m01;
shapes = (
{
ref = "tta_uMatra-tamil";
},
{
pos = (460,0);
ref = kokkiVattam;
}
);
width = 560;
},
{
anchors = (
{
name = imatra;
pos = (390,600);
},
{
name = top;
pos = (230,600);
}
);
layerId = "DF2AA445-C2A4-4E12-8ADA-5B4903805A97";
shapes = (
{
closed = 1;
nodes = (
(257,-10,ls),
(350,-10,o),
(420,60,o),
(420,153,cs),
(420,304,ls),
(420,356,o),
(380,396,o),
(328,396,cs),
(312,396,ls),
(282,396,o),
(257,383,o),
(240,362,c),
(240,600,ls),
(240,606,o),
(236,610,o),
(230,610,cs),
(224,610,o),
(220,606,o),
(220,600,cs),
(220,216,ls),
(220,210,o),
(224,206,o),
(230,206,cs),
(236,206,o),
(240,210,o),
(240,216,cs),
(240,304,ls),
(240,347,o),
(269,376,o),
(312,376,cs),
(328,376,ls),
(371,376,o),
(400,347,o),
(400,304,cs),
(400,153,ls),
(400,69,o),
(341,10,o),
(257,10,cs),
(203,10,ls),
(119,10,o),
(60,69,o),
(60,153,cs),
(60,647,ls),
(60,731,o),
(119,790,o),
(203,790,cs),
(257,790,ls),
(341,790,o),
(400,731,o),
(400,647,cs),
(400,594,l),
(389,604,o),
(375,610,o),
(360,610,cs),
(328,610,o),
(300,582,o),
(300,550,cs),
(300,518,o),
(328,490,o),
(360,490,cs),
(392,490,o),
(420,518,o),
(420,550,cs),
(420,647,ls),
(420,740,o),
(350,810,o),
(257,810,cs),
(203,810,ls),
(110,810,o),
(40,740,o),
(40,647,cs),
(40,153,ls),
(40,60,o),
(110,-10,o),
(203,-10,cs)
);
},
{
closed = 1;
nodes = (
(337,510,o),
(320,527,o),
(320,550,cs),
(320,573,o),
(337,590,o),
(360,590,cs),
(383,590,o),
(400,573,o),
(400,550,cs),
(400,527,o),
(383,510,o),
(360,510,cs)
);
}
);
width = 460;
},
{
anchors = (
{
name = imatra;
pos = (390,600);
},
{
name = top;
pos = (230,600);
}
);
layerId = "831A5D7B-7350-4608-95DD-9715BE7B29F6";
shapes = (
{
closed = 1;
nodes = (
(257.2,-20,ls),
(356,-20,o),
(430,54,o),
(430,153.2,cs),
(430,304,ls),
(430,362,o),
(386,406,o),
(328,406,cs),
(312,406,ls),
(288.4,406,o),
(266.8,398.8,o),
(250,386,c),
(250,600,ls),
(250,611.2,o),
(241.2,620,o),
(230,620,cs),
(218.8,620,o),
(210,611.2,o),
(210,600,cs),
(210,324,ls),
(210,311.2,o),
(217.2,304,o),
(230,304,cs),
(231.2,304,ls),
(243.6,304,o),
(249.2,310.4,o),
(252,322.8,cs),
(258.4,350,o),
(280,366,o),
(312,366,cs),
(328,366,ls),
(366.8,366,o),
(390,342.8,o),
(390,304,cs),
(390,153.2,ls),
(390,73.2,o),
(336.8,20,o),
(257.2,20,cs),
(203.2,20,ls),
(123.2,20,o),
(70,73.2,o),
(70,153.2,cs),
(70,647.2,ls),
(70,726.8,o),
(123.2,780,o),
(203.2,780,cs),
(257.2,780,ls),
(336.8,780,o),
(390,726.8,o),
(390,647.2,cs),
(390,550,ls),
(390,538.8,o),
(398.8,530,o),
(410,530,cs),
(421.2,530,o),
(430,538.8,o),
(430,550,cs),
(430,647.2,ls),
(430,746,o),
(356,820,o),
(257.2,820,cs),
(203.2,820,ls),
(104,820,o),
(30,746,o),
(30,647.2,cs),
(30,153.2,ls),
(30,54,o),
(104,-20,o),
(203.2,-20,cs)
);
},
{
closed = 1;
nodes = (
(548,-20,o),
(580,12,o),
(580,50,cs),
(580,88,o),
(548,120,o),
(510,120,cs),
(472,120,o),
(440,88,o),
(440,50,cs),
(440,12,o),
(472,-20,o),
(510,-20,cs)
);
},
{
closed = 1;
nodes = (
(491.2,20,o),
(480,31.2,o),
(480,50,cs),
(480,68.8,o),
(491.2,80,o),
(510,80,cs),
(528.8,80,o),
(540,68.8,o),
(540,50,cs),
(540,31.2,o),
(528.8,20,o),
(510,20,cs)
);
}
);
width = 610;
}
);
metricLeft = "ca-tamil";
metricRight = "ca-tamil";
},
{
glyphname = "nna_uMatra-tamil";
lastChange = "2023-04-08 14:10:14 +0000";
layers = (
{
anchors = (
{
name = imatra;
pos = (1017,600);
},
{
name = top;
pos = (544,600);
}
);
layerId = m01;
shapes = (
{
pos = (95,0);
ref = chinnaVattam;
},
{
closed = 0;
nodes = (
(172,0,l),
(102,0,o),
(50,51,o),
(50,122,cs),
(50,416,ls),
(50,522,o),
(128,600,o),
(234,600,cs),
(631,600,l)
);
},
{
closed = 1;
nodes = (
(477,511,ls),
(477,562,o),
(440,600,o),
(391,600,cs),
(340,600,o),
(302,562,o),
(302,511,cs),
(302,89,ls),
(302,38,o),
(339,0,o),
(389,0,cs),
(439,0,o),
(477,38,o),
(477,89,cs)
);
},
{
closed = 0;
nodes = (
(631,600,l),
(580,600,o),
(542,562,o),
(542,511,cs),
(542,89,ls),
(542,38,o),
(579,0,o),
(629,0,cs),
(679,0,o),
(717,38,o),
(717,89,cs),
(717,511,ls),
(717,562,o),
(680,600,o),
(631,600,cs),
(755,600,ls),
(826,600,o),
(877,549,o),
(877,478,cs),
(877,-148,ls),
(877,-236,o),
(812,-301,o),
(724,-301,cs),
(436,-301,ls),
(377,-301,o),
(334,-258,o),
(334,-199,cs),
(334,-162,ls),
(334,-103,o),
(377,-60,o),
(436,-60,cs),
(1037,-60,l),
(1037,450,l)
);
}
);
width = 1087;
},
{
anchors = (
{
name = imatra;
pos = (1017,600);
},
{
name = top;
pos = (544,600);
}
);
layerId = "DF2AA445-C2A4-4E12-8ADA-5B4903805A97";
shapes = (
{
closed = 1;
nodes = (
(724,-311,ls),
(817,-311,o),
(887,-241,o),
(887,-148,cs),
(887,-70,l),
(1037,-70,ls),
(1044,-70,o),
(1047,-66,o),
(1047,-60,cs),
(1047,450,ls),
(1047,456,o),
(1042,460,o),
(1037,460,cs),
(1032,460,o),
(1027,456,o),
(1027,450,cs),
(1027,-50,l),
(887,-50,l),
(887,478,ls),
(887,554,o),
(831,610,o),
(755,610,cs),
(234,610,ls),
(123,610,o),
(40,527,o),
(40,416,cs),
(40,122,ls),
(40,48,o),
(92,-6,o),
(164,-10,cs),
(170,-10,l),
(172,-10,ls),
(221,-9,o),
(255,31,o),
(255,82,cs),
(255,118,ls),
(255,170,o),
(219,210,o),
(170,210,cs),
(121,210,o),
(85,170,o),
(85,118,cs),
(85,82,ls),
(85,66,o),
(88,50,o),
(95,38,c),
(73,57,o),
(60,86,o),
(60,122,cs),
(60,416,ls),
(60,518,o),
(132,590,o),
(234,590,cs),
(330,590,l),
(306,572,o),
(292,544,o),
(292,511,cs),
(292,89,ls),
(292,33,o),
(334,-10,o),
(389,-10,cs),
(444,-10,o),
(487,33,o),
(487,89,cs),
(487,511,ls),
(487,544,o),
(473,572,o),
(450,590,c),
(570,590,l),
(546,572,o),
(532,544,o),
(532,511,cs),
(532,89,ls),
(532,33,o),
(574,-10,o),
(629,-10,cs),
(684,-10,o),
(727,33,o),
(727,89,cs),
(727,511,ls),
(727,544,o),
(713,572,o),
(690,590,c),
(755,590,ls),
(822,590,o),
(867,545,o),
(867,478,cs),
(867,-50,l),
(436,-50,ls),
(372,-50,o),
(324,-98,o),
(324,-162,cs),
(324,-199,ls),
(324,-263,o),
(372,-311,o),
(436,-311,cs)
);
},
{
closed = 1;
nodes = (
(129,13,o),
(105,41,o),
(105,82,cs),
(105,118,ls),
(105,161,o),
(132,190,o),
(170,190,cs),
(208,190,o),
(235,161,o),
(235,118,cs),
(235,82,ls),
(235,39,o),
(210,10,o),
(171,10,cs),
(164,10,ls)
);
},
{
closed = 1;
nodes = (
(381,-291,o),
(344,-254,o),
(344,-199,cs),
(344,-162,ls),
(344,-107,o),
(381,-70,o),
(436,-70,cs),
(867,-70,l),
(867,-148,ls),
(867,-232,o),
(808,-291,o),
(724,-291,cs),
(436,-291,ls)
);
},
{
closed = 1;
nodes = (
(343,10,o),
(312,42,o),
(312,89,cs),
(312,511,ls),
(312,558,o),
(344,590,o),
(391,590,cs),
(436,590,o),
(467,558,o),
(467,511,cs),
(467,89,ls),
(467,42,o),
(435,10,o),
(389,10,cs)
);
},
{
closed = 1;
nodes = (
(583,10,o),
(552,42,o),
(552,89,cs),
(552,511,ls),
(552,558,o),
(584,590,o),
(631,590,cs),
(676,590,o),
(707,558,o),
(707,511,cs),
(707,89,ls),
(707,42,o),
(675,10,o),
(629,10,cs)
);
}
);
width = 1087;
},
{
anchors = (
{
name = imatra;
pos = (1017,600);
},
{
name = top;
pos = (544,600);
}
);
layerId = "831A5D7B-7350-4608-95DD-9715BE7B29F6";
shapes = (
{
closed = 1;
nodes = (
(724,-320.8,ls),
(822.8,-320.8,o),
(897.2,-246.8,o),
(897.2,-148,cs),
(897.2,-80,l),
(1037.2,-80,ls),
(1050.4,-80,o),
(1057.2,-72.8,o),
(1057.2,-60,cs),
(1057.2,450,ls),
(1057.2,461.2,o),
(1048,470,o),
(1037.2,470,cs),
(1026,470,o),
(1017.2,461.2,o),
(1017.2,450,cs),
(1017.2,-40,l),
(897.2,-40,l),
(897.2,478,ls),
(897.2,560,o),
(836.8,620,o),
(755.2,620,cs),
(234,620,ls),
(117.2,620,o),
(30,532.8,o),
(30,416,cs),
(30,122,ls),
(30,43.2,o),
(86.8,-15.6,o),
(162.8,-19.6,cs),
(165.2,-20,o),
(167.6,-20,o),
(170,-20,cs),
(172,-20,ls),
(226.4,-18.8,o),
(265.2,25.6,o),
(265.2,82,cs),
(265.2,118,ls),
(265.2,175.2,o),
(224.4,220,o),
(170,220,cs),
(115.6,220,o),
(75.2,175.2,o),
(75.2,118,cs),
(75.2,86.4,l),
(71.6,97.2,o),
(70,109.2,o),
(70,122,cs),
(70,416,ls),
(70,513.6,o),
(136.4,580,o),
(234,580,cs),
(305.6,580,l),
(290.8,561.6,o),
(282,537.6,o),
(282,511.2,cs),
(282,89.2,ls),
(282,27.2,o),
(328,-20,o),
(389.2,-20,cs),
(450,-20,o),
(497.2,27.2,o),
(497.2,89.2,cs),
(497.2,511.2,ls),
(497.2,537.6,o),
(488.4,561.6,o),
(474,580,c),
(545.6,580,l),
(530.8,561.6,o),
(522,537.6,o),
(522,511.2,cs),
(522,89.2,ls),
(522,27.2,o),
(568,-20,o),
(629.2,-20,cs),
(690,-20,o),
(737.2,27.2,o),
(737.2,89.2,cs),
(737.2,511.2,ls),
(737.2,537.6,o),
(728.4,561.6,o),
(714,580,c),
(755.2,580,ls),
(817.6,580,o),
(857.2,540.8,o),
(857.2,478,cs),
(857.2,-40,l),
(436,-40,ls),
(366,-40,o),
(314,-92,o),
(314,-162,cs),
(314,-198.8,ls),
(314,-268.8,o),
(366,-320.8,o),
(436,-320.8,cs)
);
},
{
closed = 1;
nodes = (
(133.6,22.4,o),
(115.2,44.8,o),
(115.2,82,cs),
(115.2,118,ls),
(115.2,157.2,o),
(136,180,o),
(170,180,cs),
(204,180,o),
(225.2,157.2,o),
(225.2,118,cs),
(225.2,82,ls),
(225.2,42.8,o),
(205.2,20.4,o),
(170.8,20,cs),
(164.8,20,ls)
);
},
{
closed = 1;
nodes = (
(385.2,-280.8,o),
(354,-249.6,o),
(354,-198.8,cs),
(354,-162,ls),
(354,-111.2,o),
(385.2,-80,o),
(436,-80,cs),
(857.2,-80,l),
(857.2,-148,ls),
(857.2,-227.6,o),
(803.6,-280.8,o),
(724,-280.8,cs),
(436,-280.8,ls)
);
},
{
closed = 1;
nodes = (
(347.6,20,o),
(322,46,o),
(322,89.2,cs),
(322,511.2,ls),
(322,553.6,o),
(348.4,580,o),
(391.2,580,cs),
(431.6,580,o),
(457.2,554,o),
(457.2,511.2,cs),
(457.2,89.2,ls),
(457.2,46.4,o),
(430.8,20,o),
(389.2,20,cs)
);
},
{
closed = 1;
nodes = (
(587.6,20,o),
(562,46,o),
(562,89.2,cs),
(562,511.2,ls),
(562,553.6,o),
(588.4,580,o),
(631.2,580,cs),
(671.6,580,o),
(697.2,554,o),
(697.2,511.2,cs),
(697.2,89.2,ls),
(697.2,46.4,o),
(670.8,20,o),
(629.2,20,cs)
);
}
);
width = 1087;
}
);
metricLeft = "ca-tamil";
metricRight = "ca-tamil";
},
{
glyphname = "ta_uMatra-tamil";
lastChange = "2023-04-08 14:10:14 +0000";
layers = (
{
anchors = (
{
name = imatra;
pos = (489,600);
},
{
name = top;
pos = (280,600);
}
);
layerId = m01;
shapes = (
{
pos = (-50,0);
ref = chaMelPaadi;
},
{
pos = (50,0);
ref = chaKeezhPaadi;
},
{
closed = 0;
nodes = (
(250,350,l),
(270,350,ls),
(367,350,o),
(409,280,o),
(409,145,cs),
(409,-148,ls),
(409,-236,o),
(344,-301,o),
(256,-301,cs),
(165,-301,ls),
(106,-301,o),
(63,-258,o),
(63,-199,cs),
(63,-162,ls),
(63,-103,o),
(106,-60,o),
(165,-60,cs),
(509,-60,l),
(509,450,l)
);
}
);
width = 559;
},
{
anchors = (
{
name = imatra;
pos = (489,600);
},
{
name = top;
pos = (280,600);
}
);
layerId = "DF2AA445-C2A4-4E12-8ADA-5B4903805A97";
shapes = (
{
closed = 1;
nodes = (
(256,-311,ls),
(349,-311,o),
(419,-241,o),
(419,-148,cs),
(419,-70,l),
(509,-70,ls),
(516,-70,o),
(519,-66,o),
(519,-60,cs),
(519,450,ls),
(519,456,o),
(514,460,o),
(509,460,cs),
(504,460,o),
(499,456,o),
(499,450,cs),
(499,-50,l),
(419,-50,l),
(419,145,ls),
(419,284,o),
(374,360,o),
(270,360,cs),
(260,360,l),
(260,590,l),
(360,590,ls),
(366,590,o),
(370,594,o),
(370,600,cs),
(370,606,o),
(366,610,o),
(360,610,cs),
(130,610,ls),
(124,610,o),
(120,606,o),
(120,600,cs),
(120,357,l),
(76,346,o),
(40,304,o),
(40,248,cs),
(40,102,ls),
(40,38,o),
(86,-10,o),
(150,-10,cs),
(214,-10,o),
(260,38,o),
(260,102,cs),
(260,340,l),
(270,340,ls),
(361,340,o),
(399,277,o),
(399,145,cs),
(399,-50,l),
(165,-50,ls),
(101,-50,o),
(53,-98,o),
(53,-162,cs),
(53,-199,ls),
(53,-263,o),
(101,-311,o),
(165,-311,cs)
);
},
{
closed = 1;
nodes = (
(110,-291,o),
(73,-254,o),
(73,-199,cs),
(73,-162,ls),
(73,-107,o),
(110,-70,o),
(165,-70,cs),
(399,-70,l),
(399,-148,ls),
(399,-232,o),
(340,-291,o),
(256,-291,cs),
(165,-291,ls)
);
},
{
closed = 1;
nodes = (
(96,10,o),
(60,47,o),
(60,102,cs),
(60,248,ls),
(60,303,o),
(97,340,o),
(142,340,cs),
(240,340,l),
(240,102,ls),
(240,47,o),
(204,10,o),
(150,10,cs)
);
},
{
closed = 1;
nodes = (
(140,590,l),
(240,590,l),
(240,360,l),
(140,360,l)
);
}
);
width = 559;
},
{
anchors = (
{
name = imatra;
pos = (489,600);
},
{
name = top;
pos = (280,600);
}
);
layerId = "831A5D7B-7350-4608-95DD-9715BE7B29F6";
shapes = (
{
closed = 1;
nodes = (
(256,-320.8,ls),
(354.8,-320.8,o),
(429.2,-246.8,o),
(429.2,-148,cs),
(429.2,-80,l),
(509.2,-80,ls),
(522.4,-80,o),
(529.2,-72.8,o),
(529.2,-60,cs),
(529.2,450,ls),
(529.2,461.2,o),
(520,470,o),
(509.2,470,cs),
(498,470,o),
(489.2,461.2,o),
(489.2,450,cs),
(489.2,-40,l),
(429.2,-40,l),
(429.2,145.2,ls),
(429.2,288,o),
(380.8,370,o),
(270,370,c),
(270,580,l),
(360,580,ls),
(371.2,580,o),
(380,588.8,o),
(380,600,cs),
(380,611.2,o),
(371.2,620,o),
(360,620,cs),
(130,620,ls),
(117.2,620,o),
(110,612.8,o),
(110,600,cs),
(110,364.8,l),
(64.8,350.4,o),
(30,305.2,o),
(30,248,cs),
(30,102,ls),
(30,32.4,o),
(80.8,-20,o),
(150,-20,cs),
(219.2,-20,o),
(270,32.4,o),
(270,102,cs),
(270,330,l),
(355.6,330,o),
(389.2,274.4,o),
(389.2,145.2,cs),
(389.2,-40,l),
(165.2,-40,ls),
(95.2,-40,o),
(43.2,-92,o),
(43.2,-162,cs),
(43.2,-198.8,ls),
(43.2,-268.8,o),
(95.2,-320.8,o),
(165.2,-320.8,cs)
);
},
{
closed = 1;
nodes = (
(114.4,-280.8,o),
(83.2,-249.6,o),
(83.2,-198.8,cs),
(83.2,-162,ls),
(83.2,-111.2,o),
(114.4,-80,o),
(165.2,-80,cs),
(389.2,-80,l),
(389.2,-148,ls),
(389.2,-227.6,o),
(335.6,-280.8,o),
(256,-280.8,cs),
(165.2,-280.8,ls)
);
},
{
closed = 1;
nodes = (
(100.4,20,o),
(70,51.2,o),
(70,102,cs),
(70,248,ls),
(70,298.8,o),
(101.2,330,o),
(142,330,cs),
(230,330,l),
(230,102,ls),
(230,51.2,o),
(199.6,20,o),
(150,20,cs)
);
},
{
closed = 1;
nodes = (
(150,580,l),
(230,580,l),
(230,370,l),
(150,370,l)
);
}
);
width = 559;
}
);
metricLeft = "ca-tamil";
metricRight = "ca-tamil";
},
{
glyphname = "na_uMatra-tamil";
lastChange = "2023-04-08 14:10:14 +0000";
layers = (
{
anchors = (
{
name = imatra;
pos = (490,600);
},
{
name = top;
pos = (280,600);
}
);
layerId = m01;
shapes = (
{
closed = 0;
nodes = (
(230,150,l),
(230,600,l),
(50,600,l),
(50,80,l)
);
},
{
closed = 0;
nodes = (
(230,600,l),
(360,600,l)
);
},
{
closed = 0;
nodes = (
(510,450,l),
(510,-60,l),
(152,-60,ls),
(93,-60,o),
(50,-103,o),
(50,-162,cs),
(50,-199,ls),
(50,-258,o),
(93,-301,o),
(152,-301,cs),
(257,-301,ls),
(345,-301,o),
(410,-236,o),
(410,-148,cs),
(410,155,ls),
(410,292,o),
(410,345,o),
(311,345,cs),
(251,345,o),
(230,305,o),
(230,260,c)
);
}
);
width = 560;
},
{
anchors = (
{
name = imatra;
pos = (490,600);
},
{
name = top;
pos = (280,600);
}
);
layerId = "DF2AA445-C2A4-4E12-8ADA-5B4903805A97";
shapes = (
{
closed = 1;
nodes = (
(257,-311,ls),
(350,-311,o),
(420,-241,o),
(420,-148,cs),
(420,-70,l),
(510,-70,ls),
(516,-70,o),
(520,-66,o),
(520,-60,cs),
(520,450,ls),
(520,456,o),
(516,460,o),
(510,460,cs),
(504,460,o),
(500,456,o),
(500,450,cs),
(500,-50,l),
(420,-50,l),
(420,155,ls),
(420,292,o),
(420,355,o),
(311,355,cs),
(277,355,o),
(254,343,o),
(240,325,c),
(240,590,l),
(360,590,ls),
(366,590,o),
(370,594,o),
(370,600,cs),
(370,606,o),
(366,610,o),
(360,610,cs),
(50,610,ls),
(44,610,o),
(40,606,o),
(40,600,cs),
(40,80,ls),
(40,74,o),
(44,70,o),
(50,70,cs),
(56,70,o),
(60,74,o),
(60,80,cs),
(60,590,l),
(220,590,l),
(220,150,ls),
(220,144,o),
(224,140,o),
(230,140,cs),
(236,140,o),
(240,144,o),
(240,150,cs),
(240,260,ls),
(240,302,o),
(257,335,o),
(311,335,cs),
(400,335,o),
(400,292,o),
(400,155,cs),
(400,-50,l),
(152,-50,ls),
(88,-50,o),
(40,-98,o),
(40,-162,cs),
(40,-199,ls),
(40,-263,o),
(88,-311,o),
(152,-311,cs)
);
},
{
closed = 1;
nodes = (
(97,-291,o),
(60,-254,o),
(60,-199,cs),
(60,-162,ls),
(60,-107,o),
(97,-70,o),
(152,-70,cs),
(400,-70,l),
(400,-148,ls),
(400,-232,o),
(341,-291,o),
(257,-291,cs),
(152,-291,ls)
);
}
);
width = 560;
},
{
anchors = (
{
name = imatra;
pos = (490,600);
},
{
name = top;
pos = (280,600);
}
);
layerId = "831A5D7B-7350-4608-95DD-9715BE7B29F6";
shapes = (
{
closed = 1;
nodes = (
(257.2,-320.8,ls),
(356,-320.8,o),
(430,-246.8,o),
(430,-148,cs),
(430,-80,l),
(510,-80,ls),
(523.2,-80,o),
(530,-72.8,o),
(530,-60,cs),
(530,450,ls),
(530,461.2,o),
(521.2,470,o),
(510,470,cs),
(498.8,470,o),
(490,461.2,o),
(490,450,cs),
(490,-40,l),
(430,-40,l),
(430,155.2,ls),
(430,292,o),
(430,365.2,o),
(311.2,365.2,cs),
(285.2,365.2,o),
(265.2,358.8,o),
(250,348,c),
(250,580,l),
(360,580,ls),
(371.2,580,o),
(380,588.8,o),
(380,600,cs),
(380,611.2,o),
(371.2,620,o),
(360,620,cs),
(50,620,ls),
(37.2,620,o),
(30,613.2,o),
(30,600,cs),
(30,80,ls),
(30,68.8,o),
(38.8,60,o),
(50,60,cs),
(61.2,60,o),
(70,68.8,o),
(70,80,cs),
(70,580,l),
(210,580,l),
(210,150,ls),
(210,138.8,o),
(218.8,130,o),
(230,130,cs),
(241.2,130,o),
(250,138.8,o),
(250,150,cs),
(250,260,ls),
(250,300,o),
(263.2,325.2,o),
(311.2,325.2,cs),
(390.4,325.2,o),
(390,292.4,o),
(390,155.2,cs),
(390,-40,l),
(152,-40,ls),
(82,-40,o),
(30,-92,o),
(30,-162,cs),
(30,-198.8,ls),
(30,-268.8,o),
(82,-320.8,o),
(152,-320.8,cs)
);
},
{
closed = 1;
nodes = (
(101.2,-280.8,o),
(70,-249.6,o),
(70,-198.8,cs),
(70,-162,ls),
(70,-111.2,o),
(101.2,-80,o),
(152,-80,cs),
(390,-80,l),
(390,-148,ls),
(390,-227.6,o),
(336.8,-280.8,o),
(257.2,-280.8,cs),
(152,-280.8,ls)
);
}
);
width = 560;
}
);
metricLeft = "ca-tamil";
metricRight = "ca-tamil";
},
{
glyphname = "nnna_uMatra-tamil";
lastChange = "2023-04-08 14:10:14 +0000";
layers = (
{
anchors = (
{
name = imatra;
pos = (777,600);
},
{
name = top;
pos = (424,600);
}
);
layerId = m01;
shapes = (
{
pos = (95,0);
ref = chinnaVattam;
},
{
closed = 0;
nodes = (
(172,0,l),
(102,0,o),
(50,51,o),
(50,122,cs),
(50,416,ls),
(50,522,o),
(128,600,o),
(234,600,cs),
(391,600,l)
);
},
{
closed = 0;
nodes = (
(391,600,l),
(340,600,o),
(302,562,o),
(302,511,cs),
(302,89,ls),
(302,38,o),
(339,0,o),
(389,0,cs),
(439,0,o),
(477,38,o),
(477,89,cs),
(477,511,ls),
(477,562,o),
(440,600,o),
(391,600,cs),
(515,600,ls),
(586,600,o),
(637,549,o),
(637,478,cs),
(637,-148,ls),
(637,-236,o),
(572,-301,o),
(484,-301,cs),
(196,-301,ls),
(137,-301,o),
(94,-258,o),
(94,-199,cs),
(94,-162,ls),
(94,-103,o),
(137,-60,o),
(196,-60,cs),
(797,-60,l),
(797,450,l)
);
}
);
width = 847;
},
{
anchors = (
{
name = imatra;
pos = (777,600);
},
{
name = top;
pos = (424,600);
}
);
layerId = "DF2AA445-C2A4-4E12-8ADA-5B4903805A97";
shapes = (
{
closed = 1;
nodes = (
(484,-311,ls),
(577,-311,o),
(647,-241,o),
(647,-148,cs),
(647,-70,l),
(797,-70,ls),
(804,-70,o),
(807,-66,o),
(807,-60,cs),
(807,450,ls),
(807,456,o),
(802,460,o),
(797,460,cs),
(792,460,o),
(787,456,o),
(787,450,cs),
(787,-50,l),
(647,-50,l),
(647,478,ls),
(647,554,o),
(591,610,o),
(515,610,cs),
(234,610,ls),
(123,610,o),
(40,527,o),
(40,416,cs),
(40,122,ls),
(40,48,o),
(92,-6,o),
(164,-10,cs),
(170,-10,l),
(172,-10,ls),
(221,-9,o),
(255,31,o),
(255,82,cs),
(255,118,ls),
(255,170,o),
(219,210,o),
(170,210,cs),
(121,210,o),
(85,170,o),
(85,118,cs),
(85,82,ls),
(85,66,o),
(88,50,o),
(95,38,c),
(73,57,o),
(60,86,o),
(60,122,cs),
(60,416,ls),
(60,518,o),
(132,590,o),
(234,590,cs),
(330,590,l),
(306,572,o),
(292,544,o),
(292,511,cs),
(292,89,ls),
(292,33,o),
(334,-10,o),
(389,-10,cs),
(444,-10,o),
(487,33,o),
(487,89,cs),
(487,511,ls),
(487,544,o),
(473,572,o),
(450,590,c),
(515,590,ls),
(582,590,o),
(627,545,o),
(627,478,cs),
(627,-50,l),
(196,-50,ls),
(132,-50,o),
(84,-98,o),
(84,-162,cs),
(84,-199,ls),
(84,-263,o),
(132,-311,o),
(196,-311,cs)
);
},
{
closed = 1;
nodes = (
(141,-291,o),
(104,-254,o),
(104,-199,cs),
(104,-162,ls),
(104,-107,o),
(141,-70,o),
(196,-70,cs),
(627,-70,l),
(627,-148,ls),
(627,-232,o),
(568,-291,o),
(484,-291,cs),
(196,-291,ls)
);
},
{
closed = 1;
nodes = (
(129,13,o),
(105,41,o),
(105,82,cs),
(105,118,ls),
(105,161,o),
(132,190,o),
(170,190,cs),
(208,190,o),
(235,161,o),
(235,118,cs),
(235,82,ls),
(235,39,o),
(210,10,o),
(171,10,cs),
(164,10,ls)
);
},
{
closed = 1;
nodes = (
(343,10,o),
(312,42,o),
(312,89,cs),
(312,511,ls),
(312,558,o),
(344,590,o),
(391,590,cs),
(436,590,o),
(467,558,o),
(467,511,cs),
(467,89,ls),
(467,42,o),
(435,10,o),
(389,10,cs)
);
}
);
width = 847;
},
{
anchors = (
{
name = imatra;
pos = (777,600);
},
{
name = top;
pos = (424,600);
}
);
layerId = "831A5D7B-7350-4608-95DD-9715BE7B29F6";
shapes = (
{
closed = 1;
nodes = (
(484,-320.8,ls),
(582.8,-320.8,o),
(657.2,-246.8,o),
(657.2,-148,cs),
(657.2,-80,l),
(797.2,-80,ls),
(810.4,-80,o),
(817.2,-72.8,o),
(817.2,-60,cs),
(817.2,450,ls),
(817.2,461.2,o),
(808,470,o),
(797.2,470,cs),
(786,470,o),
(777.2,461.2,o),
(777.2,450,cs),
(777.2,-40,l),
(657.2,-40,l),
(657.2,478,ls),
(657.2,560,o),
(596.8,620,o),
(515.2,620,cs),
(234,620,ls),
(117.2,620,o),
(30,532.8,o),
(30,416,cs),
(30,122,ls),
(30,43.2,o),
(86.8,-15.6,o),
(162.8,-19.6,cs),
(165.2,-20,o),
(167.6,-20,o),
(170,-20,cs),
(172,-20,ls),
(226.4,-18.8,o),
(265.2,25.6,o),
(265.2,82,cs),
(265.2,118,ls),
(265.2,175.2,o),
(224.4,220,o),
(170,220,cs),
(115.6,220,o),
(75.2,175.2,o),
(75.2,118,cs),
(75.2,86.4,l),
(71.6,97.2,o),
(70,109.2,o),
(70,122,cs),
(70,416,ls),
(70,513.6,o),
(136.4,580,o),
(234,580,cs),
(305.6,580,l),
(290.8,561.6,o),
(282,537.6,o),
(282,511.2,cs),
(282,89.2,ls),
(282,27.2,o),
(328,-20,o),
(389.2,-20,cs),
(450,-20,o),
(497.2,27.2,o),
(497.2,89.2,cs),
(497.2,511.2,ls),
(497.2,537.6,o),
(488.4,561.6,o),
(474,580,c),
(515.2,580,ls),
(577.6,580,o),
(617.2,540.8,o),
(617.2,478,cs),
(617.2,-40,l),
(196,-40,ls),
(126,-40,o),
(74,-92,o),
(74,-162,cs),
(74,-198.8,ls),
(74,-268.8,o),
(126,-320.8,o),
(196,-320.8,cs)
);
},
{
closed = 1;
nodes = (
(145.2,-280.8,o),
(114,-249.6,o),
(114,-198.8,cs),
(114,-162,ls),
(114,-111.2,o),
(145.2,-80,o),
(196,-80,cs),
(617.2,-80,l),
(617.2,-148,ls),
(617.2,-227.6,o),
(563.6,-280.8,o),
(484,-280.8,cs),
(196,-280.8,ls)
);
},
{
closed = 1;
nodes = (
(133.6,22.4,o),
(115.2,44.8,o),
(115.2,82,cs),
(115.2,118,ls),
(115.2,157.2,o),
(136,180,o),
(170,180,cs),
(204,180,o),
(225.2,157.2,o),
(225.2,118,cs),
(225.2,82,ls),
(225.2,42.8,o),
(205.2,20.4,o),
(170.8,20,cs),
(164.8,20,ls)
);
},
{
closed = 1;
nodes = (
(347.6,20,o),
(322,46,o),
(322,89.2,cs),
(322,511.2,ls),
(322,553.6,o),
(348.4,580,o),
(391.2,580,cs),
(431.6,580,o),
(457.2,554,o),
(457.2,511.2,cs),
(457.2,89.2,ls),
(457.2,46.4,o),
(430.8,20,o),
(389.2,20,cs)
);
}
);
width = 847;
}
);
metricLeft = "ca-tamil";
metricRight = "ca-tamil";
},
{
glyphname = "pa_uMatra-tamil";
lastChange = "2023-04-08 14:10:14 +0000";
layers = (
{
anchors = (
{
name = imatra;
pos = (350,600);
},
{
name = top;
pos = (200,600);
}
);
layerId = m01;
shapes = (
{
closed = 0;
nodes = (
(50,600,l),
(50,0,l),
(350,0,l),
(350,600,l)
);
},
{
closed = 0;
nodes = (
(350,0,l),
(350,-300,l)
);
}
);
width = 400;
},
{
anchors = (
{
name = imatra;
pos = (350,600);
},
{
name = top;
pos = (200,600);
}
);
layerId = "DF2AA445-C2A4-4E12-8ADA-5B4903805A97";
shapes = (
{
closed = 1;
nodes = (
(356,-310,o),
(360,-306,o),
(360,-300,cs),
(360,600,ls),
(360,606,o),
(356,610,o),
(350,610,cs),
(344,610,o),
(340,606,o),
(340,600,cs),
(340,10,l),
(60,10,l),
(60,600,ls),
(60,606,o),
(56,610,o),
(50,610,cs),
(44,610,o),
(40,606,o),
(40,600,cs),
(40,0,ls),
(40,-6,o),
(44,-10,o),
(50,-10,cs),
(340,-10,l),
(340,-300,ls),
(340,-306,o),
(344,-310,o),
(350,-310,cs)
);
}
);
width = 400;
},
{
anchors = (
{
name = imatra;
pos = (350,600);
},
{
name = top;
pos = (200,600);
}
);
layerId = "831A5D7B-7350-4608-95DD-9715BE7B29F6";
shapes = (
{
closed = 1;
nodes = (
(361.2,-320,o),
(370,-311.2,o),
(370,-300,cs),
(370,600,ls),
(370,611.2,o),
(361.2,620,o),
(350,620,cs),
(338.8,620,o),
(330,611.2,o),
(330,600,cs),
(330,20,l),
(70,20,l),
(70,600,ls),
(70,611.2,o),
(61.2,620,o),
(50,620,cs),
(38.8,620,o),
(30,611.2,o),
(30,600,cs),
(30,0,ls),
(30,-12.8,o),
(37.2,-20,o),
(50,-20,cs),
(330,-20,l),
(330,-300,ls),
(330,-311.2,o),
(338.8,-320,o),
(350,-320,cs)
);
}
);
width = 400;
}
);
metricLeft = "ca-tamil";
metricRight = "ca-tamil";
},
{
glyphname = "pa_uuMatra-tamil";
lastChange = "2023-04-08 14:10:14 +0000";
layers = (
{
anchors = (
{
name = imatra;
pos = (410,600);
},
{
name = top;
pos = (240,600);
}
);
layerId = m01;
shapes = (
{
ref = "pa-tamil";
},
{
pos = (165,-210);
ref = kokkiVattam;
},
{
closed = 0;
nodes = (
(215,-210,l),
(338,-210,ls),
(391,-210,o),
(430,-171,o),
(430,-118,cs),
(430,4,ls),
(430,30,o),
(410,50,o),
(384,50,cs),
(350,50,l)
);
},
{
closed = 0;
nodes = (
(350,0,l),
(350,-50,l)
);
}
);
width = 480;
},
{
anchors = (
{
name = imatra;
pos = (410,600);
},
{
name = top;
pos = (240,600);
}
);
layerId = "DF2AA445-C2A4-4E12-8ADA-5B4903805A97";
shapes = (
{
closed = 1;
nodes = (
(338,-220,ls),
(396,-220,o),
(440,-176,o),
(440,-118,cs),
(440,4,ls),
(440,35,o),
(415,60,o),
(384,60,cs),
(360,60,l),
(360,600,ls),
(360,606,o),
(356,610,o),
(350,610,cs),
(344,610,o),
(340,606,o),
(340,600,cs),
(340,10,l),
(60,10,l),
(60,600,ls),
(60,606,o),
(56,610,o),
(50,610,cs),
(44,610,o),
(40,606,o),
(40,600,cs),
(40,0,ls),
(40,-6,o),
(44,-10,o),
(50,-10,cs),
(340,-10,l),
(340,-50,ls),
(340,-56,o),
(344,-60,o),
(350,-60,cs),
(356,-60,o),
(360,-56,o),
(360,-50,cs),
(360,40,l),
(384,40,ls),
(406,40,o),
(420,26,o),
(420,4,cs),
(420,-118,ls),
(420,-167,o),
(387,-200,o),
(338,-200,cs),
(259,-200,l),
(269,-189,o),
(275,-175,o),
(275,-160,cs),
(275,-128,o),
(247,-100,o),
(215,-100,cs),
(183,-100,o),
(155,-128,o),
(155,-160,cs),
(155,-192,o),
(183,-220,o),
(215,-220,cs)
);
},
{
closed = 1;
nodes = (
(192,-200,o),
(175,-183,o),
(175,-160,cs),
(175,-137,o),
(192,-120,o),
(215,-120,cs),
(238,-120,o),
(255,-137,o),
(255,-160,cs),
(255,-183,o),
(238,-200,o),
(215,-200,cs)
);
}
);
width = 480;
},
{
anchors = (
{
name = imatra;
pos = (410,600);
},
{
name = top;
pos = (240,600);
}
);
layerId = "831A5D7B-7350-4608-95DD-9715BE7B29F6";
shapes = (
{
closed = 1;
nodes = (
(338,-230,ls),
(402,-230,o),
(450,-182,o),
(450,-118,cs),
(450,4,ls),
(450,40.8,o),
(420.8,70,o),
(384,70,cs),
(370,70,l),
(370,600,ls),
(370,611.2,o),
(361.2,620,o),
(350,620,cs),
(338.8,620,o),
(330,611.2,o),
(330,600,cs),
(330,20,l),
(70,20,l),
(70,600,ls),
(70,611.2,o),
(61.2,620,o),
(50,620,cs),
(38.8,620,o),
(30,611.2,o),
(30,600,cs),
(30,0,ls),
(30,-12.8,o),
(37.2,-20,o),
(50,-20,cs),
(330,-20,l),
(330,-50,ls),
(330,-61.2,o),
(338.8,-70,o),
(350,-70,cs),
(361.2,-70,o),
(370,-61.2,o),
(370,-50,cs),
(370,30,l),
(384,30,ls),
(401.6,30,o),
(410,21.6,o),
(410,4,cs),
(410,-118,ls),
(410,-162.8,o),
(382.8,-190,o),
(338,-190,cs),
(278,-190,l),
(282.4,-180.8,o),
(285.2,-170.8,o),
(285.2,-160,cs),
(285.2,-122,o),
(252.8,-90,o),
(215.2,-90,cs),
(177.2,-90,o),
(145.2,-122,o),
(145.2,-160,cs),
(145.2,-198,o),
(177.2,-230,o),
(215.2,-230,cs)
);
},
{
closed = 1;
nodes = (
(196.4,-190,o),
(185.2,-178.8,o),
(185.2,-160,cs),
(185.2,-141.2,o),
(196.4,-130,o),
(215.2,-130,cs),
(233.6,-130,o),
(245.2,-141.2,o),
(245.2,-160,cs),
(245.2,-178.8,o),
(233.6,-190,o),
(215.2,-190,cs)
);
}
);
width = 480;
}
);
metricLeft = "ca-tamil";
metricRight = "ca-tamil";
},
{
glyphname = "ma_uMatra-tamil";
lastChange = "2023-04-08 14:10:14 +0000";
layers = (
{
anchors = (
{
name = imatra;
pos = (480,600);
},
{
name = top;
pos = (275,600);
}
);
layerId = m01;
shapes = (
{
pos = (100,0);
ref = "ma-tamil";
},
{
closed = 0;
nodes = (
(325,0,l),
(325,-88,ls),
(325,-141,o),
(286,-180,o),
(233,-180,cs),
(142,-180,ls),
(89,-180,o),
(50,-141,o),
(50,-88,cs),
(50,450,l)
);
}
);
width = 550;
},
{
anchors = (
{
name = imatra;
pos = (480,600);
},
{
name = top;
pos = (275,600);
}
);
layerId = "DF2AA445-C2A4-4E12-8ADA-5B4903805A97";
shapes = (
{
closed = 1;
nodes = (
(233,-190,ls),
(291,-190,o),
(335,-146,o),
(335,-88,cs),
(335,-10,l),
(411,-10,ls),
(467,-10,o),
(510,33,o),
(510,89,cs),
(510,511,ls),
(510,567,o),
(468,610,o),
(413,610,cs),
(358,610,o),
(315,567,o),
(315,511,cs),
(315,10,l),
(160,10,l),
(160,600,ls),
(160,606,o),
(156,610,o),
(150,610,cs),
(144,610,o),
(140,606,o),
(140,600,cs),
(140,0,ls),
(140,-6,o),
(144,-10,o),
(150,-10,cs),
(315,-10,l),
(315,-88,ls),
(315,-137,o),
(282,-170,o),
(233,-170,cs),
(142,-170,ls),
(93,-170,o),
(60,-137,o),
(60,-88,cs),
(60,450,ls),
(60,456,o),
(56,460,o),
(50,460,cs),
(44,460,o),
(40,456,o),
(40,450,cs),
(40,-88,ls),
(40,-146,o),
(84,-190,o),
(142,-190,cs)
);
},
{
closed = 1;
nodes = (
(335,511,ls),
(335,558,o),
(367,590,o),
(413,590,cs),
(459,590,o),
(490,558,o),
(490,511,cs),
(490,89,ls),
(490,42,o),
(458,10,o),
(411,10,cs),
(335,10,l)
);
}
);
width = 550;
},
{
anchors = (
{
name = imatra;
pos = (480,600);
},
{
name = top;
pos = (275,600);
}
);
layerId = "831A5D7B-7350-4608-95DD-9715BE7B29F6";
shapes = (
{
closed = 1;
nodes = (
(233.2,-200,ls),
(296.8,-200,o),
(345.2,-152,o),
(345.2,-88,cs),
(345.2,-20,l),
(411.2,-20,ls),
(472.8,-20,o),
(520,27.2,o),
(520,89.2,cs),
(520,511.2,ls),
(520,572.8,o),
(474,620,o),
(413.2,620,cs),
(352,620,o),
(305.2,572.8,o),
(305.2,511.2,cs),
(305.2,20,l),
(170,20,l),
(170,600,ls),
(170,611.2,o),
(161.2,620,o),
(150,620,cs),
(138.8,620,o),
(130,611.2,o),
(130,600,cs),
(130,0,ls),
(130,-12.8,o),
(137.2,-20,o),
(150,-20,cs),
(305.2,-20,l),
(305.2,-88,ls),
(305.2,-132.8,o),
(277.6,-160,o),
(233.2,-160,cs),
(142,-160,ls),
(97.2,-160,o),
(70,-132.8,o),
(70,-88,cs),
(70,450,ls),
(70,461.2,o),
(61.2,470,o),
(50,470,cs),
(38.8,470,o),
(30,461.2,o),
(30,450,cs),
(30,-88,ls),
(30,-152,o),
(78,-200,o),
(142,-200,cs)
);
},
{
closed = 1;
nodes = (
(345.2,511.2,ls),
(345.2,553.6,o),
(371.2,580,o),
(413.2,580,cs),
(454.4,580,o),
(480,554,o),
(480,511.2,cs),
(480,89.2,ls),
(480,46.4,o),
(453.6,20,o),
(411.2,20,cs),
(345.2,20,l)
);
}
);
width = 550;
}
);
metricLeft = "ca-tamil";
metricRight = "ca-tamil";
},
{
glyphname = "ma_uuMatra-tamil";
lastChange = "2023-04-08 14:10:14 +0000";
layers = (
{
anchors = (
{
name = imatra;
pos = (530,600);
},
{
name = top;
pos = (300,600);
}
);
layerId = m01;
shapes = (
{
pos = (150,0);
ref = "ma-tamil";
},
{
closed = 0;
nodes = (
(375,0,l),
(375,-88,ls),
(375,-141,o),
(336,-180,o),
(283,-180,cs),
(142,-180,ls),
(89,-180,o),
(50,-141,o),
(50,-88,cs),
(50,400,l)
);
},
{
pos = (50,350);
ref = kokkiVattam;
}
);
width = 600;
},
{
anchors = (
{
name = imatra;
pos = (530,600);
},
{
name = top;
pos = (300,600);
}
);
layerId = "DF2AA445-C2A4-4E12-8ADA-5B4903805A97";
shapes = (
{
closed = 1;
nodes = (
(283,-190,ls),
(341,-190,o),
(385,-146,o),
(385,-88,cs),
(385,-10,l),
(461,-10,ls),
(517,-10,o),
(560,33,o),
(560,89,cs),
(560,511,ls),
(560,567,o),
(518,610,o),
(463,610,cs),
(408,610,o),
(365,567,o),
(365,511,cs),
(365,10,l),
(210,10,l),
(210,600,ls),
(210,606,o),
(206,610,o),
(200,610,cs),
(194,610,o),
(190,606,o),
(190,600,cs),
(190,0,ls),
(190,-6,o),
(194,-10,o),
(200,-10,cs),
(365,-10,l),
(365,-88,ls),
(365,-137,o),
(332,-170,o),
(283,-170,cs),
(142,-170,ls),
(93,-170,o),
(60,-137,o),
(60,-88,cs),
(60,356,l),
(71,346,o),
(85,340,o),
(100,340,cs),
(132,340,o),
(160,368,o),
(160,400,cs),
(160,432,o),
(132,460,o),
(100,460,cs),
(68,460,o),
(40,432,o),
(40,400,cs),
(40,-88,ls),
(40,-146,o),
(84,-190,o),
(142,-190,cs)
);
},
{
closed = 1;
nodes = (
(77,360,o),
(60,377,o),
(60,400,cs),
(60,423,o),
(77,440,o),
(100,440,cs),
(123,440,o),
(140,423,o),
(140,400,cs),
(140,377,o),
(123,360,o),
(100,360,cs)
);
},
{
closed = 1;
nodes = (
(385,511,ls),
(385,558,o),
(417,590,o),
(463,590,cs),
(509,590,o),
(540,558,o),
(540,511,cs),
(540,89,ls),
(540,42,o),
(508,10,o),
(461,10,cs),
(385,10,l)
);
}
);
width = 600;
},
{
anchors = (
{
name = imatra;
pos = (530,600);
},
{
name = top;
pos = (300,600);
}
);
layerId = "831A5D7B-7350-4608-95DD-9715BE7B29F6";
shapes = (
{
closed = 1;
nodes = (
(283.2,-200,ls),
(346.8,-200,o),
(395.2,-152,o),
(395.2,-88,cs),
(395.2,-20,l),
(461.2,-20,ls),
(522.8,-20,o),
(570,27.2,o),
(570,89.2,cs),
(570,511.2,ls),
(570,572.8,o),
(524,620,o),
(463.2,620,cs),
(402,620,o),
(355.2,572.8,o),
(355.2,511.2,cs),
(355.2,20,l),
(220,20,l),
(220,600,ls),
(220,611.2,o),
(211.2,620,o),
(200,620,cs),
(188.8,620,o),
(180,611.2,o),
(180,600,cs),
(180,0,ls),
(180,-12.8,o),
(187.2,-20,o),
(200,-20,cs),
(355.2,-20,l),
(355.2,-88,ls),
(355.2,-132.8,o),
(327.6,-160,o),
(283.2,-160,cs),
(142,-160,ls),
(97.2,-160,o),
(70,-132.8,o),
(70,-88,cs),
(70,337.2,l),
(79.2,332.4,o),
(89.2,330,o),
(100,330,cs),
(138,330,o),
(170,362,o),
(170,400,cs),
(170,438,o),
(138,470,o),
(100,470,cs),
(62,470,o),
(30,438,o),
(30,400,cs),
(30,-88,ls),
(30,-152,o),
(78,-200,o),
(142,-200,cs)
);
},
{
closed = 1;
nodes = (
(81.2,370,o),
(70,381.2,o),
(70,400,cs),
(70,418.8,o),
(81.2,430,o),
(100,430,cs),
(118.8,430,o),
(130,418.8,o),
(130,400,cs),
(130,381.2,o),
(118.8,370,o),
(100,370,cs)
);
},
{
closed = 1;
nodes = (
(395.2,511.2,ls),
(395.2,553.6,o),
(421.2,580,o),
(463.2,580,cs),
(504.4,580,o),
(530,554,o),
(530,511.2,cs),
(530,89.2,ls),
(530,46.4,o),
(503.6,20,o),
(461.2,20,cs),
(395.2,20,l)
);
}
);
width = 600;
}
);
metricLeft = "ca-tamil";
metricRight = "ca-tamil";
},
{
glyphname = "ya_uMatra-tamil";
lastChange = "2023-04-08 14:10:14 +0000";
layers = (
{
anchors = (
{
name = imatra;
pos = (410,600);
},
{
name = top;
pos = (230,600);
}
);
layerId = m01;
shapes = (
{
closed = 0;
nodes = (
(50,600,l),
(50,92,ls),
(50,39,o),
(88,0,o),
(140,0,cs),
(192,0,o),
(230,39,o),
(230,92,cs),
(230,600,l),
(230,0,l),
(410,0,l),
(410,600,l)
);
},
{
closed = 0;
nodes = (
(410,0,l),
(410,-300,l)
);
}
);
width = 460;
},
{
anchors = (
{
name = imatra;
pos = (410,600);
},
{
name = top;
pos = (230,600);
}
);
layerId = "DF2AA445-C2A4-4E12-8ADA-5B4903805A97";
shapes = (
{
closed = 1;
nodes = (
(416,-310,o),
(420,-306,o),
(420,-300,cs),
(420,600,ls),
(420,606,o),
(416,610,o),
(410,610,cs),
(404,610,o),
(400,606,o),
(400,600,cs),
(400,10,l),
(240,10,l),
(240,590,ls),
(240,596,o),
(236,600,o),
(230,600,cs),
(224,600,o),
(220,596,o),
(220,590,cs),
(220,92,ls),
(220,43,o),
(188,10,o),
(140,10,cs),
(92,10,o),
(60,43,o),
(60,92,cs),
(60,600,ls),
(60,606,o),
(56,610,o),
(50,610,cs),
(44,610,o),
(40,606,o),
(40,600,cs),
(40,92,ls),
(40,34,o),
(82,-10,o),
(140,-10,cs),
(174,-10,o),
(202,5,o),
(220,29,c),
(220,0,ls),
(220,-6,o),
(224,-10,o),
(230,-10,cs),
(400,-10,l),
(400,-300,ls),
(400,-306,o),
(404,-310,o),
(410,-310,cs)
);
}
);
width = 460;
},
{
anchors = (
{
name = imatra;
pos = (410,600);
},
{
name = top;
pos = (230,600);
}
);
layerId = "831A5D7B-7350-4608-95DD-9715BE7B29F6";
shapes = (
{
closed = 1;
nodes = (
(421.2,-320,o),
(430,-311.2,o),
(430,-300,cs),
(430,600,ls),
(430,611.2,o),
(421.2,620,o),
(410,620,cs),
(398.8,620,o),
(390,611.2,o),
(390,600,cs),
(390,20,l),
(250,20,l),
(250,580,ls),
(250,593.2,o),
(243.2,600,o),
(230,600,cs),
(217.2,600,o),
(210,593.2,o),
(210,580,cs),
(210,92,ls),
(210,47.2,o),
(183.6,20,o),
(140,20,cs),
(96.4,20,o),
(70,47.2,o),
(70,92,cs),
(70,600,ls),
(70,611.2,o),
(61.2,620,o),
(50,620,cs),
(38.8,620,o),
(30,611.2,o),
(30,600,cs),
(30,92,ls),
(30,28.4,o),
(76.8,-20,o),
(140,-20,cs),
(167.2,-20,o),
(191.2,-11.2,o),
(210,4.4,c),
(210,-7.6,ls),
(210,-15.6,o),
(217.2,-20,o),
(230,-20,cs),
(390,-20,l),
(390,-300,ls),
(390,-311.2,o),
(398.8,-320,o),
(410,-320,cs)
);
}
);
width = 460;
}
);
metricLeft = "ca-tamil";
metricRight = "ca-tamil";
},
{
glyphname = "ya_uuMatra-tamil";
lastChange = "2023-04-08 14:10:14 +0000";
layers = (
{
anchors = (
{
name = imatra;
pos = (470,600);
},
{
name = top;
pos = (270,600);
}
);
layerId = m01;
shapes = (
{
ref = "ya-tamil";
},
{
pos = (225,-210);
ref = kokkiVattam;
},
{
closed = 0;
nodes = (
(275,-210,l),
(398,-210,ls),
(451,-210,o),
(490,-171,o),
(490,-118,cs),
(490,4,ls),
(490,30,o),
(470,50,o),
(444,50,cs),
(410,50,l)
);
},
{
closed = 0;
nodes = (
(410,0,l),
(410,-50,l)
);
}
);
width = 540;
},
{
anchors = (
{
name = imatra;
pos = (470,600);
},
{
name = top;
pos = (270,600);
}
);
layerId = "DF2AA445-C2A4-4E12-8ADA-5B4903805A97";
shapes = (
{
closed = 1;
nodes = (
(398,-220,ls),
(456,-220,o),
(500,-176,o),
(500,-118,cs),
(500,4,ls),
(500,35,o),
(475,60,o),
(444,60,cs),
(420,60,l),
(420,600,ls),
(420,606,o),
(416,610,o),
(410,610,cs),
(404,610,o),
(400,606,o),
(400,600,cs),
(400,10,l),
(240,10,l),
(240,590,ls),
(240,596,o),
(236,600,o),
(230,600,cs),
(224,600,o),
(220,596,o),
(220,590,cs),
(220,92,ls),
(220,43,o),
(188,10,o),
(140,10,cs),
(92,10,o),
(60,43,o),
(60,92,cs),
(60,600,ls),
(60,606,o),
(56,610,o),
(50,610,cs),
(44,610,o),
(40,606,o),
(40,600,cs),
(40,92,ls),
(40,34,o),
(82,-10,o),
(140,-10,cs),
(174,-10,o),
(202,5,o),
(220,29,c),
(220,0,ls),
(220,-6,o),
(224,-10,o),
(230,-10,cs),
(400,-10,l),
(400,-50,ls),
(400,-56,o),
(404,-60,o),
(410,-60,cs),
(416,-60,o),
(420,-56,o),
(420,-50,cs),
(420,40,l),
(444,40,ls),
(466,40,o),
(480,26,o),
(480,4,cs),
(480,-118,ls),
(480,-167,o),
(447,-200,o),
(398,-200,cs),
(319,-200,l),
(329,-189,o),
(335,-175,o),
(335,-160,cs),
(335,-128,o),
(307,-100,o),
(275,-100,cs),
(243,-100,o),
(215,-128,o),
(215,-160,cs),
(215,-192,o),
(243,-220,o),
(275,-220,cs)
);
},
{
closed = 1;
nodes = (
(252,-200,o),
(235,-183,o),
(235,-160,cs),
(235,-137,o),
(252,-120,o),
(275,-120,cs),
(298,-120,o),
(315,-137,o),
(315,-160,cs),
(315,-183,o),
(298,-200,o),
(275,-200,cs)
);
}
);
width = 540;
},
{
anchors = (
{
name = imatra;
pos = (470,600);
},
{
name = top;
pos = (270,600);
}
);
layerId = "831A5D7B-7350-4608-95DD-9715BE7B29F6";
shapes = (
{
closed = 1;
nodes = (
(398,-230,ls),
(462,-230,o),
(510,-182,o),
(510,-118,cs),
(510,4,ls),
(510,40.8,o),
(480.8,70,o),
(444,70,cs),
(430,70,l),
(430,600,ls),
(430,611.2,o),
(421.2,620,o),
(410,620,cs),
(398.8,620,o),
(390,611.2,o),
(390,600,cs),
(390,20,l),
(250,20,l),
(250,580,ls),
(250,593.2,o),
(243.2,600,o),
(230,600,cs),
(217.2,600,o),
(210,593.2,o),
(210,580,cs),
(210,92,ls),
(210,47.2,o),
(183.6,20,o),
(140,20,cs),
(96.4,20,o),
(70,47.2,o),
(70,92,cs),
(70,600,ls),
(70,611.2,o),
(61.2,620,o),
(50,620,cs),
(38.8,620,o),
(30,611.2,o),
(30,600,cs),
(30,92,ls),
(30,28.4,o),
(76.8,-20,o),
(140,-20,cs),
(167.2,-20,o),
(191.2,-11.2,o),
(210,4.4,c),
(210,-7.6,ls),
(210,-15.6,o),
(217.2,-20,o),
(230,-20,cs),
(390,-20,l),
(390,-50,ls),
(390,-61.2,o),
(398.8,-70,o),
(410,-70,cs),
(421.2,-70,o),
(430,-61.2,o),
(430,-50,cs),
(430,30,l),
(444,30,ls),
(461.6,30,o),
(470,21.6,o),
(470,4,cs),
(470,-118,ls),
(470,-162.8,o),
(442.8,-190,o),
(398,-190,cs),
(338,-190,l),
(342.4,-180.8,o),
(345.2,-170.8,o),
(345.2,-160,cs),
(345.2,-122,o),
(312.8,-90,o),
(275.2,-90,cs),
(237.2,-90,o),
(205.2,-122,o),
(205.2,-160,cs),
(205.2,-198,o),
(237.2,-230,o),
(275.2,-230,cs)
);
},
{
closed = 1;
nodes = (
(256.4,-190,o),
(245.2,-178.8,o),
(245.2,-160,cs),
(245.2,-141.2,o),
(256.4,-130,o),
(275.2,-130,cs),
(293.6,-130,o),
(305.2,-141.2,o),
(305.2,-160,cs),
(305.2,-178.8,o),
(293.6,-190,o),
(275.2,-190,cs)
);
}
);
width = 540;
}
);
metricLeft = "ca-tamil";
metricRight = "ca-tamil";
},
{
glyphname = "ra_uMatra-tamil";
lastChange = "2023-04-08 14:10:14 +0000";
layers = (
{
anchors = (
{
name = imatra;
pos = (490,600);
},
{
name = top;
pos = (280,600);
}
);
layerId = m01;
shapes = (
{
closed = 0;
nodes = (
(150,100,l),
(150,600,l),
(330,600,l),
(330,160,l)
);
},
{
closed = 0;
nodes = (
(330,600,l),
(420,600,l)
);
},
{
closed = 0;
nodes = (
(330,232,l),
(330,277,o),
(351,317,o),
(411,317,cs),
(510,317,o),
(510,264,o),
(510,97,cs),
(510,-87,o),
(479,-140,o),
(352,-140,cs),
(203,-140,ls),
(115,-140,o),
(50,-75,o),
(50,13,cs),
(50,627,ls),
(50,715,o),
(115,780,o),
(203,780,cs),
(357,780,ls),
(445,780,o),
(510,715,o),
(510,627,cs),
(510,550,l)
);
}
);
width = 560;
},
{
anchors = (
{
name = imatra;
pos = (490,600);
},
{
name = top;
pos = (280,600);
}
);
layerId = "DF2AA445-C2A4-4E12-8ADA-5B4903805A97";
shapes = (
{
closed = 1;
nodes = (
(352,-150,ls),
(485,-150,o),
(520,-92,o),
(520,97,cs),
(520,264,o),
(520,327,o),
(411,327,cs),
(377,327,o),
(354,315,o),
(340,297,c),
(340,590,l),
(420,590,ls),
(426,590,o),
(430,594,o),
(430,600,cs),
(430,606,o),
(426,610,o),
(420,610,cs),
(150,610,ls),
(144,610,o),
(140,606,o),
(140,600,cs),
(140,100,ls),
(140,94,o),
(144,90,o),
(150,90,cs),
(156,90,o),
(160,94,o),
(160,100,cs),
(160,590,l),
(320,590,l),
(320,160,ls),
(320,154,o),
(324,150,o),
(330,150,cs),
(336,150,o),
(340,154,o),
(340,160,cs),
(340,232,ls),
(340,274,o),
(357,307,o),
(411,307,cs),
(500,307,o),
(500,264,o),
(500,97,cs),
(500,-84,o),
(473,-130,o),
(352,-130,cs),
(203,-130,ls),
(119,-130,o),
(60,-71,o),
(60,13,cs),
(60,627,ls),
(60,711,o),
(119,770,o),
(203,770,cs),
(357,770,ls),
(441,770,o),
(500,711,o),
(500,627,cs),
(500,550,ls),
(500,544,o),
(504,540,o),
(510,540,cs),
(516,540,o),
(520,544,o),
(520,550,cs),
(520,627,ls),
(520,720,o),
(450,790,o),
(357,790,cs),
(203,790,ls),
(110,790,o),
(40,720,o),
(40,627,cs),
(40,13,ls),
(40,-80,o),
(110,-150,o),
(203,-150,cs)
);
}
);
width = 560;
},
{
anchors = (
{
name = imatra;
pos = (490,600);
},
{
name = top;
pos = (280,600);
}
);
layerId = "831A5D7B-7350-4608-95DD-9715BE7B29F6";
shapes = (
{
closed = 1;
nodes = (
(352,-160,ls),
(493.2,-160,o),
(530,-95.2,o),
(530,97.2,cs),
(530,264,o),
(530,337.2,o),
(411.2,337.2,cs),
(385.2,337.2,o),
(365.2,330.8,o),
(350,320,c),
(350,580,l),
(420,580,ls),
(431.2,580,o),
(440,588.8,o),
(440,600,cs),
(440,611.2,o),
(431.2,620,o),
(420,620,cs),
(150,620,ls),
(137.2,620,o),
(130,612.8,o),
(130,600,cs),
(130,100,ls),
(130,88.8,o),
(138.8,80,o),
(150,80,cs),
(161.2,80,o),
(170,88.8,o),
(170,100,cs),
(170,580,l),
(310,580,l),
(310,160,ls),
(310,148.8,o),
(318.8,140,o),
(330,140,cs),
(341.2,140,o),
(350,148.8,o),
(350,160,cs),
(350,232,ls),
(350,272,o),
(363.2,297.2,o),
(411.2,297.2,cs),
(490,297.2,o),
(490,264,o),
(490,97.2,cs),
(490,-81.6,o),
(467.6,-120,o),
(352,-120,cs),
(203.2,-120,ls),
(123.2,-120,o),
(70,-66.8,o),
(70,13.2,cs),
(70,627.2,ls),
(70,706.8,o),
(123.2,760,o),
(203.2,760,cs),
(357.2,760,ls),
(436.8,760,o),
(490,706.8,o),
(490,627.2,cs),
(490,550,ls),
(490,538.8,o),
(498.8,530,o),
(510,530,cs),
(521.2,530,o),
(530,538.8,o),
(530,550,cs),
(530,627.2,ls),
(530,726,o),
(456,800,o),
(357.2,800,cs),
(203.2,800,ls),
(104,800,o),
(30,726,o),
(30,627.2,cs),
(30,13.2,ls),
(30,-86,o),
(104,-160,o),
(203.2,-160,cs)
);
}
);
width = 560;
}
);
metricLeft = "ca-tamil";
metricRight = "ca-tamil";
},
{
glyphname = "ra_uuMatra-tamil";
lastChange = "2023-04-08 14:10:14 +0000";
layers = (
{
anchors = (
{
name = imatra;
pos = (490,600);
},
{
name = top;
pos = (280,600);
}
);
layerId = m01;
shapes = (
{
pos = (410,440);
ref = kokkiVattam;
},
{
closed = 0;
nodes = (
(150,100,l),
(150,600,l),
(330,600,l),
(330,160,l)
);
},
{
closed = 0;
nodes = (
(330,600,l),
(420,600,l)
);
},
{
closed = 0;
nodes = (
(330,232,l),
(330,277,o),
(351,317,o),
(411,317,cs),
(510,317,o),
(510,264,o),
(510,97,cs),
(510,-87,o),
(479,-140,o),
(352,-140,cs),
(203,-140,ls),
(115,-140,o),
(50,-75,o),
(50,13,cs),
(50,627,ls),
(50,715,o),
(115,780,o),
(203,780,cs),
(357,780,ls),
(445,780,o),
(510,715,o),
(510,627,cs),
(510,490,l)
);
}
);
width = 560;
},
{
anchors = (
{
name = imatra;
pos = (490,600);
},
{
name = top;
pos = (280,600);
}
);
layerId = "DF2AA445-C2A4-4E12-8ADA-5B4903805A97";
shapes = (
{
closed = 1;
nodes = (
(352,-150,ls),
(485,-150,o),
(520,-92,o),
(520,97,cs),
(520,264,o),
(520,327,o),
(411,327,cs),
(377,327,o),
(354,315,o),
(340,297,c),
(340,590,l),
(420,590,ls),
(426,590,o),
(430,594,o),
(430,600,cs),
(430,606,o),
(426,610,o),
(420,610,cs),
(150,610,ls),
(144,610,o),
(140,606,o),
(140,600,cs),
(140,100,ls),
(140,94,o),
(144,90,o),
(150,90,cs),
(156,90,o),
(160,94,o),
(160,100,cs),
(160,590,l),
(320,590,l),
(320,160,ls),
(320,154,o),
(324,150,o),
(330,150,cs),
(336,150,o),
(340,154,o),
(340,160,cs),
(340,232,ls),
(340,274,o),
(357,307,o),
(411,307,cs),
(500,307,o),
(500,264,o),
(500,97,cs),
(500,-84,o),
(473,-130,o),
(352,-130,cs),
(203,-130,ls),
(119,-130,o),
(60,-71,o),
(60,13,cs),
(60,627,ls),
(60,711,o),
(119,770,o),
(203,770,cs),
(357,770,ls),
(441,770,o),
(500,711,o),
(500,627,cs),
(500,534,l),
(489,544,o),
(475,550,o),
(460,550,cs),
(428,550,o),
(400,522,o),
(400,490,cs),
(400,458,o),
(428,430,o),
(460,430,cs),
(492,430,o),
(520,458,o),
(520,490,cs),
(520,627,ls),
(520,720,o),
(450,790,o),
(357,790,cs),
(203,790,ls),
(110,790,o),
(40,720,o),
(40,627,cs),
(40,13,ls),
(40,-80,o),
(110,-150,o),
(203,-150,cs)
);
},
{
closed = 1;
nodes = (
(437,450,o),
(420,467,o),
(420,490,cs),
(420,513,o),
(437,530,o),
(460,530,cs),
(483,530,o),
(500,513,o),
(500,490,cs),
(500,467,o),
(483,450,o),
(460,450,cs)
);
}
);
width = 560;
},
{
anchors = (
{
name = imatra;
pos = (490,600);
},
{
name = top;
pos = (280,600);
}
);
layerId = "831A5D7B-7350-4608-95DD-9715BE7B29F6";
shapes = (
{
closed = 1;
nodes = (
(352,-160,ls),
(493.2,-160,o),
(530,-95.2,o),
(530,97.2,cs),
(530,264,o),
(530,337.2,o),
(411.2,337.2,cs),
(385.2,337.2,o),
(365.2,330.8,o),
(350,320,c),
(350,580,l),
(420,580,ls),
(431.2,580,o),
(440,588.8,o),
(440,600,cs),
(440,611.2,o),
(431.2,620,o),
(420,620,cs),
(150,620,ls),
(137.2,620,o),
(130,612.8,o),
(130,600,cs),
(130,100,ls),
(130,88.8,o),
(138.8,80,o),
(150,80,cs),
(161.2,80,o),
(170,88.8,o),
(170,100,cs),
(170,580,l),
(310,580,l),
(310,160,ls),
(310,148.8,o),
(318.8,140,o),
(330,140,cs),
(341.2,140,o),
(350,148.8,o),
(350,160,cs),
(350,232,ls),
(350,272,o),
(363.2,297.2,o),
(411.2,297.2,cs),
(490,297.2,o),
(490,264,o),
(490,97.2,cs),
(490,-81.6,o),
(467.6,-120,o),
(352,-120,cs),
(203.2,-120,ls),
(123.2,-120,o),
(70,-66.8,o),
(70,13.2,cs),
(70,627.2,ls),
(70,706.8,o),
(123.2,760,o),
(203.2,760,cs),
(357.2,760,ls),
(436.8,760,o),
(490,706.8,o),
(490,627.2,cs),
(490,552.8,l),
(480.8,557.6,o),
(470.8,560,o),
(460,560,cs),
(422,560,o),
(390,528,o),
(390,490,cs),
(390,452,o),
(422,420,o),
(460,420,cs),
(498,420,o),
(530,452,o),
(530,490,cs),
(530,627.2,ls),
(530,726,o),
(456,800,o),
(357.2,800,cs),
(203.2,800,ls),
(104,800,o),
(30,726,o),
(30,627.2,cs),
(30,13.2,ls),
(30,-86,o),
(104,-160,o),
(203.2,-160,cs)
);
},
{
closed = 1;
nodes = (
(441.2,460,o),
(430,471.2,o),
(430,490,cs),
(430,508.8,o),
(441.2,520,o),
(460,520,cs),
(478.8,520,o),
(490,508.8,o),
(490,490,cs),
(490,471.2,o),
(478.8,460,o),
(460,460,cs)
);
}
);
width = 560;
}
);
metricLeft = "ca-tamil";
metricRight = "ca-tamil";
},
{
glyphname = "rra_uMatra-tamil";
lastChange = "2023-04-08 14:10:14 +0000";
layers = (
{
anchors = (
{
name = imatra;
pos = (476,600);
},
{
name = top;
pos = (273,600);
}
);
layerId = m01;
shapes = (
{
closed = 0;
nodes = (
(216,120,l),
(216,524,ls),
(216,568,o),
(184,600,o),
(141,600,cs),
(98,600,o),
(66,568,o),
(66,524,cs),
(66,80,l)
);
},
{
closed = 0;
nodes = (
(216,516,l),
(216,561,o),
(237,601,o),
(297,601,cs),
(391,601,o),
(396,506,o),
(396,369,cs),
(396,-148,ls),
(396,-236,o),
(331,-301,o),
(243,-301,cs),
(152,-301,ls),
(93,-301,o),
(50,-258,o),
(50,-199,cs),
(50,-162,ls),
(50,-103,o),
(93,-60,o),
(152,-60,cs),
(496,-60,l),
(496,450,l)
);
}
);
width = 546;
},
{
anchors = (
{
name = imatra;
pos = (476,600);
},
{
name = top;
pos = (273,600);
}
);
layerId = "DF2AA445-C2A4-4E12-8ADA-5B4903805A97";
shapes = (
{
closed = 1;
nodes = (
(243,-311,ls),
(336,-311,o),
(406,-241,o),
(406,-148,cs),
(406,-70,l),
(496,-70,ls),
(502,-70,o),
(506,-66,o),
(506,-60,cs),
(506,450,ls),
(506,456,o),
(502,460,o),
(496,460,cs),
(490,460,o),
(486,456,o),
(486,450,cs),
(486,-50,l),
(406,-50,l),
(406,369,ls),
(406,507,o),
(401,611,o),
(297,611,cs),
(254,611,o),
(229,592,o),
(216,566,c),
(202,592,o),
(174,610,o),
(141,610,cs),
(93,610,o),
(56,573,o),
(56,524,cs),
(56,80,ls),
(56,74,o),
(60,70,o),
(66,70,cs),
(72,70,o),
(76,74,o),
(76,80,cs),
(76,524,ls),
(76,564,o),
(102,590,o),
(141,590,cs),
(180,590,o),
(206,564,o),
(206,524,cs),
(206,120,ls),
(206,114,o),
(210,110,o),
(216,110,cs),
(222,110,o),
(226,114,o),
(226,120,cs),
(226,516,ls),
(226,558,o),
(243,591,o),
(297,591,cs),
(382,591,o),
(386,506,o),
(386,369,cs),
(386,-50,l),
(152,-50,ls),
(88,-50,o),
(40,-98,o),
(40,-162,cs),
(40,-199,ls),
(40,-263,o),
(88,-311,o),
(152,-311,cs)
);
},
{
closed = 1;
nodes = (
(97,-291,o),
(60,-254,o),
(60,-199,cs),
(60,-162,ls),
(60,-107,o),
(97,-70,o),
(152,-70,cs),
(386,-70,l),
(386,-148,ls),
(386,-232,o),
(327,-291,o),
(243,-291,cs),
(152,-291,ls)
);
}
);
width = 546;
},
{
anchors = (
{
name = imatra;
pos = (476,600);
},
{
name = top;
pos = (273,600);
}
);
layerId = "831A5D7B-7350-4608-95DD-9715BE7B29F6";
shapes = (
{
closed = 1;
nodes = (
(243.2,-320.8,ls),
(342,-320.8,o),
(416,-246.8,o),
(416,-148,cs),
(416,-80,l),
(496,-80,ls),
(509.2,-80,o),
(516,-72.8,o),
(516,-60,cs),
(516,450,ls),
(516,461.2,o),
(507.2,470,o),
(496,470,cs),
(484.8,470,o),
(476,461.2,o),
(476,450,cs),
(476,-40,l),
(416,-40,l),
(416,369.2,ls),
(416,507.2,o),
(410.4,621.2,o),
(297.2,621.2,cs),
(257.6,621.2,o),
(231.6,606,o),
(216,584.4,c),
(198.8,606.4,o),
(172,620,o),
(141.2,620,cs),
(87.2,620,o),
(46,578.8,o),
(46,524,cs),
(46,80,ls),
(46,68.8,o),
(54.8,60,o),
(66,60,cs),
(77.2,60,o),
(86,68.8,o),
(86,80,cs),
(86,524,ls),
(86,559.6,o),
(106.4,580,o),
(141.2,580,cs),
(175.6,580,o),
(196,559.6,o),
(196,524,cs),
(196,120,ls),
(196,108.8,o),
(204.8,100,o),
(216,100,cs),
(227.2,100,o),
(236,108.8,o),
(236,120,cs),
(236,516,ls),
(236,556,o),
(249.2,581.2,o),
(297.2,581.2,cs),
(372,581.2,o),
(376,505.6,o),
(376,369.2,cs),
(376,-40,l),
(152,-40,ls),
(82,-40,o),
(30,-92,o),
(30,-162,cs),
(30,-198.8,ls),
(30,-268.8,o),
(82,-320.8,o),
(152,-320.8,cs)
);
},
{
closed = 1;
nodes = (
(101.2,-280.8,o),
(70,-249.6,o),
(70,-198.8,cs),
(70,-162,ls),
(70,-111.2,o),
(101.2,-80,o),
(152,-80,cs),
(376,-80,l),
(376,-148,ls),
(376,-227.6,o),
(322.8,-280.8,o),
(243.2,-280.8,cs),
(152,-280.8,ls)
);
}
);
width = 546;
}
);
metricLeft = "ca-tamil";
metricRight = "ca-tamil";
},
{
glyphname = "la_iMatra-tamil";
lastChange = "2023-04-08 14:10:14 +0000";
layers = (
{
anchors = (
{
name = imatra;
pos = (527,600);
},
{
name = top;
pos = (299,600);
}
);
layerId = m01;
shapes = (
{
closed = 0;
nodes = (
(547,0,l),
(547,708,ls),
(547,761,o),
(508,800,o),
(455,800,cs),
(439,800,ls),
(386,800,o),
(347,761,o),
(347,708,cs),
(347,592,ls),
(347,539,o),
(386,500,o),
(439,500,cs),
(467,500,l)
);
},
{
pos = (95,0);
ref = chinnaVattam;
},
{
closed = 0;
nodes = (
(391,600,l),
(435,600,o),
(467,567,o),
(467,523,cs),
(467,76,ls),
(467,32,o),
(435,0,o),
(392,0,cs),
(349,0,o),
(317,32,o),
(317,76,cs),
(317,473,ls),
(317,552,o),
(264,600,o),
(196,600,cs),
(172,600,ls),
(101,600,o),
(50,549,o),
(50,478,cs),
(50,122,ls),
(50,51,o),
(102,0,o),
(172,0,c)
);
}
);
width = 597;
},
{
anchors = (
{
name = imatra;
pos = (527,600);
},
{
name = top;
pos = (299,600);
}
);
layerId = "DF2AA445-C2A4-4E12-8ADA-5B4903805A97";
shapes = (
{
closed = 1;
nodes = (
(172,-10,ls),
(221,-9,o),
(255,31,o),
(255,82,cs),
(255,118,ls),
(255,170,o),
(219,210,o),
(170,210,cs),
(121,210,o),
(85,170,o),
(85,118,cs),
(85,82,ls),
(85,66,o),
(88,50,o),
(95,38,c),
(73,57,o),
(60,86,o),
(60,122,cs),
(60,478,ls),
(60,545,o),
(105,590,o),
(172,590,cs),
(196,590,ls),
(260,590,o),
(307,548,o),
(307,473,cs),
(307,76,ls),
(307,27,o),
(344,-10,o),
(392,-10,cs),
(440,-10,o),
(477,27,o),
(477,76,cs),
(477,523,ls),
(477,572,o),
(440,610,o),
(391,610,cs),
(386,610,o),
(381,606,o),
(381,600,cs),
(381,594,o),
(386,590,o),
(391,590,cs),
(431,590,o),
(457,563,o),
(457,523,cs),
(457,510,l),
(439,510,ls),
(390,510,o),
(357,543,o),
(357,592,cs),
(357,708,ls),
(357,757,o),
(390,790,o),
(439,790,cs),
(455,790,ls),
(504,790,o),
(537,757,o),
(537,708,cs),
(537,0,ls),
(537,-6,o),
(542,-10,o),
(547,-10,cs),
(552,-10,o),
(557,-6,o),
(557,0,cs),
(557,708,ls),
(557,766,o),
(513,810,o),
(455,810,cs),
(439,810,ls),
(381,810,o),
(337,766,o),
(337,708,cs),
(337,592,ls),
(337,534,o),
(381,490,o),
(439,490,cs),
(457,490,l),
(457,76,ls),
(457,36,o),
(431,10,o),
(392,10,cs),
(353,10,o),
(327,36,o),
(327,76,cs),
(327,473,ls),
(327,558,o),
(269,610,o),
(196,610,cs),
(172,610,ls),
(96,610,o),
(40,554,o),
(40,478,cs),
(40,122,ls),
(40,48,o),
(92,-6,o),
(164,-10,cs),
(170,-10,l)
);
},
{
closed = 1;
nodes = (
(129,13,o),
(105,41,o),
(105,82,cs),
(105,118,ls),
(105,161,o),
(132,190,o),
(170,190,cs),
(208,190,o),
(235,161,o),
(235,118,cs),
(235,82,ls),
(235,39,o),
(210,10,o),
(171,10,cs),
(164,10,ls)
);
}
);
width = 597;
},
{
anchors = (
{
name = imatra;
pos = (527,600);
},
{
name = top;
pos = (299,600);
}
);
layerId = "831A5D7B-7350-4608-95DD-9715BE7B29F6";
shapes = (
{
closed = 1;
nodes = (
(172,-20,ls),
(226.4,-18.8,o),
(265.2,25.6,o),
(265.2,82,cs),
(265.2,118,ls),
(265.2,175.2,o),
(224.4,220,o),
(170,220,cs),
(115.6,220,o),
(75.2,175.2,o),
(75.2,118,cs),
(75.2,86.4,l),
(71.6,97.2,o),
(70,109.2,o),
(70,122,cs),
(70,478,ls),
(70,540.8,o),
(109.2,580,o),
(172,580,cs),
(196,580,ls),
(256.4,580,o),
(297.2,543.2,o),
(297.2,473.2,cs),
(297.2,76,ls),
(297.2,21.2,o),
(338,-20,o),
(392,-20,cs),
(446,-20,o),
(487.2,21.2,o),
(487.2,76,cs),
(487.2,523.2,ls),
(487.2,577.6,o),
(446,620,o),
(391.2,620,cs),
(380,620,o),
(371.2,611.2,o),
(371.2,600,cs),
(371.2,588.8,o),
(380,580,o),
(391.2,580,cs),
(426.4,580,o),
(447.2,558.8,o),
(447.2,523.2,cs),
(447.2,520,l),
(439.2,520,ls),
(394.4,520,o),
(367.2,547.2,o),
(367.2,592,cs),
(367.2,708,ls),
(367.2,752.8,o),
(394.4,780,o),
(439.2,780,cs),
(455.2,780,ls),
(499.6,780,o),
(527.2,752.8,o),
(527.2,708,cs),
(527.2,0,ls),
(527.2,-11.2,o),
(536,-20,o),
(547.2,-20,cs),
(558,-20,o),
(567.2,-11.2,o),
(567.2,0,cs),
(567.2,708,ls),
(567.2,772,o),
(518.8,820,o),
(455.2,820,cs),
(439.2,820,ls),
(375.2,820,o),
(327.2,772,o),
(327.2,708,cs),
(327.2,592,ls),
(327.2,528,o),
(375.2,480,o),
(439.2,480,cs),
(447.2,480,l),
(447.2,76,ls),
(447.2,40.4,o),
(426.8,20,o),
(392,20,cs),
(357.2,20,o),
(337.2,40.4,o),
(337.2,76,cs),
(337.2,473.2,ls),
(337.2,563.6,o),
(274.4,620,o),
(196,620,cs),
(172,620,ls),
(90,620,o),
(30,560,o),
(30,478,cs),
(30,122,ls),
(30,43.2,o),
(86.8,-15.6,o),
(162.8,-19.6,cs),
(165.2,-20,o),
(167.6,-20,o),
(170,-20,cs)
);
},
{
closed = 1;
nodes = (
(133.6,22.4,o),
(115.2,44.8,o),
(115.2,82,cs),
(115.2,118,ls),
(115.2,157.2,o),
(136,180,o),
(170,180,cs),
(204,180,o),
(225.2,157.2,o),
(225.2,118,cs),
(225.2,82,ls),
(225.2,42.8,o),
(205.2,20.4,o),
(170.8,20,cs),
(164.8,20,ls)
);
}
);
width = 597;
}
);
metricLeft = "ca-tamil";
metricRight = "ca-tamil";
},
{
glyphname = "la_iiMatra-tamil";
lastChange = "2023-04-08 14:10:14 +0000";
layers = (
{
anchors = (
{
name = imatra;
pos = (527,600);
},
{
name = top;
pos = (299,600);
}
);
layerId = m01;
shapes = (
{
closed = 0;
nodes = (
(547,708,l),
(547,761,o),
(508,800,o),
(455,800,cs),
(439,800,ls),
(386,800,o),
(347,761,o),
(347,708,cs),
(347,592,ls),
(347,539,o),
(386,500,o),
(439,500,cs),
(467,500,l)
);
},
{
pos = (95,0);
ref = chinnaVattam;
},
{
closed = 0;
nodes = (
(391,600,l),
(435,600,o),
(467,567,o),
(467,523,cs),
(467,76,ls),
(467,32,o),
(435,0,o),
(392,0,cs),
(349,0,o),
(317,32,o),
(317,76,cs),
(317,473,ls),
(317,552,o),
(264,600,o),
(196,600,cs),
(172,600,ls),
(101,600,o),
(50,549,o),
(50,478,cs),
(50,122,ls),
(50,51,o),
(102,0,o),
(172,0,c)
);
},
{
pos = (447,658);
ref = kokkiVattam;
}
);
width = 597;
},
{
anchors = (
{
name = imatra;
pos = (527,600);
},
{
name = top;
pos = (299,600);
}
);
layerId = "DF2AA445-C2A4-4E12-8ADA-5B4903805A97";
shapes = (
{
closed = 1;
nodes = (
(172,-10,ls),
(221,-9,o),
(255,31,o),
(255,82,cs),
(255,118,ls),
(255,170,o),
(219,210,o),
(170,210,cs),
(121,210,o),
(85,170,o),
(85,118,cs),
(85,82,ls),
(85,66,o),
(88,50,o),
(95,38,c),
(73,57,o),
(60,86,o),
(60,122,cs),
(60,478,ls),
(60,545,o),
(105,590,o),
(172,590,cs),
(196,590,ls),
(260,590,o),
(307,548,o),
(307,473,cs),
(307,76,ls),
(307,27,o),
(344,-10,o),
(392,-10,cs),
(440,-10,o),
(477,27,o),
(477,76,cs),
(477,523,ls),
(477,572,o),
(440,610,o),
(391,610,cs),
(386,610,o),
(381,606,o),
(381,600,cs),
(381,594,o),
(386,590,o),
(391,590,cs),
(431,590,o),
(457,563,o),
(457,523,cs),
(457,510,l),
(439,510,ls),
(390,510,o),
(357,543,o),
(357,592,cs),
(357,708,ls),
(357,757,o),
(390,790,o),
(439,790,cs),
(455,790,ls),
(481,790,o),
(503,780,o),
(517,764,c),
(511,767,o),
(504,768,o),
(497,768,cs),
(465,768,o),
(437,740,o),
(437,708,cs),
(437,676,o),
(465,648,o),
(497,648,cs),
(529,648,o),
(557,676,o),
(557,708,cs),
(557,766,o),
(513,810,o),
(455,810,cs),
(439,810,ls),
(381,810,o),
(337,766,o),
(337,708,cs),
(337,592,ls),
(337,534,o),
(381,490,o),
(439,490,cs),
(457,490,l),
(457,76,ls),
(457,36,o),
(431,10,o),
(392,10,cs),
(353,10,o),
(327,36,o),
(327,76,cs),
(327,473,ls),
(327,558,o),
(269,610,o),
(196,610,cs),
(172,610,ls),
(96,610,o),
(40,554,o),
(40,478,cs),
(40,122,ls),
(40,48,o),
(92,-6,o),
(164,-10,cs),
(170,-10,l)
);
},
{
closed = 1;
nodes = (
(129,13,o),
(105,41,o),
(105,82,cs),
(105,118,ls),
(105,161,o),
(132,190,o),
(170,190,cs),
(208,190,o),
(235,161,o),
(235,118,cs),
(235,82,ls),
(235,39,o),
(210,10,o),
(171,10,cs),
(164,10,ls)
);
},
{
closed = 1;
nodes = (
(474,668,o),
(457,685,o),
(457,708,cs),
(457,731,o),
(474,748,o),
(497,748,cs),
(520,748,o),
(537,731,o),
(537,708,cs),
(537,685,o),
(520,668,o),
(497,668,cs)
);
}
);
width = 597;
},
{
anchors = (
{
name = imatra;
pos = (527,600);
},
{
name = top;
pos = (299,600);
}
);
layerId = "831A5D7B-7350-4608-95DD-9715BE7B29F6";
shapes = (
{
closed = 1;
nodes = (
(172,-20,ls),
(226.4,-18.8,o),
(265.2,25.6,o),
(265.2,82,cs),
(265.2,118,ls),
(265.2,175.2,o),
(224.4,220,o),
(170,220,cs),
(115.6,220,o),
(75.2,175.2,o),
(75.2,118,cs),
(75.2,86.4,l),
(71.6,97.2,o),
(70,109.2,o),
(70,122,cs),
(70,478,ls),
(70,540.8,o),
(109.2,580,o),
(172,580,cs),
(196,580,ls),
(256.4,580,o),
(297.2,543.2,o),
(297.2,473.2,cs),
(297.2,76,ls),
(297.2,21.2,o),
(338,-20,o),
(392,-20,cs),
(446,-20,o),
(487.2,21.2,o),
(487.2,76,cs),
(487.2,523.2,ls),
(487.2,577.6,o),
(446,620,o),
(391.2,620,cs),
(380,620,o),
(371.2,611.2,o),
(371.2,600,cs),
(371.2,588.8,o),
(380,580,o),
(391.2,580,cs),
(426.4,580,o),
(447.2,558.8,o),
(447.2,523.2,cs),
(447.2,520,l),
(439.2,520,ls),
(394.4,520,o),
(367.2,547.2,o),
(367.2,592,cs),
(367.2,708,ls),
(367.2,752.8,o),
(394.4,780,o),
(439.2,780,cs),
(455.2,780,ls),
(464.8,780,o),
(473.6,778.8,o),
(481.6,776.4,c),
(450.8,768.8,o),
(427.2,740.8,o),
(427.2,708,cs),
(427.2,670,o),
(459.2,638,o),
(497.2,638,cs),
(534.8,638,o),
(567.2,670,o),
(567.2,708,cs),
(567.2,772,o),
(518.8,820,o),
(455.2,820,cs),
(439.2,820,ls),
(375.2,820,o),
(327.2,772,o),
(327.2,708,cs),
(327.2,592,ls),
(327.2,528,o),
(375.2,480,o),
(439.2,480,cs),
(447.2,480,l),
(447.2,76,ls),
(447.2,40.4,o),
(426.8,20,o),
(392,20,cs),
(357.2,20,o),
(337.2,40.4,o),
(337.2,76,cs),
(337.2,473.2,ls),
(337.2,563.6,o),
(274.4,620,o),
(196,620,cs),
(172,620,ls),
(90,620,o),
(30,560,o),
(30,478,cs),
(30,122,ls),
(30,43.2,o),
(86.8,-15.6,o),
(162.8,-19.6,cs),
(165.2,-20,o),
(167.6,-20,o),
(170,-20,cs)
);
},
{
closed = 1;
nodes = (
(133.6,22.4,o),
(115.2,44.8,o),
(115.2,82,cs),
(115.2,118,ls),
(115.2,157.2,o),
(136,180,o),
(170,180,cs),
(204,180,o),
(225.2,157.2,o),
(225.2,118,cs),
(225.2,82,ls),
(225.2,42.8,o),
(205.2,20.4,o),
(170.8,20,cs),
(164.8,20,ls)
);
},
{
closed = 1;
nodes = (
(478.4,678,o),
(467.2,689.2,o),
(467.2,708,cs),
(467.2,726.8,o),
(478.4,738,o),
(497.2,738,cs),
(515.6,738,o),
(526.8,726.8,o),
(526.8,708,c),
(527.2,708,l),
(527.2,689.2,o),
(515.6,678,o),
(497.2,678,cs)
);
}
);
width = 597;
}
);
metricLeft = "ca-tamil";
metricRight = "ca-tamil";
},
{
glyphname = "la_uMatra-tamil";
lastChange = "2023-04-08 14:10:14 +0000";
layers = (
{
anchors = (
{
name = imatra;
pos = (548,600);
},
{
name = top;
pos = (309,600);
}
);
layerId = m01;
shapes = (
{
pos = (1,0);
ref = "la-tamil";
},
{
closed = 0;
nodes = (
(393,0,l),
(393,-148,ls),
(393,-236,o),
(328,-301,o),
(240,-301,cs),
(152,-301,ls),
(93,-301,o),
(50,-258,o),
(50,-199,cs),
(50,-162,ls),
(50,-103,o),
(93,-60,o),
(152,-60,cs),
(568,-60,l),
(568,450,l)
);
}
);
width = 618;
},
{
anchors = (
{
name = imatra;
pos = (548,600);
},
{
name = top;
pos = (309,600);
}
);
layerId = "DF2AA445-C2A4-4E12-8ADA-5B4903805A97";
shapes = (
{
closed = 1;
nodes = (
(240,-311,ls),
(333,-311,o),
(403,-241,o),
(403,-148,cs),
(403,-70,l),
(568,-70,ls),
(574,-70,o),
(578,-66,o),
(578,-60,cs),
(578,450,ls),
(578,456,o),
(574,460,o),
(568,460,cs),
(562,460,o),
(558,456,o),
(558,450,cs),
(558,-50,l),
(403,-50,l),
(403,-10,l),
(446,-5,o),
(478,30,o),
(478,76,cs),
(478,523,ls),
(478,572,o),
(442,610,o),
(392,610,cs),
(366,610,ls),
(360,610,o),
(356,606,o),
(356,600,cs),
(356,594,o),
(360,590,o),
(366,590,cs),
(392,590,ls),
(432,590,o),
(458,563,o),
(458,523,cs),
(458,76,ls),
(458,36,o),
(432,10,o),
(393,10,cs),
(354,10,o),
(328,36,o),
(328,76,cs),
(328,473,ls),
(328,558,o),
(270,610,o),
(197,610,cs),
(173,610,ls),
(97,610,o),
(41,554,o),
(41,478,cs),
(41,122,ls),
(41,48,o),
(94,-6,o),
(165,-10,cs),
(171,-10,l),
(173,-10,ls),
(222,-9,o),
(256,31,o),
(256,82,cs),
(256,118,ls),
(256,170,o),
(220,210,o),
(171,210,cs),
(122,210,o),
(86,170,o),
(86,118,cs),
(86,82,ls),
(86,66,o),
(90,50,o),
(96,38,c),
(74,57,o),
(61,86,o),
(61,122,cs),
(61,478,ls),
(61,545,o),
(106,590,o),
(173,590,cs),
(197,590,ls),
(261,590,o),
(308,548,o),
(308,473,cs),
(308,76,ls),
(308,30,o),
(340,-5,o),
(383,-10,c),
(383,-50,l),
(152,-50,ls),
(88,-50,o),
(40,-98,o),
(40,-162,cs),
(40,-199,ls),
(40,-263,o),
(88,-311,o),
(152,-311,cs)
);
},
{
closed = 1;
nodes = (
(97,-291,o),
(60,-254,o),
(60,-199,cs),
(60,-162,ls),
(60,-107,o),
(97,-70,o),
(152,-70,cs),
(383,-70,l),
(383,-148,ls),
(383,-232,o),
(324,-291,o),
(240,-291,cs),
(152,-291,ls)
);
},
{
closed = 1;
nodes = (
(130,13,o),
(106,41,o),
(106,82,cs),
(106,118,ls),
(106,161,o),
(132,190,o),
(171,190,cs),
(210,190,o),
(236,161,o),
(236,118,cs),
(236,82,ls),
(236,39,o),
(211,10,o),
(172,10,cs),
(166,10,ls)
);
}
);
width = 618;
},
{
anchors = (
{
name = imatra;
pos = (548,600);
},
{
name = top;
pos = (309,600);
}
);
layerId = "831A5D7B-7350-4608-95DD-9715BE7B29F6";
shapes = (
{
closed = 1;
nodes = (
(240,-320.8,ls),
(338.8,-320.8,o),
(413.2,-246.8,o),
(413.2,-148,cs),
(413.2,-80,l),
(568,-80,ls),
(581.2,-80,o),
(588,-72.8,o),
(588,-60,cs),
(588,450,ls),
(588,461.2,o),
(579.2,470,o),
(568,470,cs),
(556.8,470,o),
(548,461.2,o),
(548,450,cs),
(548,-40,l),
(413.2,-40,l),
(413.2,-18,l),
(456.8,-9.2,o),
(488,28,o),
(488,76,cs),
(488,523.2,ls),
(488,577.6,o),
(447.2,620,o),
(392,620,cs),
(366,620,ls),
(354.8,620,o),
(346,611.2,o),
(346,600,cs),
(346,588.8,o),
(354.8,580,o),
(366,580,cs),
(392,580,ls),
(427.6,580,o),
(448,558.8,o),
(448,523.2,cs),
(448,76,ls),
(448,40.4,o),
(427.6,20,o),
(393.2,20,cs),
(358.4,20,o),
(338,40.4,o),
(338,76,cs),
(338,473.2,ls),
(338,563.6,o),
(275.2,620,o),
(197.2,620,cs),
(173.2,620,ls),
(91.2,620,o),
(31.2,560,o),
(31.2,478,cs),
(31.2,122,ls),
(31.2,43.2,o),
(87.6,-15.6,o),
(164,-19.6,cs),
(166.4,-20,o),
(168.8,-20,o),
(171.2,-20,cs),
(173.2,-20,ls),
(227.6,-18.8,o),
(266,25.6,o),
(266,82,cs),
(266,118,ls),
(266,175.2,o),
(225.6,220,o),
(171.2,220,cs),
(116.4,220,o),
(76,175.2,o),
(76,118,cs),
(76,86.4,l),
(72.8,97.2,o),
(71.2,109.2,o),
(71.2,122,cs),
(71.2,478,ls),
(71.2,540.8,o),
(110.4,580,o),
(173.2,580,cs),
(197.2,580,ls),
(257.2,580,o),
(298,543.2,o),
(298,473.2,cs),
(298,76,ls),
(298,28,o),
(329.2,-9.2,o),
(373.2,-18,c),
(373.2,-40,l),
(152,-40,ls),
(82,-40,o),
(30,-92,o),
(30,-162,cs),
(30,-198.8,ls),
(30,-268.8,o),
(82,-320.8,o),
(152,-320.8,cs)
);
},
{
closed = 1;
nodes = (
(101.2,-280.8,o),
(70,-249.6,o),
(70,-198.8,cs),
(70,-162,ls),
(70,-111.2,o),
(101.2,-80,o),
(152,-80,cs),
(373.2,-80,l),
(373.2,-148,ls),
(373.2,-227.6,o),
(319.6,-280.8,o),
(240,-280.8,cs),
(152,-280.8,ls)
);
},
{
closed = 1;
nodes = (
(134.8,22.4,o),
(116,44.8,o),
(116,82,cs),
(116,118,ls),
(116,157.2,o),
(136.8,180,o),
(171.2,180,cs),
(205.2,180,o),
(226,157.2,o),
(226,118,cs),
(226,82,ls),
(226,42.8,o),
(206.4,20.4,o),
(172,20,cs),
(165.6,20,ls)
);
}
);
width = 618;
}
);
metricLeft = "ca-tamil";
metricRight = "ca-tamil";
},
{
glyphname = "lla_uMatra-tamil";
lastChange = "2023-04-08 14:10:14 +0000";
layers = (
{
anchors = (
{
name = imatra;
pos = (757,600);
},
{
name = top;
pos = (414,600);
}
);
layerId = m01;
shapes = (
{
pos = (100,0);
ref = "lla-tamil";
},
{
closed = 0;
nodes = (
(50,247,l),
(50,13,ls),
(50,-75,o),
(115,-140,o),
(203,-140,cs),
(619,-140,ls),
(746,-140,o),
(777,-47,o),
(777,37,cs),
(777,194,o),
(777,247,o),
(678,247,cs),
(618,247,o),
(597,207,o),
(597,162,c)
);
}
);
width = 827;
},
{
anchors = (
{
name = imatra;
pos = (757,600);
},
{
name = top;
pos = (414,600);
}
);
layerId = "DF2AA445-C2A4-4E12-8ADA-5B4903805A97";
shapes = (
{
closed = 1;
nodes = (
(619,-150,ls),
(754,-150,o),
(787,-50,o),
(787,37,cs),
(787,194,o),
(787,257,o),
(678,257,cs),
(644,257,o),
(621,245,o),
(607,227,c),
(607,590,l),
(697,590,ls),
(702,590,o),
(707,594,o),
(707,600,cs),
(707,606,o),
(702,610,o),
(697,610,cs),
(417,610,ls),
(411,610,o),
(407,606,o),
(407,600,cs),
(407,550,l),
(384,588,o),
(343,610,o),
(296,610,cs),
(272,610,ls),
(196,610,o),
(140,554,o),
(140,478,cs),
(140,122,ls),
(140,48,o),
(192,-6,o),
(264,-10,cs),
(270,-10,l),
(272,-10,ls),
(321,-9,o),
(355,31,o),
(355,82,cs),
(355,118,ls),
(355,170,o),
(319,210,o),
(270,210,cs),
(221,210,o),
(185,170,o),
(185,118,cs),
(185,82,ls),
(185,66,o),
(188,50,o),
(195,38,c),
(173,57,o),
(160,86,o),
(160,122,cs),
(160,478,ls),
(160,545,o),
(205,590,o),
(272,590,cs),
(296,590,ls),
(360,590,o),
(407,548,o),
(407,473,cs),
(407,200,ls),
(407,194,o),
(412,190,o),
(417,190,cs),
(422,190,o),
(427,194,o),
(427,200,cs),
(427,590,l),
(587,590,l),
(587,0,ls),
(587,-6,o),
(592,-10,o),
(597,-10,cs),
(602,-10,o),
(607,-6,o),
(607,0,cs),
(607,162,ls),
(607,204,o),
(624,237,o),
(678,237,cs),
(767,237,o),
(767,194,o),
(767,37,cs),
(767,-45,o),
(739,-130,o),
(619,-130,cs),
(203,-130,ls),
(119,-130,o),
(60,-71,o),
(60,13,cs),
(60,247,ls),
(60,252,o),
(56,257,o),
(50,257,cs),
(44,257,o),
(40,252,o),
(40,247,cs),
(40,13,ls),
(40,-80,o),
(110,-150,o),
(203,-150,cs)
);
},
{
closed = 1;
nodes = (
(229,13,o),
(205,41,o),
(205,82,cs),
(205,118,ls),
(205,161,o),
(232,190,o),
(270,190,cs),
(308,190,o),
(335,161,o),
(335,118,cs),
(335,82,ls),
(335,39,o),
(310,10,o),
(271,10,cs),
(264,10,ls)
);
}
);
width = 827;
},
{
anchors = (
{
name = imatra;
pos = (757,600);
},
{
name = top;
pos = (414,600);
}
);
layerId = "831A5D7B-7350-4608-95DD-9715BE7B29F6";
shapes = (
{
closed = 1;
nodes = (
(619.2,-160,ls),
(761.2,-160,o),
(797.2,-53.6,o),
(797.2,37.2,cs),
(797.2,194,o),
(797.2,267.2,o),
(678,267.2,cs),
(652.4,267.2,o),
(632,260.8,o),
(617.2,250,c),
(617.2,580,l),
(697.2,580,ls),
(708,580,o),
(717.2,588.8,o),
(717.2,600,cs),
(717.2,611.2,o),
(708,620,o),
(697.2,620,cs),
(417.2,620,ls),
(404.4,620,o),
(397.2,613.2,o),
(397.2,600,cs),
(397.2,579.2,l),
(371.6,605.6,o),
(335.6,620,o),
(296,620,cs),
(272,620,ls),
(190,620,o),
(130,560,o),
(130,478,cs),
(130,122,ls),
(130,43.2,o),
(186.8,-15.6,o),
(262.8,-19.6,cs),
(265.2,-20,o),
(267.6,-20,o),
(270,-20,cs),
(272,-20,ls),
(326.4,-18.8,o),
(365.2,25.6,o),
(365.2,82,cs),
(365.2,118,ls),
(365.2,175.2,o),
(324.4,220,o),
(270,220,cs),
(215.6,220,o),
(175.2,175.2,o),
(175.2,118,cs),
(175.2,86.4,l),
(171.6,97.2,o),
(170,109.2,o),
(170,122,cs),
(170,478,ls),
(170,540.8,o),
(209.2,580,o),
(272,580,cs),
(296,580,ls),
(356.4,580,o),
(397.2,543.2,o),
(397.2,473.2,cs),
(397.2,200,ls),
(397.2,188.8,o),
(406,180,o),
(417.2,180,cs),
(428,180,o),
(437.2,188.8,o),
(437.2,200,cs),
(437.2,580,l),
(577.2,580,l),
(577.2,0,ls),
(577.2,-11.2,o),
(586,-20,o),
(597.2,-20,cs),
(608,-20,o),
(617.2,-11.2,o),
(617.2,0,cs),
(617.2,162,ls),
(617.2,202,o),
(630,227.2,o),
(678,227.2,cs),
(757.2,227.2,o),
(757.2,194,o),
(757.2,37.2,cs),
(757.2,-43.6,o),
(731.6,-120,o),
(619.2,-120,cs),
(203.2,-120,ls),
(123.2,-120,o),
(70,-66.8,o),
(70,13.2,cs),
(70,247.2,ls),
(70,258,o),
(61.2,267.2,o),
(50,267.2,cs),
(38.8,267.2,o),
(30,258,o),
(30,247.2,cs),
(30,13.2,ls),
(30,-86,o),
(104,-160,o),
(203.2,-160,cs)
);
},
{
closed = 1;
nodes = (
(233.6,22.4,o),
(215.2,44.8,o),
(215.2,82,cs),
(215.2,118,ls),
(215.2,157.2,o),
(236,180,o),
(270,180,cs),
(304,180,o),
(325.2,157.2,o),
(325.2,118,cs),
(325.2,82,ls),
(325.2,42.8,o),
(305.2,20.4,o),
(270.8,20,cs),
(264.8,20,ls)
);
}
);
width = 827;
}
);
metricLeft = "ca-tamil";
metricRight = "ca-tamil";
},
{
glyphname = "lla_uuMatra-tamil";
lastChange = "2023-04-08 14:10:14 +0000";
layers = (
{
anchors = (
{
name = imatra;
pos = (817,600);
},
{
name = top;
pos = (444,600);
}
);
layerId = m01;
shapes = (
{
pos = (160,0);
ref = "lla-tamil";
},
{
closed = 0;
nodes = (
(50,247,l),
(50,13,ls),
(50,-75,o),
(115,-140,o),
(203,-140,cs),
(679,-140,ls),
(806,-140,o),
(837,-47,o),
(837,37,cs),
(837,194,o),
(837,247,o),
(738,247,cs),
(678,247,o),
(657,207,o),
(657,162,c)
);
},
{
pos = (50,197);
ref = kokkiVattam;
}
);
width = 887;
},
{
anchors = (
{
name = imatra;
pos = (817,600);
},
{
name = top;
pos = (444,600);
}
);
layerId = "DF2AA445-C2A4-4E12-8ADA-5B4903805A97";
shapes = (
{
closed = 1;
nodes = (
(679,-150,ls),
(814,-150,o),
(847,-50,o),
(847,37,cs),
(847,194,o),
(847,257,o),
(738,257,cs),
(704,257,o),
(681,245,o),
(667,227,c),
(667,590,l),
(757,590,ls),
(762,590,o),
(767,594,o),
(767,600,cs),
(767,606,o),
(762,610,o),
(757,610,cs),
(477,610,ls),
(471,610,o),
(467,606,o),
(467,600,cs),
(467,550,l),
(444,588,o),
(403,610,o),
(356,610,cs),
(332,610,ls),
(256,610,o),
(200,554,o),
(200,478,cs),
(200,122,ls),
(200,48,o),
(252,-6,o),
(324,-10,cs),
(330,-10,l),
(332,-10,ls),
(381,-9,o),
(415,31,o),
(415,82,cs),
(415,118,ls),
(415,170,o),
(379,210,o),
(330,210,cs),
(281,210,o),
(245,170,o),
(245,118,cs),
(245,82,ls),
(245,66,o),
(248,50,o),
(255,38,c),
(233,57,o),
(220,86,o),
(220,122,cs),
(220,478,ls),
(220,545,o),
(265,590,o),
(332,590,cs),
(356,590,ls),
(420,590,o),
(467,548,o),
(467,473,cs),
(467,200,ls),
(467,194,o),
(472,190,o),
(477,190,cs),
(482,190,o),
(487,194,o),
(487,200,cs),
(487,590,l),
(647,590,l),
(647,0,ls),
(647,-6,o),
(652,-10,o),
(657,-10,cs),
(662,-10,o),
(667,-6,o),
(667,0,cs),
(667,162,ls),
(667,204,o),
(684,237,o),
(738,237,cs),
(827,237,o),
(827,194,o),
(827,37,cs),
(827,-45,o),
(799,-130,o),
(679,-130,cs),
(203,-130,ls),
(119,-130,o),
(60,-71,o),
(60,13,cs),
(60,203,l),
(71,193,o),
(85,187,o),
(100,187,cs),
(132,187,o),
(160,215,o),
(160,247,cs),
(160,279,o),
(132,307,o),
(100,307,cs),
(68,307,o),
(40,279,o),
(40,247,cs),
(40,13,ls),
(40,-80,o),
(110,-150,o),
(203,-150,cs)
);
},
{
closed = 1;
nodes = (
(77,207,o),
(60,224,o),
(60,247,cs),
(60,270,o),
(77,287,o),
(100,287,cs),
(123,287,o),
(140,270,o),
(140,247,cs),
(140,224,o),
(123,207,o),
(100,207,cs)
);
},
{
closed = 1;
nodes = (
(289,13,o),
(265,41,o),
(265,82,cs),
(265,118,ls),
(265,161,o),
(292,190,o),
(330,190,cs),
(368,190,o),
(395,161,o),
(395,118,cs),
(395,82,ls),
(395,39,o),
(370,10,o),
(331,10,cs),
(324,10,ls)
);
}
);
width = 887;
},
{
anchors = (
{
name = imatra;
pos = (817,600);
},
{
name = top;
pos = (444,600);
}
);
layerId = "831A5D7B-7350-4608-95DD-9715BE7B29F6";
shapes = (
{
closed = 1;
nodes = (
(679.2,-160,ls),
(821.2,-160,o),
(857.2,-53.6,o),
(857.2,37.2,cs),
(857.2,194,o),
(857.2,267.2,o),
(738,267.2,cs),
(712.4,267.2,o),
(692,260.8,o),
(677.2,250,c),
(677.2,580,l),
(757.2,580,ls),
(768,580,o),
(777.2,588.8,o),
(777.2,600,cs),
(777.2,611.2,o),
(768,620,o),
(757.2,620,cs),
(477.2,620,ls),
(464.4,620,o),
(457.2,613.2,o),
(457.2,600,cs),
(457.2,579.2,l),
(431.6,605.6,o),
(395.6,620,o),
(356,620,cs),
(332,620,ls),
(250,620,o),
(190,560,o),
(190,478,cs),
(190,122,ls),
(190,43.2,o),
(246.8,-15.6,o),
(322.8,-19.6,cs),
(325.2,-20,o),
(327.6,-20,o),
(330,-20,cs),
(332,-20,ls),
(386.4,-18.8,o),
(425.2,25.6,o),
(425.2,82,cs),
(425.2,118,ls),
(425.2,175.2,o),
(384.4,220,o),
(330,220,cs),
(275.6,220,o),
(235.2,175.2,o),
(235.2,118,cs),
(235.2,86.4,l),
(231.6,97.2,o),
(230,109.2,o),
(230,122,cs),
(230,478,ls),
(230,540.8,o),
(269.2,580,o),
(332,580,cs),
(356,580,ls),
(416.4,580,o),
(457.2,543.2,o),
(457.2,473.2,cs),
(457.2,200,ls),
(457.2,188.8,o),
(466,180,o),
(477.2,180,cs),
(488,180,o),
(497.2,188.8,o),
(497.2,200,cs),
(497.2,580,l),
(637.2,580,l),
(637.2,0,ls),
(637.2,-11.2,o),
(646,-20,o),
(657.2,-20,cs),
(668,-20,o),
(677.2,-11.2,o),
(677.2,0,cs),
(677.2,162,ls),
(677.2,202,o),
(690,227.2,o),
(738,227.2,cs),
(817.2,227.2,o),
(817.2,194,o),
(817.2,37.2,cs),
(817.2,-43.6,o),
(791.6,-120,o),
(679.2,-120,cs),
(203.2,-120,ls),
(123.2,-120,o),
(70,-66.8,o),
(70,13.2,cs),
(70,184,l),
(79.2,179.6,o),
(89.2,177.2,o),
(100,177.2,cs),
(138,177.2,o),
(170,209.2,o),
(170,247.2,cs),
(170,284.8,o),
(138,317.2,o),
(100,317.2,cs),
(62,317.2,o),
(30,284.8,o),
(30,247.2,cs),
(30,13.2,ls),
(30,-86,o),
(104,-160,o),
(203.2,-160,cs)
);
},
{
closed = 1;
nodes = (
(81.2,217.2,o),
(70,228.4,o),
(70,247.2,cs),
(70,265.6,o),
(81.2,277.2,o),
(100,277.2,cs),
(118.8,277.2,o),
(130,265.6,o),
(130,247.2,cs),
(130,228.4,o),
(118.8,217.2,o),
(100,217.2,cs)
);
},
{
closed = 1;
nodes = (
(293.6,22.4,o),
(275.2,44.8,o),
(275.2,82,cs),
(275.2,118,ls),
(275.2,157.2,o),
(296,180,o),
(330,180,cs),
(364,180,o),
(385.2,157.2,o),
(385.2,118,cs),
(385.2,82,ls),
(385.2,42.8,o),
(365.2,20.4,o),
(330.8,20,cs),
(324.8,20,ls)
);
}
);
width = 887;
}
);
metricLeft = "ca-tamil";
metricRight = "ca-tamil";
},
{
glyphname = "llla_uMatra-tamil";
lastChange = "2023-04-08 14:10:14 +0000";
layers = (
{
anchors = (
{
name = imatra;
pos = (480,600);
},
{
name = top;
pos = (275,600);
}
);
layerId = m01;
shapes = (
{
pos = (100,0);
ref = "ma-tamil";
},
{
closed = 0;
nodes = (
(50,450,l),
(50,-148,ls),
(50,-219,o),
(101,-270,o),
(172,-270,cs),
(275,-270,ls),
(325,-270,o),
(362,-232,o),
(362,-181,c)
);
},
{
closed = 0;
nodes = (
(325,-2,l),
(325,-55,o),
(364,-94,o),
(417,-94,cs),
(470,-94,l)
);
},
{
closed = 0;
nodes = (
(362,-183,l),
(362,-132,o),
(399,-94,o),
(449,-94,c)
);
}
);
width = 550;
},
{
anchors = (
{
name = imatra;
pos = (480,600);
},
{
name = top;
pos = (275,600);
}
);
layerId = "DF2AA445-C2A4-4E12-8ADA-5B4903805A97";
shapes = (
{
closed = 1;
nodes = (
(275,-280,ls),
(330,-280,o),
(371,-238,o),
(372,-183,cs),
(372,-136,o),
(403,-104,o),
(449,-104,cs),
(470,-104,ls),
(476,-104,o),
(480,-100,o),
(480,-94,cs),
(480,-88,o),
(476,-84,o),
(470,-84,cs),
(417,-84,ls),
(371,-84,o),
(339,-54,o),
(335,-10,c),
(411,-10,ls),
(467,-10,o),
(510,33,o),
(510,89,cs),
(510,511,ls),
(510,567,o),
(468,610,o),
(413,610,cs),
(358,610,o),
(315,567,o),
(315,511,cs),
(315,10,l),
(160,10,l),
(160,600,ls),
(160,606,o),
(156,610,o),
(150,610,cs),
(144,610,o),
(140,606,o),
(140,600,cs),
(140,0,ls),
(140,-6,o),
(144,-10,o),
(150,-10,cs),
(315,-10,l),
(318,-56,o),
(350,-92,o),
(393,-101,c),
(368,-118,o),
(353,-147,o),
(352,-181,cs),
(352,-228,o),
(321,-260,o),
(275,-260,cs),
(172,-260,ls),
(105,-260,o),
(60,-215,o),
(60,-148,cs),
(60,450,ls),
(60,456,o),
(56,460,o),
(50,460,cs),
(44,460,o),
(40,456,o),
(40,450,cs),
(40,-148,ls),
(40,-224,o),
(96,-280,o),
(172,-280,cs)
);
},
{
closed = 1;
nodes = (
(335,511,ls),
(335,558,o),
(367,590,o),
(413,590,cs),
(459,590,o),
(490,558,o),
(490,511,cs),
(490,89,ls),
(490,42,o),
(458,10,o),
(411,10,cs),
(335,10,l)
);
}
);
width = 550;
},
{
anchors = (
{
name = imatra;
pos = (480,600);
},
{
name = top;
pos = (275,600);
}
);
layerId = "831A5D7B-7350-4608-95DD-9715BE7B29F6";
shapes = (
{
closed = 1;
nodes = (
(275.2,-290,ls),
(335.2,-290,o),
(381.2,-243.6,o),
(382,-182.8,cs),
(382,-140,o),
(407.6,-114,o),
(449.2,-114,cs),
(470,-114,ls),
(481.2,-114,o),
(490,-105.2,o),
(490,-94,cs),
(490,-82.8,o),
(481.2,-74,o),
(470,-74,cs),
(417.2,-74,ls),
(378.8,-74,o),
(353.2,-54,o),
(346.8,-20,c),
(411.2,-20,ls),
(472.8,-20,o),
(520,27.2,o),
(520,89.2,cs),
(520,511.2,ls),
(520,572.8,o),
(474,620,o),
(413.2,620,cs),
(352,620,o),
(305.2,572.8,o),
(305.2,511.2,cs),
(305.2,20,l),
(170,20,l),
(170,600,ls),
(170,611.2,o),
(161.2,620,o),
(150,620,cs),
(138.8,620,o),
(130,611.2,o),
(130,600,cs),
(130,0,ls),
(130,-12.8,o),
(136.8,-20,o),
(150,-20,cs),
(306.4,-20,l),
(312,-59.6,o),
(337.2,-91.2,o),
(372.4,-105.6,c),
(354,-124.4,o),
(342.4,-151.2,o),
(342,-180.8,cs),
(342,-224,o),
(316.4,-250,o),
(275.2,-250,cs),
(172,-250,ls),
(109.2,-250,o),
(70,-210.8,o),
(70,-148,cs),
(70,450,ls),
(70,461.2,o),
(61.2,470,o),
(50,470,cs),
(38.8,470,o),
(30,461.2,o),
(30,450,cs),
(30,-148,ls),
(30,-230,o),
(90,-290,o),
(172,-290,cs)
);
},
{
closed = 1;
nodes = (
(345.2,511.2,ls),
(345.2,553.6,o),
(371.2,580,o),
(413.2,580,cs),
(454.4,580,o),
(480,554,o),
(480,511.2,cs),
(480,89.2,ls),
(480,46.4,o),
(453.6,20,o),
(411.2,20,cs),
(345.2,20,l)
);
}
);
width = 550;
}
);
metricLeft = "ca-tamil";
metricRight = "ca-tamil";
},
{
glyphname = "llla_uuMatra-tamil";
lastChange = "2023-04-08 14:10:14 +0000";
layers = (
{
anchors = (
{
name = imatra;
pos = (530,600);
},
{
name = top;
pos = (300,600);
}
);
layerId = m01;
shapes = (
{
pos = (150,0);
ref = "ma-tamil";
},
{
closed = 0;
nodes = (
(50,400,l),
(50,-148,ls),
(50,-219,o),
(101,-270,o),
(172,-270,cs),
(325,-270,ls),
(375,-270,o),
(412,-232,o),
(412,-181,c)
);
},
{
closed = 0;
nodes = (
(375,-2,l),
(375,-55,o),
(414,-94,o),
(467,-94,cs),
(520,-94,l)
);
},
{
closed = 0;
nodes = (
(412,-183,l),
(412,-132,o),
(449,-94,o),
(499,-94,c)
);
},
{
pos = (50,350);
ref = kokkiVattam;
}
);
width = 600;
},
{
anchors = (
{
name = imatra;
pos = (530,600);
},
{
name = top;
pos = (300,600);
}
);
layerId = "DF2AA445-C2A4-4E12-8ADA-5B4903805A97";
shapes = (
{
closed = 1;
nodes = (
(325,-280,ls),
(380,-280,o),
(421,-238,o),
(422,-183,cs),
(422,-136,o),
(453,-104,o),
(499,-104,cs),
(520,-104,ls),
(526,-104,o),
(530,-100,o),
(530,-94,cs),
(530,-88,o),
(526,-84,o),
(520,-84,cs),
(467,-84,ls),
(421,-84,o),
(389,-54,o),
(385,-10,c),
(461,-10,ls),
(517,-10,o),
(560,33,o),
(560,89,cs),
(560,511,ls),
(560,567,o),
(518,610,o),
(463,610,cs),
(408,610,o),
(365,567,o),
(365,511,cs),
(365,10,l),
(210,10,l),
(210,600,ls),
(210,606,o),
(206,610,o),
(200,610,cs),
(194,610,o),
(190,606,o),
(190,600,cs),
(190,0,ls),
(190,-6,o),
(194,-10,o),
(200,-10,cs),
(365,-10,l),
(368,-56,o),
(400,-92,o),
(443,-101,c),
(418,-118,o),
(403,-147,o),
(402,-181,cs),
(402,-228,o),
(371,-260,o),
(325,-260,cs),
(172,-260,ls),
(105,-260,o),
(60,-215,o),
(60,-148,cs),
(60,356,l),
(71,346,o),
(85,340,o),
(100,340,cs),
(132,340,o),
(160,368,o),
(160,400,cs),
(160,432,o),
(132,460,o),
(100,460,cs),
(68,460,o),
(40,432,o),
(40,400,cs),
(40,-148,ls),
(40,-224,o),
(96,-280,o),
(172,-280,cs)
);
},
{
closed = 1;
nodes = (
(77,360,o),
(60,377,o),
(60,400,cs),
(60,423,o),
(77,440,o),
(100,440,cs),
(123,440,o),
(140,423,o),
(140,400,cs),
(140,377,o),
(123,360,o),
(100,360,cs)
);
},
{
closed = 1;
nodes = (
(385,511,ls),
(385,558,o),
(417,590,o),
(463,590,cs),
(509,590,o),
(540,558,o),
(540,511,cs),
(540,89,ls),
(540,42,o),
(508,10,o),
(461,10,cs),
(385,10,l)
);
}
);
width = 600;
},
{
anchors = (
{
name = imatra;
pos = (530,600);
},
{
name = top;
pos = (300,600);
}
);
layerId = "831A5D7B-7350-4608-95DD-9715BE7B29F6";
shapes = (
{
closed = 1;
nodes = (
(325.2,-290,ls),
(385.2,-290,o),
(431.2,-243.6,o),
(432,-182.8,cs),
(432,-140,o),
(457.6,-114,o),
(499.2,-114,cs),
(520,-114,ls),
(531.2,-114,o),
(540,-105.2,o),
(540,-94,cs),
(540,-82.8,o),
(531.2,-74,o),
(520,-74,cs),
(467.2,-74,ls),
(428.8,-74,o),
(403.2,-54,o),
(396.8,-20,c),
(461.2,-20,ls),
(522.8,-20,o),
(570,27.2,o),
(570,89.2,cs),
(570,511.2,ls),
(570,572.8,o),
(524,620,o),
(463.2,620,cs),
(402,620,o),
(355.2,572.8,o),
(355.2,511.2,cs),
(355.2,20,l),
(220,20,l),
(220,600,ls),
(220,611.2,o),
(211.2,620,o),
(200,620,cs),
(188.8,620,o),
(180,611.2,o),
(180,600,cs),
(180,0,ls),
(180,-12.8,o),
(186.8,-20,o),
(200,-20,cs),
(356.4,-20,l),
(362,-59.6,o),
(387.2,-91.2,o),
(422.4,-105.6,c),
(404,-124.4,o),
(392.4,-151.2,o),
(392,-180.8,cs),
(392,-224,o),
(366.4,-250,o),
(325.2,-250,cs),
(172,-250,ls),
(109.2,-250,o),
(70,-210.8,o),
(70,-148,cs),
(70,337.2,l),
(79.2,332.4,o),
(89.2,330,o),
(100,330,cs),
(138,330,o),
(170,362,o),
(170,400,cs),
(170,438,o),
(138,470,o),
(100,470,cs),
(62,470,o),
(30,438,o),
(30,400,cs),
(30,-148,ls),
(30,-230,o),
(90,-290,o),
(172,-290,cs)
);
},
{
closed = 1;
nodes = (
(81.2,370,o),
(70,381.2,o),
(70,400,cs),
(70,418.8,o),
(81.2,430,o),
(100,430,cs),
(118.8,430,o),
(130,418.8,o),
(130,400,cs),
(130,381.2,o),
(118.8,370,o),
(100,370,cs)
);
},
{
closed = 1;
nodes = (
(395.2,511.2,ls),
(395.2,553.6,o),
(421.2,580,o),
(463.2,580,cs),
(504.4,580,o),
(530,554,o),
(530,511.2,cs),
(530,89.2,ls),
(530,46.4,o),
(503.6,20,o),
(461.2,20,cs),
(395.2,20,l)
);
}
);
width = 600;
}
);
metricLeft = "ca-tamil";
metricRight = "ca-tamil";
},
{
glyphname = "va_uMatra-tamil";
lastChange = "2023-04-08 14:10:14 +0000";
layers = (
{
anchors = (
{
name = imatra;
pos = (420,500);
},
{
name = top;
pos = (320,600);
}
);
layerId = m01;
shapes = (
{
pos = (50,196);
ref = chinnaVattam;
},
{
closed = 0;
nodes = (
(420,500,l),
(420,0,l)
);
},
{
closed = 0;
nodes = (
(420,-300,l),
(420,0,l),
(110,0,ls),
(81,0,o),
(59,21,o),
(59,50,cs),
(59,79,o),
(81,100,o),
(110,100,cs),
(198,100,ls),
(269,100,o),
(320,151,o),
(320,222,cs),
(320,478,ls),
(320,549,o),
(269,600,o),
(198,600,cs),
(172,600,ls),
(101,600,o),
(50,549,o),
(50,478,cs),
(50,295,l)
);
}
);
width = 470;
},
{
anchors = (
{
name = imatra;
pos = (420,500);
},
{
name = top;
pos = (320,600);
}
);
layerId = "DF2AA445-C2A4-4E12-8ADA-5B4903805A97";
shapes = (
{
closed = 1;
nodes = (
(426,-310,o),
(430,-306,o),
(430,-300,cs),
(430,500,ls),
(430,506,o),
(426,510,o),
(420,510,cs),
(414,510,o),
(410,506,o),
(410,500,cs),
(410,10,l),
(110,10,ls),
(85,10,o),
(69,25,o),
(69,50,cs),
(69,75,o),
(85,90,o),
(110,90,cs),
(198,90,ls),
(274,90,o),
(330,146,o),
(330,222,cs),
(330,478,ls),
(330,554,o),
(274,610,o),
(198,610,cs),
(172,610,ls),
(96,610,o),
(40,554,o),
(40,478,cs),
(40,278,ls),
(40,226,o),
(76,186,o),
(125,186,cs),
(175,186,o),
(210,226,o),
(210,278,cs),
(210,314,ls),
(210,366,o),
(174,406,o),
(125,406,cs),
(98,406,o),
(75,394,o),
(60,374,c),
(60,478,ls),
(60,545,o),
(105,590,o),
(172,590,cs),
(198,590,ls),
(265,590,o),
(310,545,o),
(310,478,cs),
(310,222,ls),
(310,155,o),
(265,110,o),
(198,110,cs),
(110,110,ls),
(76,110,o),
(49,84,o),
(49,50,cs),
(49,16,o),
(76,-10,o),
(110,-10,cs),
(410,-10,l),
(410,-300,ls),
(410,-306,o),
(414,-310,o),
(420,-310,cs)
);
},
{
closed = 1;
nodes = (
(86,206,o),
(60,235,o),
(60,278,cs),
(60,314,ls),
(60,357,o),
(86,386,o),
(125,386,cs),
(164,386,o),
(190,357,o),
(190,314,cs),
(190,278,ls),
(190,235,o),
(164,206,o),
(125,206,cs)
);
}
);
width = 470;
},
{
anchors = (
{
name = imatra;
pos = (420,500);
},
{
name = top;
pos = (320,600);
}
);
layerId = "831A5D7B-7350-4608-95DD-9715BE7B29F6";
shapes = (
{
closed = 1;
nodes = (
(431.2,-320,o),
(440,-311.2,o),
(440,-300,cs),
(440,500,ls),
(440,511.2,o),
(431.2,520,o),
(420,520,cs),
(408.8,520,o),
(400,511.2,o),
(400,500,cs),
(400,20,l),
(110,20,ls),
(89.2,20,o),
(79.2,29.6,o),
(79.2,50,cs),
(79.2,70.4,o),
(89.2,80,o),
(110,80,cs),
(198,80,ls),
(280,80,o),
(340,140,o),
(340,222,cs),
(340,478,ls),
(340,560,o),
(280,620,o),
(198,620,cs),
(172,620,ls),
(90,620,o),
(30,560,o),
(30,478,cs),
(30,278,ls),
(30,220.8,o),
(70.4,176,o),
(125.2,176,cs),
(180.8,176,o),
(220,220.8,o),
(220,278,cs),
(220,314,ls),
(220,371.2,o),
(179.6,416,o),
(125.2,416,cs),
(104,416,o),
(85.2,409.6,o),
(70,398,c),
(70,478,ls),
(70,540.8,o),
(109.2,580,o),
(172,580,cs),
(198,580,ls),
(260.8,580,o),
(300,540.8,o),
(300,478,cs),
(300,222,ls),
(300,159.2,o),
(260.8,120,o),
(198,120,cs),
(110,120,ls),
(70.4,120,o),
(39.2,90,o),
(39.2,50,cs),
(39.2,10,o),
(70.4,-20,o),
(110,-20,cs),
(400,-20,l),
(400,-300,ls),
(400,-311.2,o),
(408.8,-320,o),
(420,-320,cs)
);
},
{
closed = 1;
nodes = (
(90.8,216,o),
(70,238.8,o),
(70,278,cs),
(70,314,ls),
(70,353.2,o),
(90.8,376,o),
(125.2,376,cs),
(159.2,376,o),
(180,353.2,o),
(180,314,cs),
(180,278,ls),
(180,238.4,o),
(160,216,o),
(125.2,216,cs)
);
}
);
width = 470;
}
);
metricLeft = "ca-tamil";
metricRight = "ca-tamil";
},
{
glyphname = "va_uuMatra-tamil";
lastChange = "2023-04-08 14:10:14 +0000";
layers = (
{
anchors = (
{
name = imatra;
pos = (480,600);
},
{
name = top;
pos = (275,600);
}
);
layerId = m01;
shapes = (
{
ref = "va-tamil";
},
{
pos = (235,-210);
ref = kokkiVattam;
},
{
closed = 0;
nodes = (
(285,-210,l),
(408,-210,ls),
(461,-210,o),
(500,-171,o),
(500,-118,cs),
(500,4,ls),
(500,30,o),
(480,50,o),
(454,50,cs),
(420,50,l)
);
},
{
closed = 0;
nodes = (
(420,0,l),
(420,-50,l)
);
}
);
width = 550;
},
{
anchors = (
{
name = imatra;
pos = (480,600);
},
{
name = top;
pos = (275,600);
}
);
layerId = "DF2AA445-C2A4-4E12-8ADA-5B4903805A97";
shapes = (
{
closed = 1;
nodes = (
(408,-220,ls),
(466,-220,o),
(510,-176,o),
(510,-118,cs),
(510,4,ls),
(510,35,o),
(485,60,o),
(454,60,cs),
(430,60,l),
(430,500,ls),
(430,506,o),
(426,510,o),
(420,510,cs),
(414,510,o),
(410,506,o),
(410,500,cs),
(410,10,l),
(110,10,ls),
(85,10,o),
(69,25,o),
(69,50,cs),
(69,75,o),
(85,90,o),
(110,90,cs),
(198,90,ls),
(274,90,o),
(330,146,o),
(330,222,cs),
(330,478,ls),
(330,554,o),
(274,610,o),
(198,610,cs),
(172,610,ls),
(96,610,o),
(40,554,o),
(40,478,cs),
(40,278,ls),
(40,226,o),
(76,186,o),
(125,186,cs),
(175,186,o),
(210,226,o),
(210,278,cs),
(210,314,ls),
(210,366,o),
(174,406,o),
(125,406,cs),
(98,406,o),
(75,394,o),
(60,374,c),
(60,478,ls),
(60,545,o),
(105,590,o),
(172,590,cs),
(198,590,ls),
(265,590,o),
(310,545,o),
(310,478,cs),
(310,222,ls),
(310,155,o),
(265,110,o),
(198,110,cs),
(110,110,ls),
(76,110,o),
(49,84,o),
(49,50,cs),
(49,16,o),
(76,-10,o),
(110,-10,cs),
(410,-10,l),
(410,-50,ls),
(410,-56,o),
(414,-60,o),
(420,-60,cs),
(426,-60,o),
(430,-56,o),
(430,-50,cs),
(430,40,l),
(454,40,ls),
(476,40,o),
(490,26,o),
(490,4,cs),
(490,-118,ls),
(490,-167,o),
(457,-200,o),
(408,-200,cs),
(329,-200,l),
(339,-189,o),
(345,-175,o),
(345,-160,cs),
(345,-128,o),
(317,-100,o),
(285,-100,cs),
(253,-100,o),
(225,-128,o),
(225,-160,cs),
(225,-192,o),
(253,-220,o),
(285,-220,cs)
);
},
{
closed = 1;
nodes = (
(262,-200,o),
(245,-183,o),
(245,-160,cs),
(245,-137,o),
(262,-120,o),
(285,-120,cs),
(308,-120,o),
(325,-137,o),
(325,-160,cs),
(325,-183,o),
(308,-200,o),
(285,-200,cs)
);
},
{
closed = 1;
nodes = (
(86,206,o),
(60,235,o),
(60,278,cs),
(60,314,ls),
(60,357,o),
(86,386,o),
(125,386,cs),
(164,386,o),
(190,357,o),
(190,314,cs),
(190,278,ls),
(190,235,o),
(164,206,o),
(125,206,cs)
);
}
);
width = 550;
},
{
anchors = (
{
name = imatra;
pos = (480,600);
},
{
name = top;
pos = (275,600);
}
);
layerId = "831A5D7B-7350-4608-95DD-9715BE7B29F6";
shapes = (
{
closed = 1;
nodes = (
(408,-230,ls),
(472,-230,o),
(520,-182,o),
(520,-118,cs),
(520,4,ls),
(520,40.8,o),
(490.8,70,o),
(454,70,cs),
(440,70,l),
(440,500,ls),
(440,511.2,o),
(431.2,520,o),
(420,520,cs),
(408.8,520,o),
(400,511.2,o),
(400,500,cs),
(400,20,l),
(110,20,ls),
(89.2,20,o),
(79.2,29.6,o),
(79.2,50,cs),
(79.2,70.4,o),
(89.2,80,o),
(110,80,cs),
(198,80,ls),
(280,80,o),
(340,140,o),
(340,222,cs),
(340,478,ls),
(340,560,o),
(280,620,o),
(198,620,cs),
(172,620,ls),
(90,620,o),
(30,560,o),
(30,478,cs),
(30,278,ls),
(30,220.8,o),
(70.4,176,o),
(125.2,176,cs),
(180.8,176,o),
(220,220.8,o),
(220,278,cs),
(220,314,ls),
(220,371.2,o),
(179.6,416,o),
(125.2,416,cs),
(104,416,o),
(85.2,409.6,o),
(70,398,c),
(70,478,ls),
(70,540.8,o),
(109.2,580,o),
(172,580,cs),
(198,580,ls),
(260.8,580,o),
(300,540.8,o),
(300,478,cs),
(300,222,ls),
(300,159.2,o),
(260.8,120,o),
(198,120,cs),
(110,120,ls),
(70.4,120,o),
(39.2,90,o),
(39.2,50,cs),
(39.2,10,o),
(70.4,-20,o),
(110,-20,cs),
(400,-20,l),
(400,-50,ls),
(400,-61.2,o),
(408.8,-70,o),
(420,-70,cs),
(431.2,-70,o),
(440,-61.2,o),
(440,-50,cs),
(440,30,l),
(454,30,ls),
(471.6,30,o),
(480,21.6,o),
(480,4,cs),
(480,-118,ls),
(480,-162.8,o),
(452.8,-190,o),
(408,-190,cs),
(348,-190,l),
(352.4,-180.8,o),
(355.2,-170.8,o),
(355.2,-160,cs),
(355.2,-122,o),
(322.8,-90,o),
(285.2,-90,cs),
(247.2,-90,o),
(215.2,-122,o),
(215.2,-160,cs),
(215.2,-198,o),
(247.2,-230,o),
(285.2,-230,cs)
);
},
{
closed = 1;
nodes = (
(266.4,-190,o),
(255.2,-178.8,o),
(255.2,-160,cs),
(255.2,-141.2,o),
(266.4,-130,o),
(285.2,-130,cs),
(303.6,-130,o),
(315.2,-141.2,o),
(315.2,-160,cs),
(315.2,-178.8,o),
(303.6,-190,o),
(285.2,-190,cs)
);
},
{
closed = 1;
nodes = (
(90.8,216,o),
(70,238.8,o),
(70,278,cs),
(70,314,ls),
(70,353.2,o),
(90.8,376,o),
(125.2,376,cs),
(159.2,376,o),
(180,353.2,o),
(180,314,cs),
(180,278,ls),
(180,238.4,o),
(160,216,o),
(125.2,216,cs)
);
}
);
width = 550;
}
);
metricLeft = "ca-tamil";
metricRight = "ca-tamil";
},
{
glyphname = "sa_iMatra-tamil";
lastChange = "2023-04-08 14:10:14 +0000";
layers = (
{
anchors = (
{
name = imatra;
pos = (667,600);
},
{
name = top;
pos = (369,600);
}
);
layerId = m01;
shapes = (
{
closed = 0;
nodes = (
(687,0,l),
(687,708,ls),
(687,761,o),
(648,800,o),
(595,800,cs),
(579,800,ls),
(526,800,o),
(487,761,o),
(487,708,cs),
(487,592,ls),
(487,539,o),
(526,500,o),
(579,500,cs),
(607,500,l)
);
},
{
pos = (95,0);
ref = chinnaVattam;
},
{
closed = 0;
nodes = (
(317,76,l),
(317,473,ls),
(317,552,o),
(264,600,o),
(196,600,cs),
(172,600,ls),
(101,600,o),
(50,549,o),
(50,478,cs),
(50,122,ls),
(50,51,o),
(102,0,o),
(172,0,c)
);
},
{
closed = 0;
nodes = (
(533,600,l),
(577,600,o),
(609,567,o),
(609,523,cs),
(609,76,ls),
(609,32,o),
(577,0,o),
(534,0,cs),
(491,0,o),
(459,32,o),
(459,76,cs),
(459,524,ls),
(459,568,o),
(427,600,o),
(384,600,cs),
(341,600,o),
(309,568,o),
(309,524,c)
);
}
);
width = 737;
},
{
anchors = (
{
name = imatra;
pos = (667,600);
},
{
name = top;
pos = (369,600);
}
);
layerId = "DF2AA445-C2A4-4E12-8ADA-5B4903805A97";
shapes = (
{
closed = 1;
nodes = (
(172,-10,ls),
(221,-9,o),
(255,31,o),
(255,82,cs),
(255,118,ls),
(255,170,o),
(219,210,o),
(170,210,cs),
(121,210,o),
(85,170,o),
(85,118,cs),
(85,82,ls),
(85,66,o),
(88,50,o),
(95,38,c),
(73,57,o),
(60,86,o),
(60,122,cs),
(60,478,ls),
(60,545,o),
(105,590,o),
(172,590,cs),
(196,590,ls),
(260,590,o),
(307,548,o),
(307,473,cs),
(307,76,ls),
(307,70,o),
(312,66,o),
(317,66,cs),
(322,66,o),
(327,70,o),
(327,76,cs),
(327,473,ls),
(327,492,o),
(324,509,o),
(319,524,c),
(319,564,o),
(345,590,o),
(384,590,cs),
(423,590,o),
(449,564,o),
(449,524,cs),
(449,76,ls),
(449,27,o),
(486,-10,o),
(534,-10,cs),
(582,-10,o),
(619,27,o),
(619,76,cs),
(619,523,ls),
(619,572,o),
(582,610,o),
(533,610,cs),
(528,610,o),
(523,606,o),
(523,600,cs),
(523,594,o),
(528,590,o),
(533,590,cs),
(573,590,o),
(599,563,o),
(599,523,cs),
(599,510,l),
(579,510,ls),
(530,510,o),
(497,543,o),
(497,592,cs),
(497,708,ls),
(497,757,o),
(530,790,o),
(579,790,cs),
(595,790,ls),
(644,790,o),
(677,757,o),
(677,708,cs),
(677,0,ls),
(677,-6,o),
(682,-10,o),
(687,-10,cs),
(692,-10,o),
(697,-6,o),
(697,0,cs),
(697,708,ls),
(697,766,o),
(653,810,o),
(595,810,cs),
(579,810,ls),
(521,810,o),
(477,766,o),
(477,708,cs),
(477,592,ls),
(477,534,o),
(521,490,o),
(579,490,cs),
(599,490,l),
(599,76,ls),
(599,36,o),
(573,10,o),
(534,10,cs),
(495,10,o),
(469,36,o),
(469,76,cs),
(469,524,ls),
(469,573,o),
(432,610,o),
(384,610,cs),
(346,610,o),
(316,588,o),
(304,555,c),
(281,590,o),
(241,610,o),
(196,610,cs),
(172,610,ls),
(96,610,o),
(40,554,o),
(40,478,cs),
(40,122,ls),
(40,48,o),
(92,-6,o),
(164,-10,cs),
(170,-10,l)
);
},
{
closed = 1;
nodes = (
(129,13,o),
(105,41,o),
(105,82,cs),
(105,118,ls),
(105,161,o),
(132,190,o),
(170,190,cs),
(208,190,o),
(235,161,o),
(235,118,cs),
(235,82,ls),
(235,39,o),
(210,10,o),
(171,10,cs),
(164,10,ls)
);
}
);
width = 737;
},
{
anchors = (
{
name = imatra;
pos = (667,600);
},
{
name = top;
pos = (369,600);
}
);
layerId = "831A5D7B-7350-4608-95DD-9715BE7B29F6";
shapes = (
{
closed = 1;
nodes = (
(172,-20,ls),
(226.4,-18.8,o),
(265.2,25.6,o),
(265.2,82,cs),
(265.2,118,ls),
(265.2,175.2,o),
(224.4,220,o),
(170,220,cs),
(115.6,220,o),
(75.2,175.2,o),
(75.2,118,cs),
(75.2,86.4,l),
(71.6,97.2,o),
(70,109.2,o),
(70,122,cs),
(70,478,ls),
(70,540.8,o),
(109.2,580,o),
(172,580,cs),
(196,580,ls),
(256.4,580,o),
(297.2,543.2,o),
(297.2,473.2,cs),
(297.2,76,ls),
(297.2,64.8,o),
(306,56,o),
(317.2,56,cs),
(328,56,o),
(337.2,64.8,o),
(337.2,76,cs),
(337.2,473.2,ls),
(337.2,492,o),
(334,509.6,o),
(329.2,525.6,c),
(329.6,560.4,o),
(350,580,o),
(384,580,cs),
(418.8,580,o),
(439.2,559.6,o),
(439.2,524,cs),
(439.2,76,ls),
(439.2,21.2,o),
(480,-20,o),
(534,-20,cs),
(588,-20,o),
(629.2,21.2,o),
(629.2,76,cs),
(629.2,523.2,ls),
(629.2,577.6,o),
(588,620,o),
(533.2,620,cs),
(522,620,o),
(513.2,611.2,o),
(513.2,600,cs),
(513.2,588.8,o),
(522,580,o),
(533.2,580,cs),
(568.4,580,o),
(589.2,558.8,o),
(589.2,523.2,cs),
(589.2,520,l),
(579.2,520,ls),
(534.4,520,o),
(507.2,547.2,o),
(507.2,592,cs),
(507.2,708,ls),
(507.2,752.8,o),
(534.4,780,o),
(579.2,780,cs),
(595.2,780,ls),
(639.6,780,o),
(667.2,752.8,o),
(667.2,708,cs),
(667.2,0,ls),
(667.2,-11.2,o),
(676,-20,o),
(687.2,-20,cs),
(698,-20,o),
(707.2,-11.2,o),
(707.2,0,cs),
(707.2,708,ls),
(707.2,772,o),
(658.8,820,o),
(595.2,820,cs),
(579.2,820,ls),
(515.2,820,o),
(467.2,772,o),
(467.2,708,cs),
(467.2,592,ls),
(467.2,583.6,o),
(468,575.2,o),
(469.6,567.2,c),
(454.4,599.2,o),
(422.4,620,o),
(384,620,cs),
(348.4,620,o),
(318.4,602,o),
(302,574,c),
(276.4,603.6,o),
(238.4,620,o),
(196,620,cs),
(172,620,ls),
(90,620,o),
(30,560,o),
(30,478,cs),
(30,122,ls),
(30,43.2,o),
(86.8,-15.6,o),
(162.8,-19.6,cs),
(165.2,-20,o),
(167.6,-20,o),
(170,-20,cs)
);
},
{
closed = 1;
nodes = (
(133.6,22.4,o),
(115.2,44.8,o),
(115.2,82,cs),
(115.2,118,ls),
(115.2,157.2,o),
(136,180,o),
(170,180,cs),
(204,180,o),
(225.2,157.2,o),
(225.2,118,cs),
(225.2,82,ls),
(225.2,42.8,o),
(205.2,20.4,o),
(170.8,20,cs),
(164.8,20,ls)
);
},
{
closed = 1;
nodes = (
(499.2,20,o),
(479.2,40.4,o),
(479.2,76,cs),
(479.2,524,ls),
(479.2,530.8,o),
(478.4,537.6,o),
(477.2,543.6,c),
(494.4,505.2,o),
(532.8,480,o),
(579.2,480,cs),
(589.2,480,l),
(589.2,76,ls),
(589.2,40.4,o),
(568.8,20,o),
(534,20,cs)
);
}
);
width = 737;
}
);
metricRight = "ca-tamil";
},
{
glyphname = "sa_iiMatra-tamil";
lastChange = "2023-04-08 14:10:14 +0000";
layers = (
{
anchors = (
{
name = imatra;
pos = (669,600);
},
{
name = top;
pos = (370,600);
}
);
layerId = m01;
shapes = (
{
pos = (95,0);
ref = chinnaVattam;
},
{
closed = 0;
nodes = (
(317,76,l),
(317,473,ls),
(317,552,o),
(264,600,o),
(196,600,cs),
(172,600,ls),
(101,600,o),
(50,549,o),
(50,478,cs),
(50,122,ls),
(50,51,o),
(102,0,o),
(172,0,c)
);
},
{
closed = 0;
nodes = (
(533,600,l),
(577,600,o),
(609,567,o),
(609,523,cs),
(609,76,ls),
(609,32,o),
(577,0,o),
(534,0,cs),
(491,0,o),
(459,32,o),
(459,76,cs),
(459,524,ls),
(459,568,o),
(427,600,o),
(384,600,cs),
(341,600,o),
(309,568,o),
(309,524,c)
);
},
{
closed = 0;
nodes = (
(689,708,l),
(689,761,o),
(650,800,o),
(597,800,cs),
(581,800,ls),
(528,800,o),
(489,761,o),
(489,708,cs),
(489,592,ls),
(489,539,o),
(528,500,o),
(581,500,cs),
(609,500,l)
);
},
{
pos = (589,658);
ref = kokkiVattam;
}
);
width = 739;
},
{
anchors = (
{
name = imatra;
pos = (669,600);
},
{
name = top;
pos = (370,600);
}
);
layerId = "DF2AA445-C2A4-4E12-8ADA-5B4903805A97";
shapes = (
{
closed = 1;
nodes = (
(172,-10,ls),
(221,-9,o),
(255,31,o),
(255,82,cs),
(255,118,ls),
(255,170,o),
(219,210,o),
(170,210,cs),
(121,210,o),
(85,170,o),
(85,118,cs),
(85,82,ls),
(85,66,o),
(88,50,o),
(95,38,c),
(73,57,o),
(60,86,o),
(60,122,cs),
(60,478,ls),
(60,545,o),
(105,590,o),
(172,590,cs),
(196,590,ls),
(260,590,o),
(307,548,o),
(307,473,cs),
(307,76,ls),
(307,70,o),
(312,66,o),
(317,66,cs),
(322,66,o),
(327,70,o),
(327,76,cs),
(327,473,ls),
(327,492,o),
(324,509,o),
(319,524,c),
(319,564,o),
(345,590,o),
(384,590,cs),
(423,590,o),
(449,564,o),
(449,524,cs),
(449,76,ls),
(449,27,o),
(486,-10,o),
(534,-10,cs),
(582,-10,o),
(619,27,o),
(619,76,cs),
(619,523,ls),
(619,572,o),
(582,610,o),
(533,610,cs),
(528,610,o),
(523,606,o),
(523,600,cs),
(523,594,o),
(528,590,o),
(533,590,cs),
(573,590,o),
(599,563,o),
(599,523,cs),
(599,510,l),
(581,510,ls),
(532,510,o),
(499,543,o),
(499,592,cs),
(499,708,ls),
(499,757,o),
(532,790,o),
(581,790,cs),
(597,790,ls),
(623,790,o),
(645,780,o),
(659,764,c),
(653,767,o),
(646,768,o),
(639,768,cs),
(607,768,o),
(579,740,o),
(579,708,cs),
(579,676,o),
(607,648,o),
(639,648,cs),
(671,648,o),
(699,676,o),
(699,708,cs),
(699,766,o),
(655,810,o),
(597,810,cs),
(581,810,ls),
(523,810,o),
(479,766,o),
(479,708,cs),
(479,592,ls),
(479,534,o),
(523,490,o),
(581,490,cs),
(599,490,l),
(599,76,ls),
(599,36,o),
(573,10,o),
(534,10,cs),
(495,10,o),
(469,36,o),
(469,76,cs),
(469,524,ls),
(469,573,o),
(432,610,o),
(384,610,cs),
(346,610,o),
(316,588,o),
(304,555,c),
(281,590,o),
(241,610,o),
(196,610,cs),
(172,610,ls),
(96,610,o),
(40,554,o),
(40,478,cs),
(40,122,ls),
(40,48,o),
(92,-6,o),
(164,-10,cs),
(170,-10,l)
);
},
{
closed = 1;
nodes = (
(129,13,o),
(105,41,o),
(105,82,cs),
(105,118,ls),
(105,161,o),
(132,190,o),
(170,190,cs),
(208,190,o),
(235,161,o),
(235,118,cs),
(235,82,ls),
(235,39,o),
(210,10,o),
(171,10,cs),
(164,10,ls)
);
},
{
closed = 1;
nodes = (
(616,668,o),
(599,685,o),
(599,708,cs),
(599,731,o),
(616,748,o),
(639,748,cs),
(662,748,o),
(679,731,o),
(679,708,cs),
(679,685,o),
(662,668,o),
(639,668,cs)
);
}
);
width = 739;
},
{
anchors = (
{
name = imatra;
pos = (669,600);
},
{
name = top;
pos = (370,600);
}
);
layerId = "831A5D7B-7350-4608-95DD-9715BE7B29F6";
shapes = (
{
closed = 1;
nodes = (
(172,-20,ls),
(226.4,-18.8,o),
(265.2,25.6,o),
(265.2,82,cs),
(265.2,118,ls),
(265.2,175.2,o),
(224.4,220,o),
(170,220,cs),
(115.6,220,o),
(75.2,175.2,o),
(75.2,118,cs),
(75.2,86.4,l),
(71.6,97.2,o),
(70,109.2,o),
(70,122,cs),
(70,478,ls),
(70,540.8,o),
(109.2,580,o),
(172,580,cs),
(196,580,ls),
(256.4,580,o),
(297.2,543.2,o),
(297.2,473.2,cs),
(297.2,76,ls),
(297.2,64.8,o),
(306,56,o),
(317.2,56,cs),
(328,56,o),
(337.2,64.8,o),
(337.2,76,cs),
(337.2,473.2,ls),
(337.2,492,o),
(334,509.6,o),
(329.2,525.6,c),
(329.6,560.4,o),
(350,580,o),
(384,580,cs),
(418.8,580,o),
(439.2,559.6,o),
(439.2,524,cs),
(439.2,76,ls),
(439.2,21.2,o),
(480,-20,o),
(534,-20,cs),
(588,-20,o),
(629.2,21.2,o),
(629.2,76,cs),
(629.2,523.2,ls),
(629.2,577.6,o),
(588,620,o),
(533.2,620,cs),
(522,620,o),
(513.2,611.2,o),
(513.2,600,cs),
(513.2,588.8,o),
(522,580,o),
(533.2,580,cs),
(568.4,580,o),
(589.2,558.8,o),
(589.2,523.2,cs),
(589.2,520,l),
(581.2,520,ls),
(536.4,520,o),
(509.2,547.2,o),
(509.2,592,cs),
(509.2,708,ls),
(509.2,752.8,o),
(536.4,780,o),
(581.2,780,cs),
(597.2,780,ls),
(606.8,780,o),
(615.6,778.8,o),
(623.6,776.4,c),
(592.8,768.8,o),
(569.2,740.8,o),
(569.2,708,cs),
(569.2,670,o),
(601.2,638,o),
(639.2,638,cs),
(676.8,638,o),
(709.2,670,o),
(709.2,708,cs),
(709.2,772,o),
(660.8,820,o),
(597.2,820,cs),
(581.2,820,ls),
(517.2,820,o),
(469.2,772,o),
(469.2,708,cs),
(469.2,592,ls),
(469.2,528,o),
(517.2,480,o),
(581.2,480,cs),
(589.2,480,l),
(589.2,76,ls),
(589.2,40.4,o),
(568.8,20,o),
(534,20,cs),
(499.2,20,o),
(479.2,40.4,o),
(479.2,76,cs),
(479.2,524,ls),
(479.2,578.8,o),
(438,620,o),
(384,620,cs),
(348.4,620,o),
(318.4,602,o),
(302,574,c),
(276.4,603.6,o),
(238.4,620,o),
(196,620,cs),
(172,620,ls),
(90,620,o),
(30,560,o),
(30,478,cs),
(30,122,ls),
(30,43.2,o),
(86.8,-15.6,o),
(162.8,-19.6,cs),
(165.2,-20,o),
(167.6,-20,o),
(170,-20,cs)
);
},
{
closed = 1;
nodes = (
(133.6,22.4,o),
(115.2,44.8,o),
(115.2,82,cs),
(115.2,118,ls),
(115.2,157.2,o),
(136,180,o),
(170,180,cs),
(204,180,o),
(225.2,157.2,o),
(225.2,118,cs),
(225.2,82,ls),
(225.2,42.8,o),
(205.2,20.4,o),
(170.8,20,cs),
(164.8,20,ls)
);
},
{
closed = 1;
nodes = (
(620.4,678,o),
(609.2,689.2,o),
(609.2,708,cs),
(609.2,726.8,o),
(620.4,738,o),
(639.2,738,cs),
(657.6,738,o),
(668.8,726.8,o),
(668.8,708,c),
(669.2,708,l),
(669.2,689.2,o),
(657.6,678,o),
(639.2,678,cs)
);
}
);
width = 739;
}
);
metricLeft = "ca-tamil";
metricRight = "ca-tamil";
},
{
glyphname = "k_ssa-tamil";
lastChange = "2023-04-08 14:10:14 +0000";
layers = (
{
anchors = (
{
name = imatra;
pos = (880,600);
},
{
name = top;
pos = (475,600);
}
);
layerId = m01;
shapes = (
{
pos = (-50,0);
ref = chaMelPaadi;
},
{
pos = (50,0);
ref = chaKeezhPaadi;
},
{
closed = 0;
nodes = (
(250,350,l),
(478,350,ls),
(549,350,o),
(600,298,o),
(600,227,cs),
(600,222,ls),
(600,151,o),
(549,100,o),
(478,100,cs),
(380,100,ls),
(351,100,o),
(329,79,o),
(329,50,cs),
(329,21,o),
(351,0,o),
(380,0,cs),
(900,0,l)
);
},
{
closed = 1;
nodes = (
(433,160,o),
(464,195,o),
(464,242,cs),
(464,268,ls),
(464,315,o),
(432,350,o),
(389,350,cs),
(346,350,o),
(314,315,o),
(314,268,cs),
(314,242,ls),
(314,195,o),
(346,160,o),
(389,160,cs)
);
},
{
closed = 0;
nodes = (
(810,0,l),
(810,198,ls),
(810,246,o),
(776,280,o),
(730,280,cs),
(684,280,o),
(650,246,o),
(650,198,cs),
(650,82,ls),
(650,34,o),
(684,0,o),
(724,0,cs),
(810,0,l),
(810,-297,l)
);
}
);
width = 950;
},
{
anchors = (
{
name = imatra;
pos = (880,600);
},
{
name = top;
pos = (475,600);
}
);
layerId = "DF2AA445-C2A4-4E12-8ADA-5B4903805A97";
shapes = (
{
closed = 1;
nodes = (
(816,-307,o),
(820,-302,o),
(820,-297,cs),
(820,-10,l),
(900,-10,ls),
(906,-10,o),
(910,-6,o),
(910,0,cs),
(910,6,o),
(906,10,o),
(900,10,cs),
(820,10,l),
(820,198,ls),
(820,251,o),
(781,290,o),
(730,290,cs),
(679,290,o),
(640,251,o),
(640,198,cs),
(640,82,ls),
(640,52,o),
(652,26,o),
(671,10,c),
(380,10,ls),
(355,10,o),
(339,25,o),
(339,50,cs),
(339,75,o),
(355,90,o),
(380,90,cs),
(478,90,ls),
(554,90,o),
(610,146,o),
(610,222,cs),
(610,227,ls),
(610,303,o),
(554,360,o),
(478,360,cs),
(260,360,l),
(260,590,l),
(360,590,ls),
(366,590,o),
(370,594,o),
(370,600,cs),
(370,606,o),
(366,610,o),
(360,610,cs),
(130,610,ls),
(124,610,o),
(120,606,o),
(120,600,cs),
(120,357,l),
(76,346,o),
(40,304,o),
(40,248,cs),
(40,102,ls),
(40,38,o),
(86,-10,o),
(150,-10,cs),
(214,-10,o),
(260,38,o),
(260,102,cs),
(260,340,l),
(335,340,l),
(316,323,o),
(304,298,o),
(304,268,cs),
(304,242,ls),
(304,190,o),
(340,150,o),
(389,150,cs),
(439,150,o),
(474,190,o),
(474,242,cs),
(474,268,ls),
(474,298,o),
(462,323,o),
(443,340,c),
(478,340,ls),
(545,340,o),
(590,294,o),
(590,227,cs),
(590,222,ls),
(590,155,o),
(545,110,o),
(478,110,cs),
(380,110,ls),
(346,110,o),
(319,84,o),
(319,50,cs),
(319,16,o),
(346,-10,o),
(380,-10,cs),
(800,-10,l),
(800,-297,ls),
(800,-302,o),
(804,-307,o),
(810,-307,cs)
);
},
{
closed = 1;
nodes = (
(96,10,o),
(60,47,o),
(60,102,cs),
(60,248,ls),
(60,303,o),
(97,340,o),
(142,340,cs),
(240,340,l),
(240,102,ls),
(240,47,o),
(204,10,o),
(150,10,cs)
);
},
{
closed = 1;
nodes = (
(350,170,o),
(324,199,o),
(324,242,cs),
(324,268,ls),
(324,311,o),
(350,340,o),
(389,340,cs),
(428,340,o),
(454,311,o),
(454,268,cs),
(454,242,ls),
(454,199,o),
(428,170,o),
(389,170,cs)
);
},
{
closed = 1;
nodes = (
(140,590,l),
(240,590,l),
(240,360,l),
(140,360,l)
);
},
{
closed = 1;
nodes = (
(688,10,o),
(660,38,o),
(660,82,cs),
(660,198,ls),
(660,242,o),
(688,270,o),
(730,270,cs),
(772,270,o),
(800,242,o),
(800,198,cs),
(800,10,l),
(724,10,ls)
);
}
);
width = 950;
},
{
anchors = (
{
name = imatra;
pos = (880,600);
},
{
name = top;
pos = (475,600);
}
);
layerId = "831A5D7B-7350-4608-95DD-9715BE7B29F6";
shapes = (
{
closed = 1;
nodes = (
(821.2,-316.8,o),
(830,-308,o),
(830,-296.8,cs),
(830,-20,l),
(900,-20,ls),
(911.2,-20,o),
(920,-11.2,o),
(920,0,cs),
(920,11.2,o),
(911.2,20,o),
(900,20,cs),
(830,20,l),
(830,198,ls),
(830,256.8,o),
(786.8,300,o),
(730,300,cs),
(673.2,300,o),
(630,256.8,o),
(630,198,cs),
(630,82,ls),
(630,58,o),
(637.2,36.8,o),
(648.8,20,c),
(380,20,ls),
(359.2,20,o),
(349.2,29.6,o),
(349.2,50,cs),
(349.2,70.4,o),
(359.2,80,o),
(380,80,cs),
(478,80,ls),
(560,80,o),
(620,140,o),
(620,222,cs),
(620,227.2,ls),
(620,308.8,o),
(560,370,o),
(478,370,cs),
(270,370,l),
(270,580,l),
(360,580,ls),
(371.2,580,o),
(380,588.8,o),
(380,600,cs),
(380,611.2,o),
(371.2,620,o),
(360,620,cs),
(130,620,ls),
(117.2,620,o),
(110,612.8,o),
(110,600,cs),
(110,364.8,l),
(64.8,350.4,o),
(30,305.2,o),
(30,248,cs),
(30,102,ls),
(30,32.4,o),
(80.8,-20,o),
(150,-20,cs),
(219.2,-20,o),
(270,32.4,o),
(270,102,cs),
(270,330,l),
(312.8,330,l),
(300.8,312.8,o),
(294,291.6,o),
(294,268,cs),
(294,242,ls),
(294,184.8,o),
(334.4,140,o),
(389.2,140,cs),
(444.8,140,o),
(484,184.8,o),
(484,242,cs),
(484,268,ls),
(484,291.6,o),
(477.2,312.8,o),
(465.2,330,c),
(478,330,ls),
(540.8,330,o),
(580,290,o),
(580,227.2,cs),
(580,222,ls),
(580,159.2,o),
(540.8,120,o),
(478,120,cs),
(380,120,ls),
(340.4,120,o),
(309.2,90,o),
(309.2,50,cs),
(309.2,10,o),
(340.4,-20,o),
(380,-20,cs),
(790,-20,l),
(790,-296.8,ls),
(790,-308,o),
(798.8,-316.8,o),
(810,-316.8,cs)
);
},
{
closed = 1;
nodes = (
(100.4,20,o),
(70,51.2,o),
(70,102,cs),
(70,248,ls),
(70,298.8,o),
(101.2,330,o),
(142,330,cs),
(230,330,l),
(230,102,ls),
(230,51.2,o),
(199.6,20,o),
(150,20,cs)
);
},
{
closed = 1;
nodes = (
(354.8,180,o),
(334,202.8,o),
(334,242,cs),
(334,268,ls),
(334,307.2,o),
(354.8,330,o),
(389.2,330,cs),
(423.2,330,o),
(444,307.2,o),
(444,268,cs),
(444,242,ls),
(444,202.4,o),
(424,180,o),
(389.2,180,cs)
);
},
{
closed = 1;
nodes = (
(150,580,l),
(230,580,l),
(230,370,l),
(150,370,l)
);
},
{
closed = 1;
nodes = (
(692.4,20,o),
(670,42.4,o),
(670,82,cs),
(670,198,ls),
(670,237.6,o),
(692.4,260,o),
(730,260,cs),
(767.6,260,o),
(790,237.6,o),
(790,198,cs),
(790,20,l),
(724,20,ls)
);
}
);
width = 950;
}
);
metricLeft = "ca-tamil";
metricRight = "ca-tamil";
},
{
glyphname = "sh_ra_iiMatra-tamil";
lastChange = "2023-04-08 14:10:14 +0000";
layers = (
{
anchors = (
{
name = imatra;
pos = (829,600);
},
{
name = top;
pos = (450,600);
}
);
layerId = m01;
shapes = (
{
closed = 0;
nodes = (
(160,600,l),
(160,0,l),
(360,0,l),
(360,549,ls),
(360,578,o),
(382,600,o),
(411,600,cs),
(419,600,ls),
(448,600,o),
(470,578,o),
(470,549,cs),
(470,0,l)
);
},
{
closed = 0;
nodes = (
(650,600,l),
(740,600,l)
);
},
{
closed = 0;
nodes = (
(650,232,l),
(650,277,o),
(671,317,o),
(731,317,cs),
(830,317,o),
(830,264,o),
(830,97,cs),
(830,-87,o),
(779,-140,o),
(652,-140,cs),
(203,-140,ls),
(115,-140,o),
(50,-75,o),
(50,13,cs),
(50,450,l)
);
},
{
closed = 0;
nodes = (
(650,160,l),
(650,600,l),
(572,600,ls),
(513,600,o),
(470,557,o),
(470,498,cs),
(470,487,l)
);
},
{
closed = 0;
nodes = (
(849,708,l),
(849,761,o),
(810,800,o),
(757,800,cs),
(741,800,ls),
(688,800,o),
(649,761,o),
(649,708,cs),
(649,592,l)
);
},
{
pos = (749,658);
ref = kokkiVattam;
}
);
width = 899;
},
{
anchors = (
{
name = imatra;
pos = (829,600);
},
{
name = top;
pos = (450,600);
}
);
layerId = "DF2AA445-C2A4-4E12-8ADA-5B4903805A97";
shapes = (
{
closed = 1;
nodes = (
(652,-150,ls),
(784,-150,o),
(840,-94,o),
(840,97,cs),
(840,264,o),
(840,327,o),
(731,327,cs),
(697,327,o),
(674,315,o),
(660,297,c),
(660,590,l),
(740,590,ls),
(746,590,o),
(750,594,o),
(750,600,cs),
(750,606,o),
(746,610,o),
(740,610,cs),
(659,610,l),
(659,708,ls),
(659,757,o),
(692,790,o),
(741,790,cs),
(757,790,ls),
(783,790,o),
(805,780,o),
(819,764,c),
(813,767,o),
(806,768,o),
(799,768,cs),
(767,768,o),
(739,740,o),
(739,708,cs),
(739,676,o),
(767,648,o),
(799,648,cs),
(831,648,o),
(859,676,o),
(859,708,cs),
(859,766,o),
(815,810,o),
(757,810,cs),
(741,810,ls),
(683,810,o),
(639,766,o),
(639,708,cs),
(639,610,l),
(572,610,ls),
(532,610,o),
(498,592,o),
(479,562,c),
(473,590,o),
(449,610,o),
(419,610,cs),
(411,610,ls),
(377,610,o),
(350,583,o),
(350,549,cs),
(350,10,l),
(170,10,l),
(170,600,ls),
(170,606,o),
(166,610,o),
(160,610,cs),
(154,610,o),
(150,606,o),
(150,600,cs),
(150,0,ls),
(150,-6,o),
(154,-10,o),
(160,-10,cs),
(360,-10,ls),
(366,-10,o),
(370,-6,o),
(370,0,cs),
(370,549,ls),
(370,574,o),
(386,590,o),
(411,590,cs),
(419,590,ls),
(444,590,o),
(460,574,o),
(460,549,cs),
(460,0,ls),
(460,-6,o),
(464,-10,o),
(470,-10,cs),
(476,-10,o),
(480,-6,o),
(480,0,cs),
(480,498,ls),
(480,553,o),
(517,590,o),
(572,590,cs),
(640,590,l),
(640,160,ls),
(640,154,o),
(644,150,o),
(650,150,cs),
(656,150,o),
(660,154,o),
(660,160,cs),
(660,232,ls),
(660,274,o),
(677,307,o),
(731,307,cs),
(820,307,o),
(820,264,o),
(820,97,cs),
(820,-83,o),
(775,-130,o),
(652,-130,cs),
(203,-130,ls),
(119,-130,o),
(60,-71,o),
(60,13,cs),
(60,450,ls),
(60,456,o),
(56,460,o),
(50,460,cs),
(44,460,o),
(40,456,o),
(40,450,cs),
(40,13,ls),
(40,-80,o),
(110,-150,o),
(203,-150,cs)
);
},
{
closed = 1;
nodes = (
(776,668,o),
(759,685,o),
(759,708,cs),
(759,731,o),
(776,748,o),
(799,748,cs),
(822,748,o),
(839,731,o),
(839,708,cs),
(839,685,o),
(822,668,o),
(799,668,cs)
);
}
);
width = 899;
},
{
anchors = (
{
name = imatra;
pos = (829,600);
},
{
name = top;
pos = (450,600);
}
);
layerId = "831A5D7B-7350-4608-95DD-9715BE7B29F6";
shapes = (
{
closed = 1;
nodes = (
(652,-160,ls),
(790.4,-160,o),
(850,-98,o),
(850,97.2,cs),
(850,264,o),
(850,337.2,o),
(731.2,337.2,cs),
(705.2,337.2,o),
(685.2,330.8,o),
(670,320,c),
(670,580,l),
(740,580,ls),
(751.2,580,o),
(760,588.8,o),
(760,600,cs),
(760,611.2,o),
(751.2,620,o),
(740,620,cs),
(669.2,620,l),
(669.2,708,ls),
(669.2,752.8,o),
(696.4,780,o),
(741.2,780,cs),
(757.2,780,ls),
(766.8,780,o),
(775.6,778.8,o),
(783.6,776.4,c),
(752.8,768.8,o),
(729.2,740.8,o),
(729.2,708,cs),
(729.2,670,o),
(761.2,638,o),
(799.2,638,cs),
(836.8,638,o),
(869.2,670,o),
(869.2,708,cs),
(869.2,772,o),
(820.8,820,o),
(757.2,820,cs),
(741.2,820,ls),
(677.2,820,o),
(629.2,772,o),
(629.2,708,cs),
(629.2,620,l),
(572,620,ls),
(535.6,620,o),
(504,606,o),
(482,582.4,c),
(470.4,604.8,o),
(446.8,620,o),
(419.2,620,cs),
(411.2,620,ls),
(371.2,620,o),
(340,588.8,o),
(340,549.2,cs),
(340,20,l),
(180,20,l),
(180,600,ls),
(180,611.2,o),
(171.2,620,o),
(160,620,cs),
(148.8,620,o),
(140,611.2,o),
(140,600,cs),
(140,0,ls),
(140,-12.8,o),
(147.2,-20,o),
(160,-20,cs),
(360,-20,ls),
(373.2,-20,o),
(380,-12.8,o),
(380,0,cs),
(380,549.2,ls),
(380,569.6,o),
(390.4,580,o),
(411.2,580,cs),
(419.2,580,ls),
(439.6,580,o),
(450,569.6,o),
(450,549.2,cs),
(450,0,ls),
(450,-11.2,o),
(458.8,-20,o),
(470,-20,cs),
(481.2,-20,o),
(490,-11.2,o),
(490,0,cs),
(490,498,ls),
(490,548.8,o),
(521.2,580,o),
(572,580,cs),
(630,580,l),
(630,160,ls),
(630,148.8,o),
(638.8,140,o),
(650,140,cs),
(661.2,140,o),
(670,148.8,o),
(670,160,cs),
(670,232,ls),
(670,272,o),
(683.2,297.2,o),
(731.2,297.2,cs),
(810,297.2,o),
(810,264,o),
(810,97.2,cs),
(810,-78.8,o),
(770.4,-120,o),
(652,-120,cs),
(203.2,-120,ls),
(123.2,-120,o),
(70,-66.8,o),
(70,13.2,cs),
(70,450,ls),
(70,461.2,o),
(61.2,470,o),
(50,470,cs),
(38.8,470,o),
(30,461.2,o),
(30,450,cs),
(30,13.2,ls),
(30,-86,o),
(104,-160,o),
(203.2,-160,cs)
);
},
{
closed = 1;
nodes = (
(780.4,678,o),
(769.2,689.2,o),
(769.2,708,cs),
(769.2,726.8,o),
(780.4,738,o),
(799.2,738,cs),
(817.6,738,o),
(828.8,726.8,o),
(828.8,708,c),
(829.2,708,l),
(829.2,689.2,o),
(817.6,678,o),
(799.2,678,cs)
);
}
);
width = 899;
}
);
metricLeft = "ca-tamil";
metricRight = "ca-tamil";
},
{
glyphname = "a-tamil";
lastChange = "2023-04-08 14:10:14 +0000";
layers = (
{
layerId = m01;
shapes = (
{
closed = 0;
nodes = (
(440,450,l),
(440,0,l)
);
},
{
pos = (80,294);
ref = chinnaVattam;
},
{
closed = 1;
nodes = (
(50,250,l),
(50,122,ls),
(50,51,o),
(101,0,o),
(172,0,cs),
(238,0,ls),
(309,0,o),
(360,51,o),
(360,122,cs),
(360,250,l)
);
},
{
closed = 0;
nodes = (
(360,244,l),
(360,478,ls),
(360,549,o),
(309,600,o),
(238,600,cs),
(202,600,ls),
(131,600,o),
(80,549,o),
(80,478,cs),
(80,394,l)
);
},
{
closed = 0;
nodes = (
(440,250,l),
(360,250,l)
);
}
);
width = 490;
},
{
layerId = "DF2AA445-C2A4-4E12-8ADA-5B4903805A97";
shapes = (
{
closed = 1;
nodes = (
(238,-10,ls),
(314,-10,o),
(370,46,o),
(370,122,cs),
(370,240,l),
(430,240,l),
(430,0,ls),
(430,-6,o),
(434,-10,o),
(440,-10,cs),
(446,-10,o),
(450,-6,o),
(450,0,cs),
(450,450,ls),
(450,456,o),
(446,460,o),
(440,460,cs),
(434,460,o),
(430,456,o),
(430,450,cs),
(430,260,l),
(370,260,l),
(370,478,ls),
(370,554,o),
(314,610,o),
(238,610,cs),
(202,610,ls),
(126,610,o),
(70,554,o),
(70,478,cs),
(70,376,ls),
(70,324,o),
(106,284,o),
(155,284,cs),
(205,284,o),
(240,324,o),
(240,376,cs),
(240,412,ls),
(240,464,o),
(204,504,o),
(155,504,cs),
(128,504,o),
(105,492,o),
(90,472,c),
(90,478,ls),
(90,545,o),
(135,590,o),
(202,590,cs),
(238,590,ls),
(305,590,o),
(350,545,o),
(350,478,cs),
(350,260,l),
(50,260,ls),
(44,260,o),
(40,256,o),
(40,250,cs),
(40,122,ls),
(40,46,o),
(96,-10,o),
(172,-10,cs)
);
},
{
closed = 1;
nodes = (
(105,10,o),
(60,55,o),
(60,122,cs),
(60,240,l),
(350,240,l),
(350,122,ls),
(350,55,o),
(305,10,o),
(238,10,cs),
(172,10,ls)
);
},
{
closed = 1;
nodes = (
(116,304,o),
(90,333,o),
(90,376,cs),
(90,412,ls),
(90,455,o),
(116,484,o),
(155,484,cs),
(194,484,o),
(220,455,o),
(220,412,cs),
(220,376,ls),
(220,333,o),
(194,304,o),
(155,304,cs)
);
}
);
width = 490;
},
{
layerId = "831A5D7B-7350-4608-95DD-9715BE7B29F6";
shapes = (
{
closed = 1;
nodes = (
(238,-20,ls),
(320,-20,o),
(380,40,o),
(380,122,cs),
(380,230,l),
(420,230,l),
(420,0,ls),
(420,-11.2,o),
(428.8,-20,o),
(440,-20,cs),
(451.2,-20,o),
(460,-11.2,o),
(460,0,cs),
(460,450,ls),
(460,461.2,o),
(451.2,470,o),
(440,470,cs),
(428.8,470,o),
(420,461.2,o),
(420,450,cs),
(420,270,l),
(380,270,l),
(380,478,ls),
(380,560,o),
(320,620,o),
(238,620,cs),
(202,620,ls),
(120,620,o),
(60,560,o),
(60,478,cs),
(60,376,ls),
(60,318.8,o),
(100.4,274,o),
(155.2,274,cs),
(210.8,274,o),
(250,318.8,o),
(250,376,cs),
(250,412,ls),
(250,469.2,o),
(209.6,514,o),
(155.2,514,cs),
(134.8,514,o),
(116.4,507.6,o),
(101.2,497.2,c),
(108.4,548.4,o),
(146,580,o),
(202,580,cs),
(238,580,ls),
(300.8,580,o),
(340,540.8,o),
(340,478,cs),
(340,270,l),
(50,270,ls),
(37.2,270,o),
(30,263.2,o),
(30,250,cs),
(30,122,ls),
(30,40,o),
(90,-20,o),
(172,-20,cs)
);
},
{
closed = 1;
nodes = (
(109.2,20,o),
(70,59.2,o),
(70,122,cs),
(70,230,l),
(340,230,l),
(340,122,ls),
(340,59.2,o),
(300.8,20,o),
(238,20,cs),
(172,20,ls)
);
},
{
closed = 1;
nodes = (
(120.8,314,o),
(100,336.8,o),
(100,376,cs),
(100,412,ls),
(100,451.2,o),
(120.8,474,o),
(155.2,474,cs),
(189.2,474,o),
(210,451.2,o),
(210,412,cs),
(210,376,ls),
(210,336.4,o),
(190,314,o),
(155.2,314,cs)
);
}
);
width = 490;
}
);
metricLeft = "ca-tamil";
metricRight = "ca-tamil";
unicode = 2949;
},
{
glyphname = "aa-tamil";
lastChange = "2023-04-08 14:10:14 +0000";
layers = (
{
layerId = m01;
shapes = (
{
ref = "a-tamil";
},
{
pos = (255,-210);
ref = kokkiVattam;
},
{
closed = 0;
nodes = (
(305,-210,l),
(428,-210,ls),
(481,-210,o),
(520,-171,o),
(520,-118,cs),
(520,4,ls),
(520,30,o),
(500,50,o),
(474,50,cs),
(440,50,l)
);
}
);
width = 570;
},
{
layerId = "DF2AA445-C2A4-4E12-8ADA-5B4903805A97";
shapes = (
{
closed = 1;
nodes = (
(428,-220,ls),
(486,-220,o),
(530,-176,o),
(530,-118,cs),
(530,4,ls),
(530,35,o),
(505,60,o),
(474,60,cs),
(450,60,l),
(450,450,ls),
(450,456,o),
(446,460,o),
(440,460,cs),
(434,460,o),
(430,456,o),
(430,450,cs),
(430,260,l),
(370,260,l),
(370,478,ls),
(370,554,o),
(314,610,o),
(238,610,cs),
(202,610,ls),
(126,610,o),
(70,554,o),
(70,478,cs),
(70,376,ls),
(70,324,o),
(106,284,o),
(155,284,cs),
(205,284,o),
(240,324,o),
(240,376,cs),
(240,412,ls),
(240,464,o),
(204,504,o),
(155,504,cs),
(128,504,o),
(105,492,o),
(90,472,c),
(90,478,ls),
(90,545,o),
(135,590,o),
(202,590,cs),
(238,590,ls),
(305,590,o),
(350,545,o),
(350,478,cs),
(350,260,l),
(50,260,ls),
(44,260,o),
(40,256,o),
(40,250,cs),
(40,122,ls),
(40,46,o),
(96,-10,o),
(172,-10,cs),
(238,-10,ls),
(314,-10,o),
(370,46,o),
(370,122,cs),
(370,240,l),
(430,240,l),
(430,0,ls),
(430,-6,o),
(434,-10,o),
(440,-10,cs),
(446,-10,o),
(450,-6,o),
(450,0,cs),
(450,40,l),
(474,40,ls),
(496,40,o),
(510,26,o),
(510,4,cs),
(510,-118,ls),
(510,-167,o),
(477,-200,o),
(428,-200,cs),
(349,-200,l),
(359,-189,o),
(365,-175,o),
(365,-160,cs),
(365,-128,o),
(337,-100,o),
(305,-100,cs),
(273,-100,o),
(245,-128,o),
(245,-160,cs),
(245,-192,o),
(273,-220,o),
(305,-220,cs)
);
},
{
closed = 1;
nodes = (
(282,-200,o),
(265,-183,o),
(265,-160,cs),
(265,-137,o),
(282,-120,o),
(305,-120,cs),
(328,-120,o),
(345,-137,o),
(345,-160,cs),
(345,-183,o),
(328,-200,o),
(305,-200,cs)
);
},
{
closed = 1;
nodes = (
(105,10,o),
(60,55,o),
(60,122,cs),
(60,240,l),
(350,240,l),
(350,122,ls),
(350,55,o),
(305,10,o),
(238,10,cs),
(172,10,ls)
);
},
{
closed = 1;
nodes = (
(116,304,o),
(90,333,o),
(90,376,cs),
(90,412,ls),
(90,455,o),
(116,484,o),
(155,484,cs),
(194,484,o),
(220,455,o),
(220,412,cs),
(220,376,ls),
(220,333,o),
(194,304,o),
(155,304,cs)
);
}
);
width = 570;
},
{
layerId = "831A5D7B-7350-4608-95DD-9715BE7B29F6";
shapes = (
{
closed = 1;
nodes = (
(428,-230,ls),
(492,-230,o),
(540,-182,o),
(540,-118,cs),
(540,4,ls),
(540,40.8,o),
(510.8,70,o),
(474,70,cs),
(460,70,l),
(460,450,ls),
(460,461.2,o),
(451.2,470,o),
(440,470,cs),
(428.8,470,o),
(420,461.2,o),
(420,450,cs),
(420,270,l),
(380,270,l),
(380,478,ls),
(380,560,o),
(320,620,o),
(238,620,cs),
(202,620,ls),
(120,620,o),
(60,560,o),
(60,478,cs),
(60,376,ls),
(60,318.8,o),
(100.4,274,o),
(155.2,274,cs),
(210.8,274,o),
(250,318.8,o),
(250,376,cs),
(250,412,ls),
(250,469.2,o),
(209.6,514,o),
(155.2,514,cs),
(134.8,514,o),
(116.4,507.6,o),
(101.2,497.2,c),
(108.4,548.4,o),
(146,580,o),
(202,580,cs),
(238,580,ls),
(300.8,580,o),
(340,540.8,o),
(340,478,cs),
(340,270,l),
(50,270,ls),
(37.2,270,o),
(30,263.2,o),
(30,250,cs),
(30,122,ls),
(30,40,o),
(90,-20,o),
(172,-20,cs),
(238,-20,ls),
(320,-20,o),
(380,40,o),
(380,122,cs),
(380,230,l),
(420,230,l),
(420,0,ls),
(420,-11.2,o),
(428.8,-20,o),
(440,-20,cs),
(451.2,-20,o),
(460,-11.2,o),
(460,0,cs),
(460,30,l),
(474,30,ls),
(491.6,30,o),
(500,21.6,o),
(500,4,cs),
(500,-118,ls),
(500,-162.8,o),
(472.8,-190,o),
(428,-190,cs),
(368,-190,l),
(372.4,-180.8,o),
(375.2,-170.8,o),
(375.2,-160,cs),
(375.2,-122,o),
(342.8,-90,o),
(305.2,-90,cs),
(267.2,-90,o),
(235.2,-122,o),
(235.2,-160,cs),
(235.2,-198,o),
(267.2,-230,o),
(305.2,-230,cs)
);
},
{
closed = 1;
nodes = (
(286.4,-190,o),
(275.2,-178.8,o),
(275.2,-160,cs),
(275.2,-141.2,o),
(286.4,-130,o),
(305.2,-130,cs),
(323.6,-130,o),
(335.2,-141.2,o),
(335.2,-160,cs),
(335.2,-178.8,o),
(323.6,-190,o),
(305.2,-190,cs)
);
},
{
closed = 1;
nodes = (
(109.2,20,o),
(70,59.2,o),
(70,122,cs),
(70,230,l),
(340,230,l),
(340,122,ls),
(340,59.2,o),
(300.8,20,o),
(238,20,cs),
(172,20,ls)
);
},
{
closed = 1;
nodes = (
(120.8,314,o),
(100,336.8,o),
(100,376,cs),
(100,412,ls),
(100,451.2,o),
(120.8,474,o),
(155.2,474,cs),
(189.2,474,o),
(210,451.2,o),
(210,412,cs),
(210,376,ls),
(210,336.4,o),
(190,314,o),
(155.2,314,cs)
);
}
);
width = 570;
}
);
metricLeft = "ca-tamil";
metricRight = "ca-tamil";
unicode = 2950;
},
{
glyphname = "i-tamil";
lastChange = "2023-04-08 14:10:14 +0000";
layers = (
{
layerId = m01;
shapes = (
{
closed = 1;
nodes = (
(50,250,l),
(50,122,ls),
(50,51,o),
(101,0,o),
(172,0,cs),
(338,0,ls),
(409,0,o),
(460,51,o),
(460,122,cs),
(460,250,l)
);
},
{
closed = 0;
nodes = (
(460,244,l),
(460,478,ls),
(460,549,o),
(409,600,o),
(338,600,cs),
(322,600,ls),
(251,600,o),
(200,549,o),
(200,478,cs),
(200,394,l)
);
},
{
pos = (200,294);
ref = chinnaVattam;
},
{
closed = 0;
nodes = (
(520,330,l),
(520,484,ls),
(520,591,o),
(441,670,o),
(334,670,cs),
(326,670,ls),
(219,670,o),
(140,591,o),
(140,484,cs),
(140,122,ls),
(140,51,o),
(191,0,o),
(262,0,cs),
(428,0,ls),
(499,0,o),
(550,51,o),
(550,122,cs),
(550,250,l),
(460,250,l)
);
}
);
width = 600;
},
{
layerId = "DF2AA445-C2A4-4E12-8ADA-5B4903805A97";
shapes = (
{
closed = 1;
nodes = (
(428,-10,ls),
(504,-10,o),
(560,46,o),
(560,122,cs),
(560,250,ls),
(560,256,o),
(556,260,o),
(550,260,cs),
(470,260,l),
(470,478,ls),
(470,554,o),
(414,610,o),
(338,610,cs),
(322,610,ls),
(246,610,o),
(190,554,o),
(190,478,cs),
(190,376,ls),
(190,324,o),
(226,284,o),
(275,284,cs),
(325,284,o),
(360,324,o),
(360,376,cs),
(360,412,ls),
(360,464,o),
(324,504,o),
(275,504,cs),
(248,504,o),
(225,492,o),
(210,472,c),
(210,478,ls),
(210,545,o),
(255,590,o),
(322,590,cs),
(338,590,ls),
(405,590,o),
(450,545,o),
(450,478,cs),
(450,260,l),
(150,260,l),
(150,484,ls),
(150,587,o),
(223,660,o),
(326,660,cs),
(334,660,ls),
(437,660,o),
(510,587,o),
(510,484,cs),
(510,330,ls),
(510,324,o),
(514,320,o),
(520,320,cs),
(526,320,o),
(530,324,o),
(530,330,cs),
(530,484,ls),
(530,596,o),
(446,680,o),
(334,680,cs),
(326,680,ls),
(214,680,o),
(130,596,o),
(130,484,cs),
(130,260,l),
(50,260,ls),
(44,260,o),
(40,256,o),
(40,250,cs),
(40,122,ls),
(40,46,o),
(96,-10,o),
(172,-10,cs)
);
},
{
closed = 1;
nodes = (
(105,10,o),
(60,55,o),
(60,122,cs),
(60,240,l),
(130,240,l),
(130,122,ls),
(130,73,o),
(153,33,o),
(189,10,c),
(172,10,ls)
);
},
{
closed = 1;
nodes = (
(195,10,o),
(150,55,o),
(150,122,cs),
(150,240,l),
(450,240,l),
(450,122,ls),
(450,55,o),
(405,10,o),
(338,10,cs),
(262,10,ls)
);
},
{
closed = 1;
nodes = (
(447,33,o),
(470,73,o),
(470,122,cs),
(470,240,l),
(540,240,l),
(540,122,ls),
(540,55,o),
(495,10,o),
(428,10,cs),
(411,10,l)
);
},
{
closed = 1;
nodes = (
(236,304,o),
(210,333,o),
(210,376,cs),
(210,412,ls),
(210,455,o),
(236,484,o),
(275,484,cs),
(314,484,o),
(340,455,o),
(340,412,cs),
(340,376,ls),
(340,333,o),
(314,304,o),
(275,304,cs)
);
}
);
width = 600;
},
{
layerId = "831A5D7B-7350-4608-95DD-9715BE7B29F6";
shapes = (
{
closed = 1;
nodes = (
(428,-20,ls),
(510,-20,o),
(570,40,o),
(570,122,cs),
(570,250,ls),
(570,263.2,o),
(563.2,270,o),
(550,270,cs),
(480,270,l),
(480,478,ls),
(480,560,o),
(420,620,o),
(338,620,cs),
(322,620,ls),
(240,620,o),
(180,560,o),
(180,478,cs),
(180,376,ls),
(180,318.8,o),
(220.4,274,o),
(275.2,274,cs),
(330.8,274,o),
(370,318.8,o),
(370,376,cs),
(370,412,ls),
(370,469.2,o),
(329.6,514,o),
(275.2,514,cs),
(254.8,514,o),
(236.4,507.6,o),
(221.2,497.2,c),
(228.4,548.4,o),
(266,580,o),
(322,580,cs),
(338,580,ls),
(400.8,580,o),
(440,540.8,o),
(440,478,cs),
(440,270,l),
(160,270,l),
(160,484,ls),
(160,582.8,o),
(227.2,650,o),
(326,650,cs),
(334,650,ls),
(432.8,650,o),
(500,582.8,o),
(500,484,cs),
(500,330,ls),
(500,318.8,o),
(508.8,310,o),
(520,310,cs),
(531.2,310,o),
(540,318.8,o),
(540,330,cs),
(540,484,ls),
(540,602,o),
(452,690,o),
(334,690,cs),
(326,690,ls),
(208,690,o),
(120,602,o),
(120,484,cs),
(120,270,l),
(50,270,ls),
(37.2,270,o),
(30,263.2,o),
(30,250,cs),
(30,122,ls),
(30,40,o),
(90,-20,o),
(172,-20,cs)
);
},
{
closed = 1;
nodes = (
(104.4,25.2,o),
(70,63.2,o),
(70,122,cs),
(70,230,l),
(120,230,l),
(120,122,ls),
(120,81.2,o),
(134.8,45.6,o),
(160,20.4,c)
);
},
{
closed = 1;
nodes = (
(199.2,20,o),
(160,59.2,o),
(160,122,cs),
(160,230,l),
(440,230,l),
(440,122,ls),
(440,59.2,o),
(400.8,20,o),
(338,20,cs),
(262,20,ls)
);
},
{
closed = 1;
nodes = (
(465.2,45.6,o),
(480,81.2,o),
(480,122,cs),
(480,230,l),
(530,230,l),
(530,122,ls),
(530,63.2,o),
(495.6,25.2,o),
(440,20.4,c)
);
},
{
closed = 1;
nodes = (
(240.8,314,o),
(220,336.8,o),
(220,376,cs),
(220,412,ls),
(220,451.2,o),
(240.8,474,o),
(275.2,474,cs),
(309.2,474,o),
(330,451.2,o),
(330,412,cs),
(330,376,ls),
(330,336.4,o),
(310,314,o),
(275.2,314,cs)
);
}
);
width = 600;
}
);
metricLeft = "ca-tamil";
metricRight = "ca-tamil";
unicode = 2951;
},
{
glyphname = "ii-tamil";
lastChange = "2023-04-08 14:10:14 +0000";
layers = (
{
layerId = m01;
shapes = (
{
closed = 0;
nodes = (
(440,600,l),
(320,600,l)
);
},
{
closed = 0;
nodes = (
(320,0,l),
(320,600,l),
(50,600,l),
(50,0,l)
);
},
{
pos = (380,250);
ref = kokkiVattam;
},
{
pos = (135,250);
ref = kokkiVattam;
}
);
width = 510;
},
{
layerId = "DF2AA445-C2A4-4E12-8ADA-5B4903805A97";
shapes = (
{
closed = 1;
nodes = (
(56,-10,o),
(60,-6,o),
(60,0,cs),
(60,590,l),
(310,590,l),
(310,0,ls),
(310,-6,o),
(314,-10,o),
(320,-10,cs),
(326,-10,o),
(330,-6,o),
(330,0,cs),
(330,590,l),
(440,590,ls),
(446,590,o),
(450,594,o),
(450,600,cs),
(450,606,o),
(446,610,o),
(440,610,cs),
(50,610,ls),
(44,610,o),
(40,606,o),
(40,600,cs),
(40,0,ls),
(40,-6,o),
(44,-10,o),
(50,-10,cs)
);
},
{
closed = 1;
nodes = (
(217,240,o),
(245,268,o),
(245,300,cs),
(245,332,o),
(217,360,o),
(185,360,cs),
(153,360,o),
(125,332,o),
(125,300,cs),
(125,268,o),
(153,240,o),
(185,240,cs)
);
},
{
closed = 1;
nodes = (
(162,260,o),
(145,277,o),
(145,300,cs),
(145,323,o),
(162,340,o),
(185,340,cs),
(208,340,o),
(225,323,o),
(225,300,cs),
(225,277,o),
(208,260,o),
(185,260,cs)
);
},
{
closed = 1;
nodes = (
(462,240,o),
(490,268,o),
(490,300,cs),
(490,332,o),
(462,360,o),
(430,360,cs),
(398,360,o),
(370,332,o),
(370,300,cs),
(370,268,o),
(398,240,o),
(430,240,cs)
);
},
{
closed = 1;
nodes = (
(407,260,o),
(390,277,o),
(390,300,cs),
(390,323,o),
(407,340,o),
(430,340,cs),
(453,340,o),
(470,323,o),
(470,300,cs),
(470,277,o),
(453,260,o),
(430,260,cs)
);
}
);
width = 510;
},
{
layerId = "831A5D7B-7350-4608-95DD-9715BE7B29F6";
shapes = (
{
closed = 1;
nodes = (
(61.2,-20,o),
(70,-11.2,o),
(70,0,cs),
(70,580,l),
(300,580,l),
(300,0,ls),
(300,-11.2,o),
(308.8,-20,o),
(320,-20,cs),
(331.2,-20,o),
(340,-11.2,o),
(340,0,cs),
(340,580,l),
(440,580,ls),
(451.2,580,o),
(460,588.8,o),
(460,600,cs),
(460,611.2,o),
(451.2,620,o),
(440,620,cs),
(50,620,ls),
(37.2,620,o),
(30,613.2,o),
(30,600,cs),
(30,0,ls),
(30,-11.2,o),
(38.8,-20,o),
(50,-20,cs)
);
},
{
closed = 1;
nodes = (
(222.8,230,o),
(255.2,262,o),
(255.2,300,cs),
(255.2,338,o),
(222.8,370,o),
(185.2,370,cs),
(147.2,370,o),
(115.2,338,o),
(115.2,300,cs),
(115.2,262,o),
(147.2,230,o),
(185.2,230,cs)
);
},
{
closed = 1;
nodes = (
(166.4,270,o),
(155.2,281.2,o),
(155.2,300,cs),
(155.2,318.8,o),
(166.4,330,o),
(185.2,330,cs),
(203.6,330,o),
(215.2,318.8,o),
(215.2,300,cs),
(215.2,281.2,o),
(203.6,270,o),
(185.2,270,cs)
);
},
{
closed = 1;
nodes = (
(468,230,o),
(500,262,o),
(500,300,cs),
(500,338,o),
(468,370,o),
(430,370,cs),
(392,370,o),
(360,338,o),
(360,300,cs),
(360,262,o),
(392,230,o),
(430,230,cs)
);
},
{
closed = 1;
nodes = (
(411.2,270,o),
(400,281.2,o),
(400,300,cs),
(400,318.8,o),
(411.2,330,o),
(430,330,cs),
(448.8,330,o),
(460,318.8,o),
(460,300,cs),
(460,281.2,o),
(448.8,270,o),
(430,270,cs)
);
}
);
width = 510;
}
);
metricLeft = "ca-tamil";
unicode = 2952;
},
{
glyphname = "u-tamil";
lastChange = "2023-04-08 14:10:14 +0000";
layers = (
{
layerId = m01;
shapes = (
{
pos = (50,196);
ref = chinnaVattam;
},
{
closed = 0;
nodes = (
(470,0,l),
(110,0,ls),
(81,0,o),
(59,21,o),
(59,50,cs),
(59,79,o),
(81,100,o),
(110,100,cs),
(198,100,ls),
(269,100,o),
(320,151,o),
(320,222,cs),
(320,478,ls),
(320,549,o),
(269,600,o),
(198,600,cs),
(172,600,ls),
(101,600,o),
(50,549,o),
(50,478,cs),
(50,295,l)
);
}
);
width = 520;
},
{
layerId = "DF2AA445-C2A4-4E12-8ADA-5B4903805A97";
shapes = (
{
closed = 1;
nodes = (
(470,-10,ls),
(476,-10,o),
(480,-6,o),
(480,0,cs),
(480,6,o),
(476,10,o),
(470,10,cs),
(110,10,ls),
(85,10,o),
(69,25,o),
(69,50,cs),
(69,75,o),
(85,90,o),
(110,90,cs),
(198,90,ls),
(274,90,o),
(330,146,o),
(330,222,cs),
(330,478,ls),
(330,554,o),
(274,610,o),
(198,610,cs),
(172,610,ls),
(96,610,o),
(40,554,o),
(40,478,cs),
(40,278,ls),
(40,226,o),
(76,186,o),
(125,186,cs),
(175,186,o),
(210,226,o),
(210,278,cs),
(210,314,ls),
(210,366,o),
(174,406,o),
(125,406,cs),
(98,406,o),
(75,394,o),
(60,374,c),
(60,478,ls),
(60,545,o),
(105,590,o),
(172,590,cs),
(198,590,ls),
(265,590,o),
(310,545,o),
(310,478,cs),
(310,222,ls),
(310,155,o),
(265,110,o),
(198,110,cs),
(110,110,ls),
(76,110,o),
(49,84,o),
(49,50,cs),
(49,16,o),
(76,-10,o),
(110,-10,cs)
);
},
{
closed = 1;
nodes = (
(86,206,o),
(60,235,o),
(60,278,cs),
(60,314,ls),
(60,357,o),
(86,386,o),
(125,386,cs),
(164,386,o),
(190,357,o),
(190,314,cs),
(190,278,ls),
(190,235,o),
(164,206,o),
(125,206,cs)
);
}
);
width = 520;
},
{
layerId = "831A5D7B-7350-4608-95DD-9715BE7B29F6";
shapes = (
{
closed = 1;
nodes = (
(470,-20,ls),
(481.2,-20,o),
(490,-11.2,o),
(490,0,cs),
(490,11.2,o),
(481.2,20,o),
(470,20,cs),
(110,20,ls),
(89.2,20,o),
(79.2,29.6,o),
(79.2,50,cs),
(79.2,70.4,o),
(89.2,80,o),
(110,80,cs),
(198,80,ls),
(280,80,o),
(340,140,o),
(340,222,cs),
(340,478,ls),
(340,560,o),
(280,620,o),
(198,620,cs),
(172,620,ls),
(90,620,o),
(30,560,o),
(30,478,cs),
(30,278,ls),
(30,220.8,o),
(70.4,176,o),
(125.2,176,cs),
(180.8,176,o),
(220,220.8,o),
(220,278,cs),
(220,314,ls),
(220,371.2,o),
(179.6,416,o),
(125.2,416,cs),
(104,416,o),
(85.2,409.6,o),
(70,398,c),
(70,478,ls),
(70,540.8,o),
(109.2,580,o),
(172,580,cs),
(198,580,ls),
(260.8,580,o),
(300,540.8,o),
(300,478,cs),
(300,222,ls),
(300,159.2,o),
(260.8,120,o),
(198,120,cs),
(110,120,ls),
(70.4,120,o),
(39.2,90,o),
(39.2,50,cs),
(39.2,10,o),
(70.4,-20,o),
(110,-20,cs)
);
},
{
closed = 1;
nodes = (
(90.8,216,o),
(70,238.8,o),
(70,278,cs),
(70,314,ls),
(70,353.2,o),
(90.8,376,o),
(125.2,376,cs),
(159.2,376,o),
(180,353.2,o),
(180,314,cs),
(180,278,ls),
(180,238.4,o),
(160,216,o),
(125.2,216,cs)
);
}
);
width = 520;
}
);
metricLeft = "ca-tamil";
metricRight = "ca-tamil";
unicode = 2953;
},
{
glyphname = "uu-tamil";
lastChange = "2023-04-08 14:10:14 +0000";
layers = (
{
layerId = m01;
shapes = (
{
pos = (50,196);
ref = chinnaVattam;
},
{
closed = 0;
nodes = (
(770,0,l),
(110,0,ls),
(81,0,o),
(59,21,o),
(59,50,cs),
(59,79,o),
(81,100,o),
(110,100,cs),
(198,100,ls),
(269,100,o),
(320,151,o),
(320,222,cs),
(320,478,ls),
(320,549,o),
(269,600,o),
(198,600,cs),
(172,600,ls),
(101,600,o),
(50,549,o),
(50,478,cs),
(50,295,l)
);
},
{
pos = (414,50);
ref = chinnaVattam;
scale = (0.7507,0.7507);
},
{
closed = 0;
nodes = (
(580,200,l),
(580,405,ls),
(580,464,o),
(541,500,o),
(490,500,cs),
(472,500,ls),
(418,500,o),
(380,462,o),
(380,409,cs),
(380,142,ls),
(380,88,o),
(419,50,o),
(472,50,c)
);
},
{
closed = 0;
nodes = (
(715,50,l),
(715,500,l),
(580,500,l),
(580,200,l)
);
},
{
closed = 0;
nodes = (
(765,500,l),
(715,500,l)
);
}
);
width = 820;
},
{
layerId = "DF2AA445-C2A4-4E12-8ADA-5B4903805A97";
shapes = (
{
closed = 1;
nodes = (
(770,-10,ls),
(776,-10,o),
(780,-6,o),
(780,0,cs),
(780,6,o),
(776,10,o),
(770,10,cs),
(110,10,ls),
(85,10,o),
(69,25,o),
(69,50,cs),
(69,75,o),
(85,90,o),
(110,90,cs),
(198,90,ls),
(274,90,o),
(330,146,o),
(330,222,cs),
(330,478,ls),
(330,554,o),
(274,610,o),
(198,610,cs),
(172,610,ls),
(96,610,o),
(40,554,o),
(40,478,cs),
(40,278,ls),
(40,226,o),
(76,186,o),
(125,186,cs),
(175,186,o),
(210,226,o),
(210,278,cs),
(210,314,ls),
(210,366,o),
(174,406,o),
(125,406,cs),
(98,406,o),
(75,394,o),
(60,374,c),
(60,478,ls),
(60,545,o),
(105,590,o),
(172,590,cs),
(198,590,ls),
(265,590,o),
(310,545,o),
(310,478,cs),
(310,222,ls),
(310,155,o),
(265,110,o),
(198,110,cs),
(110,110,ls),
(76,110,o),
(49,84,o),
(49,50,cs),
(49,16,o),
(76,-10,o),
(110,-10,cs)
);
},
{
closed = 1;
nodes = (
(86,206,o),
(60,235,o),
(60,278,cs),
(60,314,ls),
(60,357,o),
(86,386,o),
(125,386,cs),
(164,386,o),
(190,357,o),
(190,314,cs),
(190,278,ls),
(190,235,o),
(164,206,o),
(125,206,cs)
);
},
{
closed = 1;
nodes = (
(465,60,ls),
(440,62,o),
(424,82,o),
(424,112,cs),
(424,139,ls),
(424,170,o),
(442,190,o),
(470,190,cs),
(499,190,o),
(517,170,o),
(517,139,cs),
(517,112,ls),
(517,80,o),
(499,60,o),
(471,60,cs)
);
},
{
closed = 1;
nodes = (
(471,40,l),
(472,40,ls),
(510,41,o),
(537,72,o),
(537,112,cs),
(537,139,ls),
(537,179,o),
(508,210,o),
(470,210,cs),
(432,210,o),
(404,179,o),
(404,139,cs),
(404,112,ls),
(404,104,o),
(405,96,o),
(408,88,c),
(396,102,o),
(390,120,o),
(390,142,cs),
(390,409,ls),
(390,458,o),
(422,490,o),
(472,490,cs),
(490,490,ls),
(537,490,o),
(570,460,o),
(570,405,cs),
(570,200,ls),
(570,194,o),
(574,190,o),
(580,190,cs),
(586,190,o),
(590,194,o),
(590,200,cs),
(590,490,l),
(705,490,l),
(705,50,ls),
(705,44,o),
(710,40,o),
(715,40,cs),
(720,40,o),
(725,44,o),
(725,50,cs),
(725,490,l),
(765,490,ls),
(770,490,o),
(775,494,o),
(775,500,cs),
(775,506,o),
(770,510,o),
(765,510,cs),
(580,510,ls),
(574,510,o),
(570,506,o),
(570,500,cs),
(570,471,l),
(552,496,o),
(523,510,o),
(490,510,cs),
(472,510,ls),
(413,510,o),
(370,467,o),
(370,409,cs),
(370,142,ls),
(370,86,o),
(410,44,o),
(464,40,cs),
(470,40,l)
);
}
);
width = 820;
},
{
layerId = "831A5D7B-7350-4608-95DD-9715BE7B29F6";
shapes = (
{
closed = 1;
nodes = (
(770,-20,ls),
(781.2,-20,o),
(790,-11.2,o),
(790,0,cs),
(790,11.2,o),
(781.2,20,o),
(770,20,cs),
(110,20,ls),
(89.2,20,o),
(79.2,29.6,o),
(79.2,50,cs),
(79.2,70.4,o),
(89.2,80,o),
(110,80,cs),
(198,80,ls),
(280,80,o),
(340,140,o),
(340,222,cs),
(340,478,ls),
(340,560,o),
(280,620,o),
(198,620,cs),
(172,620,ls),
(90,620,o),
(30,560,o),
(30,478,cs),
(30,278,ls),
(30,220.8,o),
(70.4,176,o),
(125.2,176,cs),
(180.8,176,o),
(220,220.8,o),
(220,278,cs),
(220,314,ls),
(220,371.2,o),
(179.6,416,o),
(125.2,416,cs),
(104,416,o),
(85.2,409.6,o),
(70,398,c),
(70,478,ls),
(70,540.8,o),
(109.2,580,o),
(172,580,cs),
(198,580,ls),
(260.8,580,o),
(300,540.8,o),
(300,478,cs),
(300,222,ls),
(300,159.2,o),
(260.8,120,o),
(198,120,cs),
(110,120,ls),
(70.4,120,o),
(39.2,90,o),
(39.2,50,cs),
(39.2,10,o),
(70.4,-20,o),
(110,-20,cs)
);
},
{
closed = 1;
nodes = (
(90.8,216,o),
(70,238.8,o),
(70,278,cs),
(70,314,ls),
(70,353.2,o),
(90.8,376,o),
(125.2,376,cs),
(159.2,376,o),
(180,353.2,o),
(180,314,cs),
(180,278,ls),
(180,238.4,o),
(160,216,o),
(125.2,216,cs)
);
},
{
closed = 1;
nodes = (
(468.8,70,o),
(467.2,70,o),
(465.2,70.4,cs),
(445.2,72,o),
(434,86,o),
(434,112,cs),
(434,139.2,ls),
(434,166,o),
(446.8,180,o),
(470,180,cs),
(494.4,180,o),
(507.2,166,o),
(507.2,139.2,cs),
(507.2,112,ls),
(507.2,84,o),
(494.4,70.4,o),
(470.8,70,cs)
);
},
{
closed = 1;
nodes = (
(472,30,ls),
(515.2,31.2,o),
(547.2,66.4,o),
(547.2,112,cs),
(547.2,139.2,ls),
(547.2,184.4,o),
(514.4,220,o),
(470,220,cs),
(437.6,220,o),
(411.2,200.4,o),
(400,171.2,c),
(400,409.2,ls),
(400,453.6,o),
(426.4,480,o),
(472,480,cs),
(490,480,ls),
(533.2,480,o),
(560,455.2,o),
(560,405.2,cs),
(560,200,ls),
(560,188.8,o),
(568.8,180,o),
(580,180,cs),
(591.2,180,o),
(600,188.8,o),
(600,200,cs),
(600,480,l),
(695.2,480,l),
(695.2,50,ls),
(695.2,38.8,o),
(704,30,o),
(715.2,30,cs),
(726,30,o),
(735.2,38.8,o),
(735.2,50,cs),
(735.2,480,l),
(765.2,480,ls),
(776,480,o),
(785.2,488.8,o),
(785.2,500,cs),
(785.2,511.2,o),
(776,520,o),
(765.2,520,cs),
(580,520,ls),
(567.2,520,o),
(560,513.2,o),
(560,500,cs),
(560,496,l),
(541.2,511.6,o),
(516.8,520,o),
(490,520,cs),
(472,520,ls),
(407.2,520,o),
(360,472.8,o),
(360,409.2,cs),
(360,142,ls),
(360,80,o),
(403.6,34.4,o),
(462.8,30.4,cs),
(465.2,30,o),
(467.6,30,o),
(470,30,cs)
);
}
);
width = 820;
}
);
metricLeft = "ca-tamil";
metricRight = "ca-tamil";
unicode = 2954;
},
{
glyphname = "e-tamil";
lastChange = "2023-04-08 14:10:14 +0000";
layers = (
{
layerId = m01;
shapes = (
{
closed = 0;
nodes = (
(370,0,l),
(370,600,l),
(254,600,ls),
(136,600,o),
(50,514,o),
(50,396,cs),
(50,175,l)
);
},
{
pos = (50,50);
ref = naduVattam;
},
{
closed = 0;
nodes = (
(370,600,l),
(490,600,l)
);
}
);
width = 515;
},
{
layerId = "DF2AA445-C2A4-4E12-8ADA-5B4903805A97";
shapes = (
{
closed = 1;
nodes = (
(376,-10,o),
(380,-6,o),
(380,0,cs),
(380,590,l),
(490,590,ls),
(496,590,o),
(500,594,o),
(500,600,cs),
(500,606,o),
(496,610,o),
(490,610,cs),
(254,610,ls),
(131,610,o),
(40,519,o),
(40,396,cs),
(40,148,ls),
(40,87,o),
(82,40,o),
(140,40,cs),
(199,40,o),
(240,87,o),
(240,148,cs),
(240,192,ls),
(240,253,o),
(198,300,o),
(140,300,cs),
(106,300,o),
(78,284,o),
(60,258,c),
(60,396,ls),
(60,510,o),
(140,590,o),
(254,590,cs),
(360,590,l),
(360,0,ls),
(360,-6,o),
(364,-10,o),
(370,-10,cs)
);
},
{
closed = 1;
nodes = (
(92,60,o),
(60,96,o),
(60,148,cs),
(60,192,ls),
(60,244,o),
(92,280,o),
(140,280,cs),
(188,280,o),
(220,244,o),
(220,192,cs),
(220,148,ls),
(220,96,o),
(188,60,o),
(140,60,cs)
);
}
);
width = 515;
},
{
layerId = "831A5D7B-7350-4608-95DD-9715BE7B29F6";
shapes = (
{
closed = 1;
nodes = (
(381.2,-20,o),
(390,-11.2,o),
(390,0,cs),
(390,580,l),
(490,580,ls),
(501.2,580,o),
(510,588.8,o),
(510,600,cs),
(510,611.2,o),
(501.2,620,o),
(490,620,cs),
(254,620,ls),
(125.2,620,o),
(30,524.8,o),
(30,396,cs),
(30,148,ls),
(30,81.6,o),
(76.4,30,o),
(140,30,cs),
(204.8,30,o),
(250,82,o),
(250,148,cs),
(250,192,ls),
(250,258.4,o),
(203.6,310,o),
(140,310,cs),
(112.8,310,o),
(88.8,300.4,o),
(70,284.4,c),
(70,396,ls),
(70,505.6,o),
(144.4,580,o),
(254,580,cs),
(350,580,l),
(350,0,ls),
(350,-11.2,o),
(358.8,-20,o),
(370,-20,cs)
);
},
{
closed = 1;
nodes = (
(96.8,70,o),
(70,99.6,o),
(70,148,cs),
(70,192,ls),
(70,240.4,o),
(96.8,270,o),
(140,270,cs),
(183.2,270,o),
(210,240.4,o),
(210,192,cs),
(210,148,ls),
(210,99.6,o),
(184,70,o),
(140,70,cs)
);
}
);
width = 515;
}
);
metricLeft = "ca-tamil";
unicode = 2958;
},
{
glyphname = "ee-tamil";
lastChange = "2023-04-08 14:10:14 +0000";
layers = (
{
layerId = m01;
shapes = (
{
closed = 0;
nodes = (
(200,-296,l),
(370,0,l),
(370,600,l),
(254,600,ls),
(136,600,o),
(50,514,o),
(50,396,cs),
(50,175,l)
);
},
{
pos = (50,50);
ref = naduVattam;
},
{
closed = 0;
nodes = (
(370,600,l),
(490,600,l)
);
}
);
width = 515;
},
{
layerId = "DF2AA445-C2A4-4E12-8ADA-5B4903805A97";
shapes = (
{
closed = 1;
nodes = (
(204,-306,o),
(207,-304,o),
(209,-301,cs),
(377,-8,ls),
(379,-4,o),
(380,-1,o),
(380,4,cs),
(380,590,l),
(490,590,ls),
(496,590,o),
(500,594,o),
(500,600,cs),
(500,606,o),
(496,610,o),
(490,610,cs),
(254,610,ls),
(131,610,o),
(40,519,o),
(40,396,cs),
(40,148,ls),
(40,87,o),
(82,40,o),
(140,40,cs),
(199,40,o),
(240,87,o),
(240,148,cs),
(240,192,ls),
(240,253,o),
(198,300,o),
(140,300,cs),
(106,300,o),
(78,284,o),
(60,258,c),
(60,396,ls),
(60,510,o),
(140,590,o),
(254,590,cs),
(360,590,l),
(360,3,l),
(192,-291,l),
(191,-291,l),
(190,-292,o),
(190,-294,o),
(190,-296,cs),
(190,-302,o),
(194,-306,o),
(200,-306,cs)
);
},
{
closed = 1;
nodes = (
(92,60,o),
(60,96,o),
(60,148,cs),
(60,192,ls),
(60,244,o),
(92,280,o),
(140,280,cs),
(188,280,o),
(220,244,o),
(220,192,cs),
(220,148,ls),
(220,96,o),
(188,60,o),
(140,60,cs)
);
}
);
width = 515;
},
{
layerId = "831A5D7B-7350-4608-95DD-9715BE7B29F6";
shapes = (
{
closed = 1;
nodes = (
(207.6,-316,o),
(214,-312,o),
(217.2,-306,cs),
(217.6,-305.6,l),
(383.2,-16.8,ls),
(388,-8.4,o),
(390,-1.6,o),
(390,8,cs),
(390,580,l),
(490,580,ls),
(501.2,580,o),
(510,588.8,o),
(510,600,cs),
(510,611.2,o),
(501.2,620,o),
(490,620,cs),
(254,620,ls),
(125.2,620,o),
(30,524.8,o),
(30,396,cs),
(30,148,ls),
(30,81.6,o),
(76.4,30,o),
(140,30,cs),
(204.8,30,o),
(250,82,o),
(250,148,cs),
(250,192,ls),
(250,258.4,o),
(203.6,310,o),
(140,310,cs),
(112.8,310,o),
(88.8,300.4,o),
(70,284.4,c),
(70,396,ls),
(70,505.6,o),
(144.4,580,o),
(254,580,cs),
(350,580,l),
(350,5.2,l),
(182.8,-285.6,l),
(182.8,-286,l),
(180.8,-288.8,o),
(180,-292.4,o),
(180,-296,cs),
(180,-307.2,o),
(188.8,-316,o),
(200,-316,cs)
);
},
{
closed = 1;
nodes = (
(96.8,70,o),
(70,99.6,o),
(70,148,cs),
(70,192,ls),
(70,240.4,o),
(96.8,270,o),
(140,270,cs),
(183.2,270,o),
(210,240.4,o),
(210,192,cs),
(210,148,ls),
(210,99.6,o),
(184,70,o),
(140,70,cs)
);
}
);
width = 515;
}
);
metricLeft = "ca-tamil";
unicode = 2959;
},
{
glyphname = "ai-tamil";
lastChange = "2023-04-08 14:10:14 +0000";
layers = (
{
layerId = m01;
shapes = (
{
pos = (95,295);
ref = chinnaVattam;
},
{
closed = 0;
nodes = (
(317,371,l),
(317,473,ls),
(317,552,o),
(264,600,o),
(196,600,cs),
(172,600,ls),
(101,600,o),
(50,549,o),
(50,478,cs),
(50,417,ls),
(50,346,o),
(102,295,o),
(172,295,c)
);
},
{
closed = 0;
nodes = (
(482,231,l),
(508,231,ls),
(552,231,o),
(584,198,o),
(584,154,cs),
(584,127,ls),
(584,48,o),
(531,0,o),
(463,0,cs),
(439,0,ls),
(368,0,o),
(317,51,o),
(317,122,c)
);
},
{
closed = 0;
nodes = (
(317,172,l),
(317,121,ls),
(317,50,o),
(266,-1,o),
(195,-1,cs),
(171,-1,ls),
(103,-1,o),
(50,47,o),
(50,126,cs),
(50,185,o),
(86,203,o),
(140,218,cs),
(477,313,ls),
(540,331,o),
(584,383,o),
(584,450,cs),
(584,473,ls),
(584,552,o),
(531,600,o),
(463,600,cs),
(439,600,ls),
(368,600,o),
(317,549,o),
(317,478,cs),
(317,417,l)
);
}
);
width = 634;
},
{
layerId = "DF2AA445-C2A4-4E12-8ADA-5B4903805A97";
shapes = (
{
closed = 1;
nodes = (
(195,-11,ls),
(252,-11,o),
(298,20,o),
(317,68,c),
(337,21,o),
(382,-10,o),
(439,-10,cs),
(463,-10,ls),
(536,-10,o),
(594,42,o),
(594,127,cs),
(594,154,ls),
(594,203,o),
(558,241,o),
(508,241,cs),
(482,241,ls),
(476,241,o),
(472,236,o),
(472,231,cs),
(472,226,o),
(476,221,o),
(482,221,cs),
(508,221,ls),
(548,221,o),
(574,194,o),
(574,154,cs),
(574,127,ls),
(574,52,o),
(527,10,o),
(463,10,cs),
(439,10,ls),
(372,10,o),
(327,55,o),
(327,122,cs),
(327,172,ls),
(327,178,o),
(322,182,o),
(317,182,cs),
(312,182,o),
(307,178,o),
(307,172,cs),
(307,121,ls),
(307,54,o),
(262,9,o),
(195,9,cs),
(171,9,ls),
(107,9,o),
(60,52,o),
(60,126,cs),
(60,179,o),
(90,194,o),
(143,208,cs),
(480,303,ls),
(547,322,o),
(594,378,o),
(594,450,cs),
(594,473,ls),
(594,558,o),
(536,610,o),
(463,610,cs),
(439,610,ls),
(382,610,o),
(336,578,o),
(317,530,c),
(297,581,o),
(251,610,o),
(196,610,cs),
(172,610,ls),
(96,610,o),
(40,554,o),
(40,478,cs),
(40,417,ls),
(40,344,o),
(92,289,o),
(164,285,cs),
(170,285,l),
(172,285,ls),
(221,286,o),
(255,326,o),
(255,377,cs),
(255,413,ls),
(255,465,o),
(219,505,o),
(170,505,cs),
(121,505,o),
(85,465,o),
(85,413,cs),
(85,377,ls),
(85,361,o),
(88,346,o),
(95,332,c),
(73,352,o),
(60,382,o),
(60,417,cs),
(60,478,ls),
(60,545,o),
(105,590,o),
(172,590,cs),
(196,590,ls),
(260,590,o),
(307,548,o),
(307,473,cs),
(307,371,ls),
(307,366,o),
(312,361,o),
(317,361,cs),
(322,361,o),
(327,366,o),
(327,371,cs),
(327,478,ls),
(327,545,o),
(372,590,o),
(439,590,cs),
(463,590,ls),
(527,590,o),
(574,548,o),
(574,473,cs),
(574,450,ls),
(574,387,o),
(534,340,o),
(474,323,cs),
(137,228,ls),
(82,212,o),
(40,192,o),
(40,126,cs),
(40,41,o),
(98,-11,o),
(171,-11,cs)
);
},
{
closed = 1;
nodes = (
(129,308,o),
(105,336,o),
(105,377,cs),
(105,413,ls),
(105,456,o),
(132,485,o),
(170,485,cs),
(208,485,o),
(235,456,o),
(235,413,cs),
(235,377,ls),
(235,334,o),
(210,306,o),
(171,305,cs),
(164,305,ls)
);
}
);
width = 634;
},
{
layerId = "831A5D7B-7350-4608-95DD-9715BE7B29F6";
shapes = (
{
closed = 1;
nodes = (
(195.2,-20.8,ls),
(248.8,-20.8,o),
(293.2,4.8,o),
(317.2,46,c),
(341.6,5.6,o),
(385.6,-20,o),
(439.2,-20,cs),
(463.2,-20,ls),
(541.2,-20,o),
(604,36.4,o),
(604,127.2,cs),
(604,154,ls),
(604,208.8,o),
(563.2,251.2,o),
(508,251.2,cs),
(482,251.2,ls),
(470.8,251.2,o),
(462,242,o),
(462,231.2,cs),
(462,220,o),
(470.8,211.2,o),
(482,211.2,cs),
(508,211.2,ls),
(543.6,211.2,o),
(564,190,o),
(564,154,cs),
(564,127.2,ls),
(564,56.8,o),
(523.2,20,o),
(463.2,20,cs),
(439.2,20,ls),
(376.4,20,o),
(337.2,59.2,o),
(337.2,122,cs),
(337.2,172,ls),
(337.2,183.2,o),
(328,192,o),
(317.2,192,cs),
(306,192,o),
(297.2,183.2,o),
(297.2,172,cs),
(297.2,121.2,ls),
(297.2,58.4,o),
(257.6,19.2,o),
(195.2,19.2,cs),
(171.2,19.2,ls),
(110.8,19.2,o),
(70,56,o),
(70,126,cs),
(70,172.8,o),
(93.2,184.4,o),
(145.2,198.8,cs),
(482.4,293.6,ls),
(553.2,314,o),
(604,373.6,o),
(604,450,cs),
(604,473.2,ls),
(604,563.6,o),
(541.2,620,o),
(463.2,620,cs),
(439.2,620,ls),
(385.2,620,o),
(340.8,594,o),
(316.8,553.2,c),
(292,595.6,o),
(247.6,620,o),
(196,620,cs),
(172,620,ls),
(90,620,o),
(30,560,o),
(30,478,cs),
(30,417.2,ls),
(30,338,o),
(86.8,279.6,o),
(162.8,275.2,cs),
(170,275.2,l),
(172,275.2,ls),
(226.4,276,o),
(265.2,320.4,o),
(265.2,377.2,cs),
(265.2,413.2,ls),
(265.2,470.4,o),
(224.4,515.2,o),
(170,515.2,cs),
(115.6,515.2,o),
(75.2,470.4,o),
(75.2,413.2,cs),
(75.2,381.2,l),
(71.6,392,o),
(70,404,o),
(70,417.2,cs),
(70,478,ls),
(70,540.8,o),
(109.2,580,o),
(172,580,cs),
(196,580,ls),
(256.4,580,o),
(297.2,543.2,o),
(297.2,473.2,cs),
(297.2,371.2,ls),
(297.2,360,o),
(306,351.2,o),
(317.2,351.2,cs),
(328,351.2,o),
(337.2,360,o),
(337.2,371.2,cs),
(337.2,478,ls),
(337.2,540.8,o),
(376.4,580,o),
(439.2,580,cs),
(463.2,580,ls),
(523.2,580,o),
(564,543.2,o),
(564,473.2,cs),
(564,450,ls),
(564,390.4,o),
(528.8,348.4,o),
(471.6,332.4,cs),
(134.8,237.2,ls),
(77.6,221.6,o),
(30,198.4,o),
(30,126,cs),
(30,35.6,o),
(92.8,-20.8,o),
(171.2,-20.8,cs)
);
},
{
closed = 1;
nodes = (
(133.6,317.6,o),
(115.2,339.6,o),
(115.2,377.2,cs),
(115.2,413.2,ls),
(115.2,452.4,o),
(136,475.2,o),
(170,475.2,cs),
(204,475.2,o),
(225.2,452.4,o),
(225.2,413.2,cs),
(225.2,377.2,ls),
(225.2,338,o),
(205.2,315.2,o),
(170.8,315.2,cs),
(164.8,315.2,ls)
);
}
);
width = 634;
}
);
metricLeft = "ca-tamil";
metricRight = "ca-tamil";
unicode = 2960;
},
{
glyphname = "o-tamil";
lastChange = "2023-04-08 14:10:15 +0000";
layers = (
{
layerId = m01;
shapes = (
{
pos = (50,174);
ref = chinnaVattam;
},
{
closed = 0;
nodes = (
(139,-106,l),
(139,-167,o),
(184,-213,o),
(244,-213,cs),
(304,-213,o),
(349,-167,o),
(349,-106,cs),
(349,-45,o),
(394,0,o),
(453,0,cs),
(412,0,ls),
(359,0,o),
(320,40,o),
(320,92,cs),
(320,227,l)
);
},
{
closed = 0;
nodes = (
(320,137,l),
(440,137,l),
(440,416,ls),
(440,522,o),
(362,600,o),
(256,600,cs),
(234,600,ls),
(128,600,o),
(50,522,o),
(50,416,cs),
(50,274,l)
);
}
);
width = 503;
},
{
layerId = "DF2AA445-C2A4-4E12-8ADA-5B4903805A97";
shapes = (
{
closed = 1;
nodes = (
(310,-223,o),
(359,-172,o),
(359,-106,cs),
(359,-53,o),
(394,-15,o),
(443,-10,cs),
(450,-10,o),
(453,-7,o),
(453,0,cs),
(453,6,o),
(450,10,o),
(443,10,cs),
(412,10,ls),
(363,10,o),
(330,44,o),
(330,92,cs),
(330,127,l),
(440,127,ls),
(446,127,o),
(450,131,o),
(450,137,cs),
(450,416,ls),
(450,527,o),
(367,610,o),
(256,610,cs),
(234,610,ls),
(123,610,o),
(40,527,o),
(40,416,cs),
(40,256,ls),
(40,204,o),
(76,164,o),
(125,164,cs),
(175,164,o),
(210,204,o),
(210,256,cs),
(210,292,ls),
(210,344,o),
(174,384,o),
(125,384,cs),
(98,384,o),
(75,372,o),
(60,352,c),
(60,416,ls),
(60,518,o),
(132,590,o),
(234,590,cs),
(256,590,ls),
(358,590,o),
(430,518,o),
(430,416,cs),
(430,147,l),
(330,147,l),
(330,227,ls),
(330,232,o),
(326,237,o),
(320,237,cs),
(314,237,o),
(310,232,o),
(310,227,cs),
(310,92,ls),
(310,42,o),
(343,2,o),
(391,-8,c),
(359,-28,o),
(339,-64,o),
(339,-106,cs),
(339,-163,o),
(300,-203,o),
(244,-203,cs),
(188,-203,o),
(149,-163,o),
(149,-106,cs),
(149,-100,o),
(144,-96,o),
(139,-96,cs),
(134,-96,o),
(129,-100,o),
(129,-106,cs),
(129,-172,o),
(178,-223,o),
(244,-223,cs)
);
},
{
closed = 1;
nodes = (
(86,184,o),
(60,213,o),
(60,256,cs),
(60,292,ls),
(60,335,o),
(86,364,o),
(125,364,cs),
(164,364,o),
(190,335,o),
(190,292,cs),
(190,256,ls),
(190,213,o),
(164,184,o),
(125,184,cs)
);
}
);
width = 493;
},
{
layerId = "831A5D7B-7350-4608-95DD-9715BE7B29F6";
shapes = (
{
closed = 1;
nodes = (
(315.2,-232.8,o),
(369.2,-177.6,o),
(369.2,-106,cs),
(369.2,-60,o),
(394.4,-29.2,o),
(434,-21.6,cs),
(446.4,-19.2,o),
(453.2,-13.6,o),
(453.2,-0.8,cs),
(453.2,0,ls),
(453.2,13.2,o),
(446.4,20,o),
(433.2,20,cs),
(412,20,ls),
(367.6,20,o),
(340,48,o),
(340,92,cs),
(340,117.2,l),
(440,117.2,ls),
(453.2,117.2,o),
(460,124.4,o),
(460,137.2,cs),
(460,416,ls),
(460,532.8,o),
(372.8,620,o),
(256,620,cs),
(234,620,ls),
(117.2,620,o),
(30,532.8,o),
(30,416,cs),
(30,256,ls),
(30,198.8,o),
(70.4,154,o),
(125.2,154,cs),
(180.8,154,o),
(220,198.8,o),
(220,256,cs),
(220,292,ls),
(220,349.2,o),
(179.6,394,o),
(125.2,394,cs),
(104,394,o),
(85.2,387.6,o),
(70,376,c),
(70,416,ls),
(70,513.6,o),
(136.4,580,o),
(234,580,cs),
(256,580,ls),
(353.6,580,o),
(420,513.6,o),
(420,416,cs),
(420,157.2,l),
(340,157.2,l),
(340,227.2,ls),
(340,238,o),
(331.2,247.2,o),
(320,247.2,cs),
(308.8,247.2,o),
(300,238,o),
(300,227.2,cs),
(300,92,ls),
(300,44.4,o),
(327.6,4.4,o),
(369.2,-12,c),
(344.4,-34.8,o),
(329.2,-68,o),
(329.2,-106,cs),
(329.2,-158.8,o),
(295.6,-192.8,o),
(244,-192.8,cs),
(192.4,-192.8,o),
(159.2,-158.8,o),
(159.2,-106,cs),
(159.2,-94.8,o),
(150,-86,o),
(139.2,-86,cs),
(128,-86,o),
(119.2,-94.8,o),
(119.2,-106,cs),
(119.2,-177.6,o),
(172.8,-232.8,o),
(244,-232.8,cs)
);
},
{
closed = 1;
nodes = (
(90.8,194,o),
(70,216.8,o),
(70,256,cs),
(70,292,ls),
(70,331.2,o),
(90.8,354,o),
(125.2,354,cs),
(159.2,354,o),
(180,331.2,o),
(180,292,cs),
(180,256,ls),
(180,216.4,o),
(160,194,o),
(125.2,194,cs)
);
}
);
width = 490;
}
);
metricLeft = "ca-tamil";
metricRight = "ca-tamil";
unicode = 2962;
},
{
glyphname = "oo-tamil";
lastChange = "2023-04-08 14:10:15 +0000";
layers = (
{
layerId = m01;
shapes = (
{
pos = (50,174);
ref = chinnaVattam;
},
{
closed = 0;
nodes = (
(139,-106,l),
(139,-167,o),
(184,-213,o),
(244,-213,cs),
(304,-213,o),
(349,-167,o),
(349,-106,cs),
(349,-45,o),
(394,0,o),
(453,0,cs),
(412,0,ls),
(359,0,o),
(320,40,o),
(320,92,cs),
(320,227,l)
);
},
{
closed = 0;
nodes = (
(320,137,l),
(440,137,l),
(440,416,ls),
(440,522,o),
(362,600,o),
(256,600,cs),
(234,600,ls),
(128,600,o),
(50,522,o),
(50,416,cs),
(50,274,l)
);
},
{
pos = (139,-156);
ref = kokkiVattam;
}
);
width = 503;
},
{
layerId = "DF2AA445-C2A4-4E12-8ADA-5B4903805A97";
shapes = (
{
closed = 1;
nodes = (
(310,-223,o),
(359,-172,o),
(359,-106,cs),
(359,-53,o),
(394,-15,o),
(443,-10,cs),
(450,-10,o),
(453,-7,o),
(453,0,cs),
(453,6,o),
(450,10,o),
(443,10,cs),
(412,10,ls),
(363,10,o),
(330,44,o),
(330,92,cs),
(330,127,l),
(440,127,ls),
(446,127,o),
(450,131,o),
(450,137,cs),
(450,416,ls),
(450,527,o),
(367,610,o),
(256,610,cs),
(234,610,ls),
(123,610,o),
(40,527,o),
(40,416,cs),
(40,256,ls),
(40,204,o),
(76,164,o),
(125,164,cs),
(175,164,o),
(210,204,o),
(210,256,cs),
(210,292,ls),
(210,344,o),
(174,384,o),
(125,384,cs),
(98,384,o),
(75,372,o),
(60,352,c),
(60,416,ls),
(60,518,o),
(132,590,o),
(234,590,cs),
(256,590,ls),
(358,590,o),
(430,518,o),
(430,416,cs),
(430,147,l),
(330,147,l),
(330,227,ls),
(330,232,o),
(326,237,o),
(320,237,cs),
(314,237,o),
(310,232,o),
(310,227,cs),
(310,92,ls),
(310,42,o),
(343,2,o),
(391,-8,c),
(359,-28,o),
(339,-64,o),
(339,-106,cs),
(339,-163,o),
(300,-203,o),
(244,-203,cs),
(208,-203,o),
(180,-187,o),
(163,-160,c),
(171,-164,o),
(180,-166,o),
(189,-166,cs),
(221,-166,o),
(249,-138,o),
(249,-106,cs),
(249,-74,o),
(221,-46,o),
(189,-46,cs),
(157,-46,o),
(129,-74,o),
(129,-106,cs),
(129,-172,o),
(178,-223,o),
(244,-223,cs)
);
},
{
closed = 1;
nodes = (
(166,-146,o),
(149,-129,o),
(149,-106,cs),
(149,-83,o),
(166,-66,o),
(189,-66,cs),
(212,-66,o),
(229,-83,o),
(229,-106,cs),
(229,-129,o),
(212,-146,o),
(189,-146,cs)
);
},
{
closed = 1;
nodes = (
(86,184,o),
(60,213,o),
(60,256,cs),
(60,292,ls),
(60,335,o),
(86,364,o),
(125,364,cs),
(164,364,o),
(190,335,o),
(190,292,cs),
(190,256,ls),
(190,213,o),
(164,184,o),
(125,184,cs)
);
}
);
width = 493;
},
{
layerId = "831A5D7B-7350-4608-95DD-9715BE7B29F6";
shapes = (
{
closed = 1;
nodes = (
(315.2,-232.8,o),
(369.2,-177.6,o),
(369.2,-106,cs),
(369.2,-60,o),
(394.4,-29.2,o),
(434,-21.6,cs),
(446.4,-19.2,o),
(453.2,-13.6,o),
(453.2,-0.8,cs),
(453.2,0,ls),
(453.2,13.2,o),
(446.4,20,o),
(433.2,20,cs),
(412,20,ls),
(367.6,20,o),
(340,48,o),
(340,92,cs),
(340,117.2,l),
(440,117.2,ls),
(453.2,117.2,o),
(460,124.4,o),
(460,137.2,cs),
(460,416,ls),
(460,532.8,o),
(372.8,620,o),
(256,620,cs),
(234,620,ls),
(117.2,620,o),
(30,532.8,o),
(30,416,cs),
(30,256,ls),
(30,198.8,o),
(70.4,154,o),
(125.2,154,cs),
(180.8,154,o),
(220,198.8,o),
(220,256,cs),
(220,292,ls),
(220,349.2,o),
(179.6,394,o),
(125.2,394,cs),
(104,394,o),
(85.2,387.6,o),
(70,376,c),
(70,416,ls),
(70,513.6,o),
(136.4,580,o),
(234,580,cs),
(256,580,ls),
(353.6,580,o),
(420,513.6,o),
(420,416,cs),
(420,157.2,l),
(340,157.2,l),
(340,227.2,ls),
(340,238,o),
(331.2,247.2,o),
(320,247.2,cs),
(308.8,247.2,o),
(300,238,o),
(300,227.2,cs),
(300,92,ls),
(300,44.4,o),
(327.6,4.4,o),
(369.2,-12,c),
(344.4,-34.8,o),
(329.2,-68,o),
(329.2,-106,cs),
(329.2,-158.8,o),
(295.6,-192.8,o),
(244,-192.8,cs),
(222.4,-192.8,o),
(203.6,-186.8,o),
(189.6,-176,c),
(227.2,-175.6,o),
(259.2,-143.6,o),
(259.2,-106,cs),
(259.2,-68,o),
(226.8,-36,o),
(189.2,-36,cs),
(151.2,-36,o),
(119.2,-68,o),
(119.2,-106,cs),
(119.2,-177.6,o),
(172.8,-232.8,o),
(244,-232.8,cs)
);
},
{
closed = 1;
nodes = (
(170.4,-136,o),
(159.2,-124.8,o),
(159.2,-106,cs),
(159.2,-87.2,o),
(170.4,-76,o),
(189.2,-76,cs),
(207.6,-76,o),
(219.2,-87.2,o),
(219.2,-106,cs),
(219.2,-124.8,o),
(207.6,-136,o),
(189.2,-136,cs)
);
},
{
closed = 1;
nodes = (
(90.8,194,o),
(70,216.8,o),
(70,256,cs),
(70,292,ls),
(70,331.2,o),
(90.8,354,o),
(125.2,354,cs),
(159.2,354,o),
(180,331.2,o),
(180,292,cs),
(180,256,ls),
(180,216.4,o),
(160,194,o),
(125.2,194,cs)
);
}
);
width = 490;
}
);
metricLeft = "ca-tamil";
metricRight = "ca-tamil";
unicode = 2963;
},
{
glyphname = "au-tamil";
lastChange = "2023-04-08 14:10:14 +0000";
layers = (
{
layerId = m01;
shapes = (
{
pos = (50,174);
ref = chinnaVattam;
},
{
closed = 0;
nodes = (
(139,-106,l),
(139,-167,o),
(184,-213,o),
(244,-213,cs),
(304,-213,o),
(349,-167,o),
(349,-106,cs),
(349,-45,o),
(394,0,o),
(453,0,cs),
(412,0,ls),
(359,0,o),
(320,40,o),
(320,92,cs),
(320,227,l)
);
},
{
closed = 0;
nodes = (
(320,137,l),
(440,137,l),
(440,416,ls),
(440,522,o),
(362,600,o),
(256,600,cs),
(234,600,ls),
(128,600,o),
(50,522,o),
(50,416,cs),
(50,274,l)
);
},
{
pos = (564,0);
ref = chinnaVattam;
},
{
closed = 0;
nodes = (
(786,200,l),
(786,473,ls),
(786,552,o),
(733,600,o),
(665,600,cs),
(641,600,ls),
(570,600,o),
(519,549,o),
(519,478,cs),
(519,122,ls),
(519,51,o),
(571,0,o),
(641,0,c)
);
},
{
closed = 0;
nodes = (
(966,0,l),
(966,600,l),
(786,600,l),
(786,200,l)
);
},
{
closed = 0;
nodes = (
(1046,600,l),
(966,600,l)
);
}
);
width = 1096;
},
{
layerId = "DF2AA445-C2A4-4E12-8ADA-5B4903805A97";
shapes = (
{
closed = 1;
nodes = (
(310,-223,o),
(359,-172,o),
(359,-106,cs),
(359,-53,o),
(394,-15,o),
(443,-10,cs),
(450,-10,o),
(453,-7,o),
(453,0,cs),
(453,6,o),
(450,10,o),
(443,10,cs),
(412,10,ls),
(363,10,o),
(330,44,o),
(330,92,cs),
(330,127,l),
(440,127,ls),
(446,127,o),
(450,131,o),
(450,137,cs),
(450,416,ls),
(450,527,o),
(367,610,o),
(256,610,cs),
(234,610,ls),
(123,610,o),
(40,527,o),
(40,416,cs),
(40,256,ls),
(40,204,o),
(76,164,o),
(125,164,cs),
(175,164,o),
(210,204,o),
(210,256,cs),
(210,292,ls),
(210,344,o),
(174,384,o),
(125,384,cs),
(98,384,o),
(75,372,o),
(60,352,c),
(60,416,ls),
(60,518,o),
(132,590,o),
(234,590,cs),
(256,590,ls),
(358,590,o),
(430,518,o),
(430,416,cs),
(430,147,l),
(330,147,l),
(330,227,ls),
(330,232,o),
(326,237,o),
(320,237,cs),
(314,237,o),
(310,232,o),
(310,227,cs),
(310,92,ls),
(310,42,o),
(343,2,o),
(391,-8,c),
(359,-28,o),
(339,-64,o),
(339,-106,cs),
(339,-163,o),
(300,-203,o),
(244,-203,cs),
(188,-203,o),
(149,-163,o),
(149,-106,cs),
(149,-100,o),
(144,-96,o),
(139,-96,cs),
(134,-96,o),
(129,-100,o),
(129,-106,cs),
(129,-172,o),
(178,-223,o),
(244,-223,cs)
);
},
{
closed = 1;
nodes = (
(86,184,o),
(60,213,o),
(60,256,cs),
(60,292,ls),
(60,335,o),
(86,364,o),
(125,364,cs),
(164,364,o),
(190,335,o),
(190,292,cs),
(190,256,ls),
(190,213,o),
(164,184,o),
(125,184,cs)
);
},
{
closed = 1;
nodes = (
(598,13,o),
(574,41,o),
(574,82,cs),
(574,118,ls),
(574,161,o),
(600,190,o),
(639,190,cs),
(678,190,o),
(704,161,o),
(704,118,cs),
(704,82,ls),
(704,39,o),
(679,10,o),
(640,10,cs),
(634,10,ls)
);
},
{
closed = 1;
nodes = (
(641,-10,ls),
(690,-9,o),
(724,31,o),
(724,82,cs),
(724,118,ls),
(724,170,o),
(688,210,o),
(639,210,cs),
(590,210,o),
(554,170,o),
(554,118,cs),
(554,82,ls),
(554,66,o),
(558,50,o),
(564,38,c),
(542,57,o),
(529,86,o),
(529,122,cs),
(529,478,ls),
(529,545,o),
(574,590,o),
(641,590,cs),
(665,590,ls),
(729,590,o),
(776,548,o),
(776,473,cs),
(776,200,ls),
(776,194,o),
(780,190,o),
(786,190,cs),
(792,190,o),
(796,194,o),
(796,200,cs),
(796,590,l),
(956,590,l),
(956,0,ls),
(956,-6,o),
(960,-10,o),
(966,-10,cs),
(972,-10,o),
(976,-6,o),
(976,0,cs),
(976,590,l),
(1046,590,ls),
(1052,590,o),
(1056,594,o),
(1056,600,cs),
(1056,606,o),
(1052,610,o),
(1046,610,cs),
(786,610,ls),
(780,610,o),
(776,606,o),
(776,600,cs),
(776,550,l),
(753,588,o),
(712,610,o),
(665,610,cs),
(641,610,ls),
(565,610,o),
(509,554,o),
(509,478,cs),
(509,122,ls),
(509,48,o),
(562,-6,o),
(633,-10,cs),
(639,-10,l)
);
}
);
width = 1096;
},
{
layerId = "831A5D7B-7350-4608-95DD-9715BE7B29F6";
shapes = (
{
closed = 1;
nodes = (
(315.2,-232.8,o),
(369.2,-177.6,o),
(369.2,-106,cs),
(369.2,-60,o),
(394.4,-29.2,o),
(434,-21.6,cs),
(446.4,-19.2,o),
(453.2,-13.6,o),
(453.2,-0.8,cs),
(453.2,0,ls),
(453.2,13.2,o),
(446.4,20,o),
(433.2,20,cs),
(412,20,ls),
(367.6,20,o),
(340,48,o),
(340,92,cs),
(340,117.2,l),
(440,117.2,ls),
(453.2,117.2,o),
(460,124.4,o),
(460,137.2,cs),
(460,416,ls),
(460,532.8,o),
(372.8,620,o),
(256,620,cs),
(234,620,ls),
(117.2,620,o),
(30,532.8,o),
(30,416,cs),
(30,256,ls),
(30,198.8,o),
(70.4,154,o),
(125.2,154,cs),
(180.8,154,o),
(220,198.8,o),
(220,256,cs),
(220,292,ls),
(220,349.2,o),
(179.6,394,o),
(125.2,394,cs),
(104,394,o),
(85.2,387.6,o),
(70,376,c),
(70,416,ls),
(70,513.6,o),
(136.4,580,o),
(234,580,cs),
(256,580,ls),
(353.6,580,o),
(420,513.6,o),
(420,416,cs),
(420,157.2,l),
(340,157.2,l),
(340,227.2,ls),
(340,238,o),
(331.2,247.2,o),
(320,247.2,cs),
(308.8,247.2,o),
(300,238,o),
(300,227.2,cs),
(300,92,ls),
(300,44.4,o),
(327.6,4.4,o),
(369.2,-12,c),
(344.4,-34.8,o),
(329.2,-68,o),
(329.2,-106,cs),
(329.2,-158.8,o),
(295.6,-192.8,o),
(244,-192.8,cs),
(192.4,-192.8,o),
(159.2,-158.8,o),
(159.2,-106,cs),
(159.2,-94.8,o),
(150,-86,o),
(139.2,-86,cs),
(128,-86,o),
(119.2,-94.8,o),
(119.2,-106,cs),
(119.2,-177.6,o),
(172.8,-232.8,o),
(244,-232.8,cs)
);
},
{
closed = 1;
nodes = (
(90.8,194,o),
(70,216.8,o),
(70,256,cs),
(70,292,ls),
(70,331.2,o),
(90.8,354,o),
(125.2,354,cs),
(159.2,354,o),
(180,331.2,o),
(180,292,cs),
(180,256,ls),
(180,216.4,o),
(160,194,o),
(125.2,194,cs)
);
},
{
closed = 1;
nodes = (
(602.8,22.4,o),
(584,44.8,o),
(584,82,cs),
(584,118,ls),
(584,157.2,o),
(604.8,180,o),
(639.2,180,cs),
(673.2,180,o),
(694,157.2,o),
(694,118,cs),
(694,82,ls),
(694,42.8,o),
(674.4,20.4,o),
(640,20,cs),
(633.6,20,ls)
);
},
{
closed = 1;
nodes = (
(641.2,-20,ls),
(695.6,-18.8,o),
(734,25.6,o),
(734,82,cs),
(734,118,ls),
(734,175.2,o),
(693.6,220,o),
(639.2,220,cs),
(584.4,220,o),
(544,175.2,o),
(544,118,cs),
(544,86.4,l),
(540.8,97.2,o),
(539.2,109.2,o),
(539.2,122,cs),
(539.2,478,ls),
(539.2,540.8,o),
(578.4,580,o),
(641.2,580,cs),
(665.2,580,ls),
(725.2,580,o),
(766,543.2,o),
(766,473.2,cs),
(766,200,ls),
(766,188.8,o),
(774.8,180,o),
(786,180,cs),
(797.2,180,o),
(806,188.8,o),
(806,200,cs),
(806,580,l),
(946,580,l),
(946,0,ls),
(946,-11.2,o),
(954.8,-20,o),
(966,-20,cs),
(977.2,-20,o),
(986,-11.2,o),
(986,0,cs),
(986,580,l),
(1046,580,ls),
(1057.2,580,o),
(1066,588.8,o),
(1066,600,cs),
(1066,611.2,o),
(1057.2,620,o),
(1046,620,cs),
(786,620,ls),
(773.2,620,o),
(766,613.2,o),
(766,600,cs),
(766,579.2,l),
(740.4,605.6,o),
(704.8,620,o),
(665.2,620,cs),
(641.2,620,ls),
(559.2,620,o),
(499.2,560,o),
(499.2,478,cs),
(499.2,122,ls),
(499.2,43.2,o),
(555.6,-15.6,o),
(632,-19.6,cs),
(634.4,-20,o),
(636.8,-20,o),
(639.2,-20,cs)
);
}
);
width = 1096;
}
);
metricLeft = "ca-tamil";
metricRight = "ca-tamil";
unicode = 2964;
},
{
glyphname = "ka-tamil";
lastChange = "2023-04-08 14:10:14 +0000";
layers = (
{
anchors = (
{
name = imatra;
pos = (231,600);
},
{
name = top;
pos = (250,600);
}
);
layerId = m01;
shapes = (
{
pos = (-50,0);
ref = chaMelPaadi;
},
{
pos = (50,0);
ref = chaKeezhPaadi;
},
{
closed = 0;
nodes = (
(398,445,l)
);
},
{
pos = (231,0);
ref = kaKeezhPaadi;
}
);
width = 460;
},
{
anchors = (
{
name = imatra;
pos = (231,600);
},
{
name = top;
pos = (250,600);
}
);
layerId = "DF2AA445-C2A4-4E12-8ADA-5B4903805A97";
shapes = (
{
closed = 1;
nodes = (
(178,-10,o),
(203,-1,o),
(222,15,c),
(222,13,o),
(224,12,o),
(226,10,c),
(248,-2,o),
(274,-10,o),
(300,-10,cs),
(392,-10,o),
(420,74,o),
(420,175,cs),
(420,276,o),
(392,360,o),
(290,360,cs),
(260,360,l),
(260,590,l),
(360,590,ls),
(366,590,o),
(370,594,o),
(370,600,cs),
(370,606,o),
(366,610,o),
(360,610,cs),
(130,610,ls),
(124,610,o),
(120,606,o),
(120,600,cs),
(120,357,l),
(76,346,o),
(40,304,o),
(40,248,cs),
(40,102,ls),
(40,38,o),
(86,-10,o),
(150,-10,cs)
);
},
{
closed = 1;
nodes = (
(96,10,o),
(60,47,o),
(60,102,cs),
(60,248,ls),
(60,303,o),
(97,340,o),
(142,340,cs),
(240,340,l),
(240,102,ls),
(240,47,o),
(204,10,o),
(150,10,cs)
);
},
{
closed = 1;
nodes = (
(276,10,o),
(256,16,o),
(236,28,c),
(234,28,l),
(251,48,o),
(260,73,o),
(260,102,cs),
(260,340,l),
(290,340,ls),
(377,340,o),
(400,271,o),
(400,175,cs),
(400,79,o),
(377,10,o),
(300,10,cs)
);
},
{
closed = 1;
nodes = (
(140,590,l),
(240,590,l),
(240,360,l),
(140,360,l)
);
}
);
width = 460;
},
{
anchors = (
{
name = imatra;
pos = (231,600);
},
{
name = top;
pos = (250,600);
}
);
layerId = "831A5D7B-7350-4608-95DD-9715BE7B29F6";
shapes = (
{
closed = 1;
nodes = (
(177.2,-20,o),
(202,-11.6,o),
(221.6,2.4,c),
(221.2,1.6,l),
(244.4,-11.6,o),
(271.6,-20,o),
(300,-20,cs),
(400.4,-20,o),
(430,71.6,o),
(430,175.2,cs),
(430,278.8,o),
(400,370,o),
(290,370,cs),
(270,370,l),
(270,580,l),
(360,580,ls),
(371.2,580,o),
(380,588.8,o),
(380,600,cs),
(380,611.2,o),
(371.2,620,o),
(360,620,cs),
(130,620,ls),
(117.2,620,o),
(110,612.8,o),
(110,600,cs),
(110,364.8,l),
(64.8,350.4,o),
(30,305.2,o),
(30,248,cs),
(30,102,ls),
(30,32.4,o),
(80.8,-20,o),
(150,-20,cs)
);
},
{
closed = 1;
nodes = (
(100.4,20,o),
(70,51.2,o),
(70,102,cs),
(70,248,ls),
(70,298.8,o),
(101.2,330,o),
(142,330,cs),
(230,330,l),
(230,102,ls),
(230,51.2,o),
(199.6,20,o),
(150,20,cs)
);
},
{
closed = 1;
nodes = (
(281.2,20,o),
(265.6,24,o),
(249.6,31.6,c),
(262.4,51.2,o),
(270,75.6,o),
(270,102,cs),
(270,330,l),
(290,330,ls),
(369.6,330,o),
(390,269.6,o),
(390,175.2,cs),
(390,80.4,o),
(369.6,20,o),
(300,20,cs)
);
},
{
closed = 1;
nodes = (
(150,580,l),
(230,580,l),
(230,370,l),
(150,370,l)
);
}
);
width = 460;
}
);
metricLeft = "ca-tamil";
metricRight = "ca-tamil";
unicode = 2965;
},
{
glyphname = "nga-tamil";
lastChange = "2023-04-08 14:10:14 +0000";
layers = (
{
anchors = (
{
name = imatra;
pos = (230,600);
},
{
name = top;
pos = (280,600);
}
);
layerId = m01;
shapes = (
{
closed = 0;
nodes = (
(230,150,l),
(230,600,l),
(50,600,l),
(50,0,l)
);
},
{
closed = 0;
nodes = (
(230,600,l),
(360,600,l)
);
},
{
closed = 0;
nodes = (
(230,260,l),
(230,305,o),
(251,345,o),
(311,345,cs),
(410,345,o),
(410,292,o),
(410,155,cs),
(410,51,o),
(379,-2,o),
(252,-2,cs),
(510,0,l),
(510,450,l)
);
}
);
width = 560;
},
{
anchors = (
{
name = imatra;
pos = (230,600);
},
{
name = top;
pos = (280,600);
}
);
layerId = "DF2AA445-C2A4-4E12-8ADA-5B4903805A97";
shapes = (
{
closed = 1;
nodes = (
(510,-10,ls),
(516,-10,o),
(520,-6,o),
(520,0,cs),
(520,450,ls),
(520,456,o),
(516,460,o),
(510,460,cs),
(504,460,o),
(500,456,o),
(500,450,cs),
(500,10,l),
(358,9,l),
(406,35,o),
(420,84,o),
(420,155,cs),
(420,292,o),
(420,355,o),
(311,355,cs),
(277,355,o),
(254,343,o),
(240,325,c),
(240,590,l),
(360,590,ls),
(366,590,o),
(370,594,o),
(370,600,cs),
(370,606,o),
(366,610,o),
(360,610,cs),
(50,610,ls),
(44,610,o),
(40,606,o),
(40,600,cs),
(40,0,ls),
(40,-6,o),
(44,-10,o),
(50,-10,cs),
(56,-10,o),
(60,-6,o),
(60,0,cs),
(60,590,l),
(220,590,l),
(220,150,ls),
(220,144,o),
(224,140,o),
(230,140,cs),
(236,140,o),
(240,144,o),
(240,150,cs),
(240,260,ls),
(240,302,o),
(257,335,o),
(311,335,cs),
(400,335,o),
(400,292,o),
(400,155,cs),
(400,56,o),
(374,10,o),
(259,8,cs),
(255,8,o),
(252,4,o),
(252,-2,cs),
(252,-12,l)
);
}
);
width = 560;
},
{
anchors = (
{
name = imatra;
pos = (230,600);
},
{
name = top;
pos = (280,600);
}
);
layerId = "831A5D7B-7350-4608-95DD-9715BE7B29F6";
shapes = (
{
closed = 1;
nodes = (
(258.8,-22,l),
(510,-20,ls),
(523.2,-20,o),
(530,-13.2,o),
(530,0,cs),
(530,450,ls),
(530,461.2,o),
(521.2,470,o),
(510,470,cs),
(498.8,470,o),
(490,461.2,o),
(490,450,cs),
(490,20,l),
(388.8,19.2,l),
(419.6,49.2,o),
(430,95.6,o),
(430,155.2,cs),
(430,292,o),
(430,365.2,o),
(311.2,365.2,cs),
(285.2,365.2,o),
(265.2,358.8,o),
(250,348,c),
(250,580,l),
(360,580,ls),
(371.2,580,o),
(380,588.8,o),
(380,600,cs),
(380,611.2,o),
(371.2,620,o),
(360,620,cs),
(50,620,ls),
(37.2,620,o),
(30,613.2,o),
(30,600,cs),
(30,0,ls),
(30,-11.2,o),
(38.8,-20,o),
(50,-20,cs),
(61.2,-20,o),
(70,-11.2,o),
(70,0,cs),
(70,580,l),
(210,580,l),
(210,150,ls),
(210,138.8,o),
(218.8,130,o),
(230,130,cs),
(241.2,130,o),
(250,138.8,o),
(250,150,cs),
(250,260,ls),
(250,300,o),
(263.2,325.2,o),
(311.2,325.2,cs),
(390.4,325.2,o),
(390,292.4,o),
(390,155.2,cs),
(390,58.8,o),
(368.4,19.6,o),
(260,18,cs),
(255.2,18,o),
(252,11.2,o),
(252,-2,cs),
(252,-22,l)
);
}
);
width = 560;
}
);
metricLeft = "ca-tamil";
metricRight = "ca-tamil";
unicode = 2969;
},
{
glyphname = "ca-tamil";
lastChange = "2023-04-08 14:10:14 +0000";
layers = (
{
anchors = (
{
name = imatra;
pos = (205,600);
},
{
name = top;
pos = (205,600);
}
);
layerId = m01;
shapes = (
{
pos = (-50,0);
ref = chaMelPaadi;
},
{
pos = (50,0);
ref = chaKeezhPaadi;
},
{
closed = 0;
nodes = (
(250,350,l),
(360,350,l)
);
}
);
width = 410;
},
{
anchors = (
{
name = imatra;
pos = (205,600);
},
{
name = top;
pos = (205,600);
}
);
layerId = "DF2AA445-C2A4-4E12-8ADA-5B4903805A97";
shapes = (
{
closed = 1;
nodes = (
(214,-10,o),
(260,38,o),
(260,102,cs),
(260,340,l),
(360,340,ls),
(366,340,o),
(370,344,o),
(370,350,cs),
(370,356,o),
(366,360,o),
(360,360,cs),
(260,360,l),
(260,590,l),
(360,590,ls),
(366,590,o),
(370,594,o),
(370,600,cs),
(370,606,o),
(366,610,o),
(360,610,cs),
(130,610,ls),
(124,610,o),
(120,606,o),
(120,600,cs),
(120,357,l),
(76,346,o),
(40,304,o),
(40,248,cs),
(40,102,ls),
(40,38,o),
(86,-10,o),
(150,-10,cs)
);
},
{
closed = 1;
nodes = (
(96,10,o),
(60,47,o),
(60,102,cs),
(60,248,ls),
(60,303,o),
(97,340,o),
(142,340,cs),
(240,340,l),
(240,102,ls),
(240,47,o),
(204,10,o),
(150,10,cs)
);
},
{
closed = 1;
nodes = (
(140,590,l),
(240,590,l),
(240,360,l),
(140,360,l)
);
}
);
width = 410;
},
{
anchors = (
{
name = imatra;
pos = (205,600);
},
{
name = top;
pos = (205,600);
}
);
layerId = "831A5D7B-7350-4608-95DD-9715BE7B29F6";
shapes = (
{
closed = 1;
nodes = (
(219.2,-20,o),
(270,32.4,o),
(270,102,cs),
(270,330,l),
(360,330,ls),
(371.2,330,o),
(380,338.8,o),
(380,350,cs),
(380,361.2,o),
(371.2,370,o),
(360,370,cs),
(270,370,l),
(270,580,l),
(360,580,ls),
(371.2,580,o),
(380,588.8,o),
(380,600,cs),
(380,611.2,o),
(371.2,620,o),
(360,620,cs),
(130,620,ls),
(117.2,620,o),
(110,612.8,o),
(110,600,cs),
(110,364.8,l),
(64.8,350.4,o),
(30,305.2,o),
(30,248,cs),
(30,102,ls),
(30,32.4,o),
(80.8,-20,o),
(150,-20,cs)
);
},
{
closed = 1;
nodes = (
(100.4,20,o),
(70,51.2,o),
(70,102,cs),
(70,248,ls),
(70,298.8,o),
(101.2,330,o),
(142,330,cs),
(230,330,l),
(230,102,ls),
(230,51.2,o),
(199.6,20,o),
(150,20,cs)
);
},
{
closed = 1;
nodes = (
(150,580,l),
(230,580,l),
(230,370,l),
(150,370,l)
);
}
);
width = 410;
}
);
unicode = 2970;
},
